<mxfile host="Electron" modified="2024-07-18T14:02:29.139Z" agent="Mozilla/5.0 (Windows NT 10.0; Win64; x64) AppleWebKit/537.36 (KHTML, like Gecko) draw.io/24.6.4 Chrome/124.0.6367.207 Electron/30.0.6 Safari/537.36" etag="D85iwosuIGCRfPmn1RT1" version="24.6.4" type="device" pages="2">
  <diagram id="gkJ3YGw4E3nwKOuydbpv" name="overview">
    <mxGraphModel dx="1674" dy="844" grid="1" gridSize="10" guides="1" tooltips="1" connect="1" arrows="1" fold="1" page="1" pageScale="1" pageWidth="1169" pageHeight="827" math="0" shadow="0">
      <root>
        <mxCell id="0" />
        <mxCell id="1" parent="0" />
        <mxCell id="2" value="" style="rounded=0;whiteSpace=wrap;html=1;fillColor=#F5F4F2;strokeColor=#B3B3B3;" parent="1" vertex="1">
          <mxGeometry x="460" y="160" width="620" height="280" as="geometry" />
        </mxCell>
        <mxCell id="aZVrczoCgkLRek6ezOxu-7" value="" style="rounded=0;whiteSpace=wrap;html=1;dashed=1;strokeColor=#AE562C;fillColor=#F5F4F2;strokeWidth=2;" parent="1" vertex="1">
          <mxGeometry x="500" y="200" width="540" height="224" as="geometry" />
        </mxCell>
        <mxCell id="aZVrczoCgkLRek6ezOxu-6" value="" style="shape=image;verticalLabelPosition=bottom;verticalAlign=top;imageAspect=0;aspect=fixed;image=data:image/svg+xml,PHN2ZyB4bWxucz0iaHR0cDovL3d3dy53My5vcmcvMjAwMC9zdmciIHhtbG5zOnhsaW5rPSJodHRwOi8vd3d3LnczLm9yZy8xOTk5L3hsaW5rIiB2ZXJzaW9uPSIxLjEiIGlkPSJMYXllcl8xIiB4PSIwcHgiIHk9IjBweCIgdmlld0JveD0iMCAwIDQzLjUgNDIiIHN0eWxlPSJlbmFibGUtYmFja2dyb3VuZDpuZXcgMCAwIDQzLjUgNDI7IiB4bWw6c3BhY2U9InByZXNlcnZlIiB3aWR0aD0iNDMuNSIgaGVpZ2h0PSI0MiI+JiN4YTs8Zz4mI3hhOwk8Zz4mI3hhOwkJPHBhdGggc3R5bGU9ImZpbGw6I0ZGRkZGRjsiIGQ9Ik0zMS4yLDQxLjVjLTIuOCwwLTUuMy0yLTUuOS00LjhoLTcuMWMtMC42LDIuNy0zLDQuOC01LjksNC44Yy0zLjMsMC02LTIuNy02LTYmIzEwOyYjOTsmIzk7JiM5O2MwLTIuMSwxLjItNC4xLDMtNS4ybC0yLjItNi43Yy0wLjIsMC0wLjQsMC0wLjYsMGMtMy4zLDAtNi0yLjctNi02YzAtMy4zLDIuNy02LDYtNmMxLjUsMCwyLjksMC41LDQsMS42TDE2LjMsOSYjMTA7JiM5OyYjOTsmIzk7Yy0wLjMtMC44LTAuNS0xLjYtMC41LTIuNWMwLTMuMywyLjctNiw2LTZzNiwyLjcsNiw2YzAsMC44LTAuMiwxLjctMC41LDIuNWw1LjcsNC4yYzEuMS0xLDIuNS0xLjYsNC0xLjZjMy4zLDAsNiwyLjcsNiw2JiMxMDsmIzk7JiM5OyYjOTtzLTIuNyw2LTYsNmMtMC4yLDAtMC40LDAtMC42LDBsLTIuMiw2LjdjMS44LDEuMSwzLDMuMSwzLDUuMkMzNy4yLDM4LjgsMzQuNSw0MS41LDMxLjIsNDEuNXoiLz4mI3hhOwkJPHBhdGggc3R5bGU9ImZpbGw6I0ZGRkZGRjsiIGQ9Ik0yMS43LDFjMywwLDUuNSwyLjUsNS41LDUuNWMwLDAuOS0wLjIsMS44LTAuNywyLjZsNi40LDQuN2MxLTEuMSwyLjQtMS43LDQtMS43JiMxMDsmIzk7JiM5OyYjOTtjMywwLDUuNSwyLjUsNS41LDUuNWMwLDMtMi41LDUuNS01LjUsNS41Yy0wLjMsMC0wLjcsMC0xLTAuMWwtMi41LDcuNWMxLjgsMC45LDMuMSwyLjgsMy4xLDVjMCwzLTIuNSw1LjUtNS41LDUuNSYjMTA7JiM5OyYjOTsmIzk7Yy0yLjgsMC01LjEtMi4xLTUuNS00LjhoLTcuOWMtMC40LDIuNy0yLjcsNC44LTUuNSw0LjhjLTMsMC01LjUtMi41LTUuNS01LjVjMC0yLjIsMS4zLTQuMSwzLjEtNUw3LjUsMjNjLTAuMywwLjEtMC43LDAuMS0xLDAuMSYjMTA7JiM5OyYjOTsmIzk7Yy0zLDAtNS41LTIuNS01LjUtNS41czIuNS01LjUsNS41LTUuNWMxLjYsMCwzLDAuNyw0LDEuN2w2LjQtNC43Yy0wLjQtMC44LTAuNy0xLjctMC43LTIuNkMxNi4yLDMuNSwxOC43LDEsMjEuNywxIE0yMS43LDAmIzEwOyYjOTsmIzk7JiM5O2MtMy42LDAtNi41LDIuOS02LjUsNi41YzAsMC44LDAuMSwxLjYsMC40LDIuM2wtNS4xLDMuN2MtMS4xLTAuOS0yLjYtMS40LTQtMS40QzIuOSwxMS4xLDAsMTQsMCwxNy42czIuOSw2LjUsNi41LDYuNSYjMTA7JiM5OyYjOTsmIzk7YzAuMSwwLDAuMiwwLDAuMywwbDEuOSw2Yy0xLjgsMS4yLTIuOSwzLjItMi45LDUuNGMwLDMuNiwyLjksNi41LDYuNSw2LjVjMi45LDAsNS41LTIsNi4zLTQuOGg2LjNjMC44LDIuOCwzLjMsNC44LDYuMyw0LjgmIzEwOyYjOTsmIzk7JiM5O2MzLjYsMCw2LjUtMi45LDYuNS02LjVjMC0yLjItMS4xLTQuMi0yLjktNS40bDEuOS02YzAuMSwwLDAuMiwwLDAuMywwYzMuNiwwLDYuNS0yLjksNi41LTYuNWMwLTMuNi0yLjktNi41LTYuNS02LjUmIzEwOyYjOTsmIzk7JiM5O2MtMS41LDAtMi45LDAuNS00LjEsMS40bC01LjEtMy43YzAuMy0wLjcsMC40LTEuNSwwLjQtMi4zQzI4LjMsMi45LDI1LjMsMCwyMS43LDBMMjEuNywweiIvPiYjeGE7CTwvZz4mI3hhOwk8Zz4mI3hhOwkJPHBhdGggc3R5bGU9ImZpbGw6I0JCNTAxQzsiIGQ9Ik0zNywxMi4xYy0xLjYsMC0zLDAuNy00LDEuN2wtNi40LTQuN2MwLjQtMC44LDAuNy0xLjcsMC43LTIuNmMwLTMtMi41LTUuNS01LjUtNS41JiMxMDsmIzk7JiM5OyYjOTtzLTUuNSwyLjUtNS41LDUuNWMwLDAuOSwwLjIsMS44LDAuNywyLjZsLTYuNCw0LjdjLTEtMS0yLjQtMS43LTQtMS43Yy0zLDAtNS41LDIuNS01LjUsNS41czIuNSw1LjUsNS41LDUuNWMwLjMsMCwwLjcsMCwxLTAuMSYjMTA7JiM5OyYjOTsmIzk7bDIuNCw3LjVjLTEuOCwwLjktMy4xLDIuOC0zLjEsNWMwLDMsMi41LDUuNSw1LjUsNS41YzIuOCwwLDUuMS0yLjEsNS41LTQuOGg3LjljMC40LDIuNywyLjcsNC44LDUuNSw0LjhjMywwLDUuNS0yLjUsNS41LTUuNSYjMTA7JiM5OyYjOTsmIzk7YzAtMi4yLTEuMy00LjEtMy4xLTVMMzYsMjNjMC4zLDAuMSwwLjcsMC4xLDEsMC4xYzMsMCw1LjUtMi41LDUuNS01LjVTNDAsMTIuMSwzNywxMi4xeiBNMzEuMiwzOS41Yy0yLjIsMC00LTEuOC00LTQmIzEwOyYjOTsmIzk7JiM5O2MwLTIuMiwxLjgtNCw0LTRzNCwxLjgsNCw0QzM1LjIsMzcuNywzMy40LDM5LjUsMzEuMiwzOS41eiBNMTcuOCwzNC44Yy0wLjItMS4zLTAuOC0yLjQtMS43LTMuM2wzLTQuMmMwLjgsMC40LDEuNywwLjcsMi42LDAuNyYjMTA7JiM5OyYjOTsmIzk7YzAuOSwwLDEuOC0wLjIsMi42LTAuN2wzLDQuMmMtMC45LDAuOC0xLjUsMi0xLjcsMy4zSDE3Ljh6IE04LjMsMzUuNWMwLTIuMiwxLjgtNCw0LTRzNCwxLjgsNCw0YzAsMi4yLTEuOCw0LTQsNCYjMTA7JiM5OyYjOTsmIzk7UzguMywzNy43LDguMywzNS41eiBNNi41LDEzLjVjMi4yLDAsNCwxLjgsNCw0cy0xLjgsNC00LDRzLTQtMS44LTQtNFM0LjMsMTMuNSw2LjUsMTMuNXogTTE3LjcsNi41YzAtMi4yLDEuOC00LDQtNHM0LDEuOCw0LDQmIzEwOyYjOTsmIzk7JiM5O3MtMS44LDQtNCw0UzE3LjcsOC43LDE3LjcsNi41eiBNMzEuNiwxOC41bC00LjksMS42Yy0wLjgtMS42LTIuNC0yLjgtNC4yLTMuMVYxMmMxLjMtMC4yLDIuNC0wLjgsMy4yLTEuN2w2LjQsNC43JiMxMDsmIzk7JiM5OyYjOTtjLTAuNCwwLjgtMC43LDEuNy0wLjcsMi42QzMxLjUsMTcuOSwzMS41LDE4LjIsMzEuNiwxOC41eiBNMjUuOCwyMi41YzAsMi4yLTEuOCw0LTQsNHMtNC0xLjgtNC00czEuOC00LDQtNFMyNS44LDIwLjIsMjUuOCwyMi41eiYjMTA7JiM5OyYjOTsmIzk7IE0yMSwxMlYxN2MtMS45LDAuMy0zLjUsMS40LTQuMiwzLjFsLTQuOS0xLjZjMC4xLTAuMywwLjEtMC42LDAuMS0xYzAtMC45LTAuMi0xLjgtMC43LTIuNmw2LjQtNC43QzE4LjYsMTEuMiwxOS43LDExLjgsMjEsMTJ6JiMxMDsmIzk7JiM5OyYjOTsgTTExLjUsMTkuOWw0LjksMS42Yy0wLjEsMC4zLTAuMSwwLjYtMC4xLDFjMCwxLjYsMC43LDMsMS43LDRsLTMsNC4yYy0wLjgtMC40LTEuNy0wLjctMi42LTAuN2MtMC4zLDAtMC43LDAtMSwwLjFsLTIuNC03LjUmIzEwOyYjOTsmIzk7JiM5O0MxMCwyMiwxMC45LDIxLjEsMTEuNSwxOS45eiBNMzEuMiwzMGMtMC45LDAtMS44LDAuMi0yLjYsMC43bC0zLTQuMmMxLjEtMSwxLjctMi40LDEuNy00YzAtMC4zLDAtMC43LTAuMS0xbDQuOS0xLjYmIzEwOyYjOTsmIzk7JiM5O2MwLjUsMS4xLDEuNSwyLDIuNiwyLjZsLTIuNSw3LjVDMzEuOCwzMCwzMS41LDMwLDMxLjIsMzB6IE0zMywxNy42YzAtMi4yLDEuOC00LDQtNHM0LDEuOCw0LDRzLTEuOCw0LTQsNFMzMywxOS44LDMzLDE3LjZ6Ii8+JiN4YTsJPC9nPiYjeGE7PC9nPiYjeGE7PC9zdmc+" parent="1" vertex="1">
          <mxGeometry x="1008" y="393" width="30" height="28.64" as="geometry" />
        </mxCell>
        <mxCell id="aZVrczoCgkLRek6ezOxu-8" value="&amp;nbsp;&lt;font color=&quot;#ae562c&quot;&gt;VCN A&lt;/font&gt;&lt;br&gt;&lt;div style=&quot;&quot;&gt;&lt;span style=&quot;background-color: initial;&quot;&gt;&lt;font style=&quot;font-size: 10px;&quot;&gt;&amp;nbsp;172.16.140.0/23&lt;/font&gt;&lt;/span&gt;&lt;/div&gt;" style="text;html=1;strokeColor=none;fillColor=none;align=left;verticalAlign=middle;whiteSpace=wrap;rounded=0;dashed=1;" parent="1" vertex="1">
          <mxGeometry x="500" y="200" width="100" height="40" as="geometry" />
        </mxCell>
        <mxCell id="aZVrczoCgkLRek6ezOxu-12" value="" style="rounded=0;whiteSpace=wrap;html=1;dashed=1;strokeColor=#AE562C;fillColor=#F5F4F2;strokeWidth=2;" parent="1" vertex="1">
          <mxGeometry x="610" y="280" width="310" height="40" as="geometry" />
        </mxCell>
        <mxCell id="aZVrczoCgkLRek6ezOxu-14" value="" style="rounded=0;whiteSpace=wrap;html=1;dashed=1;strokeColor=#AE562C;fillColor=#F5F4F2;strokeWidth=2;" parent="1" vertex="1">
          <mxGeometry x="610" y="210" width="310" height="60" as="geometry" />
        </mxCell>
        <mxCell id="aZVrczoCgkLRek6ezOxu-11" value="External&#xa;Load Balancer" style="shape=image;verticalLabelPosition=bottom;verticalAlign=top;imageAspect=0;aspect=fixed;image=data:image/svg+xml,PHN2ZyB4bWxucz0iaHR0cDovL3d3dy53My5vcmcvMjAwMC9zdmciIHhtbG5zOnhsaW5rPSJodHRwOi8vd3d3LnczLm9yZy8xOTk5L3hsaW5rIiB2ZXJzaW9uPSIxLjEiIGlkPSJMYXllcl8xIiB4PSIwcHgiIHk9IjBweCIgdmlld0JveD0iMCAwIDQyLjM4OTk5OTM4OTY0ODQ0IDQyIiBzdHlsZT0iZW5hYmxlLWJhY2tncm91bmQ6bmV3IDAgMCA0Mi4zOCA0MjsiIHhtbDpzcGFjZT0icHJlc2VydmUiIHdpZHRoPSI0Mi4zODk5OTkzODk2NDg0NCIgaGVpZ2h0PSI0MiI+JiN4YTs8c3R5bGUgdHlwZT0idGV4dC9jc3MiPiYjeGE7CS5zdDB7ZmlsbDojRkZGRkZGO30mI3hhOwkuc3Qxe2ZpbGw6bm9uZTt9JiN4YTsJLnN0MntmaWxsOiMyQzU5Njc7fSYjeGE7PC9zdHlsZT4mI3hhOzxnPiYjeGE7CTxnPiYjeGE7CQk8Zz4mI3hhOwkJCTxwYXRoIGNsYXNzPSJzdDAiIGQ9Ik0zNC4yLDQxLjV2LTIuNDhoMy4wMUwyMy4xNiwyNC45NmMtMC4zNyw0Ljc2LTEuNDYsOC45NS0zLjE3LDEyLjE4Yy0yLjEsMy41Ni00LjIyLDQuMjktNS42Myw0LjI5JiMxMDsmIzk7JiM5OyYjOTsmIzk7Yy0wLjI1LDAtMC41MS0wLjAyLTAuNzYtMC4wN2MtNC4wMy0wLjc0LTYuNDYtNi43OS03LjQtMTIuMjFjLTAuMzgtMi4wMy0wLjYyLTQuNDEtMC42Ny02LjkxSDAuNXYtMi40OGg1LjAzJiMxMDsmIzk7JiM5OyYjOTsmIzk7YzAuMDYtMi41OSwwLjMxLTUuMDcsMC43Mi03LjE3QzcuNTYsNS4yMywxMC42OSwwLjY0LDE0LjQyLDAuNmMyLjE4LDAsNi4wOCwxLjU5LDguMTgsMTIuMjNjMC4yNCwxLjM1LDAuNDEsMi43NSwwLjUzLDQuMiYjMTA7JiM5OyYjOTsmIzk7JiM5O0wzNy4xNywyLjk4SDM0LjJWMC41aDcuM3Y3LjNoLTIuNDhWNC42NEwyMy45LDE5Ljc2aDEyLjg4bC0yLTEuOTFsMS43MS0xLjhsNS4xNyw0LjkybC01LjE0LDUuMTRsLTEuNzUtMS43NWwyLjEyLTIuMTNIMjMuOTUmIzEwOyYjOTsmIzk7JiM5OyYjOTtsMTUuMDcsMTUuMDdWMzQuMmgyLjQ4djcuM0gzNC4yeiIvPiYjeGE7CQkJPHBhdGggY2xhc3M9InN0MCIgZD0iTTQxLDF2Ni4zaC0xLjQ4VjMuNDRMMjIuNzksMjAuMTdjMCwwLjAzLDAsMC4wNiwwLDAuMDloMTUuMjVsLTIuNTUtMi40M2wxLjAyLTEuMDdsNC40NCw0LjIzbC00LjQzLDQuNDMmIzEwOyYjOTsmIzk7JiM5OyYjOTtsLTEuMDUtMS4wNWwyLjYyLTIuNjJIMjIuNzljMCwwLjAyLDAsMC4wMywwLDAuMDVsMTYuNzIsMTYuNzJWMzQuN0g0MVY0MWgtNi4zdi0xLjQ4aDMuNzJsLTE1LjctMTUuNyYjMTA7JiM5OyYjOTsmIzk7JiM5O2MtMC4yNSw0LjU3LTEuMTcsOS4yOC0zLjE4LDEzLjA4bC0wLjAyLDAuMDRjLTEuODgsMy4xOS0zLjc1LDMuOTktNS4xNywzLjk5Yy0wLjI0LDAtMC40Ny0wLjAyLTAuNjgtMC4wNiYjMTA7JiM5OyYjOTsmIzk7JiM5O2MtMy43OC0wLjY5LTYuMTMtNi43OS02Ljk5LTExLjgxYy0wLjQyLTIuMi0wLjY0LTQuNzUtMC42OC03LjMySDF2LTEuNDhoNS4wMmMwLjA0LTIuNjcsMC4yOC01LjMxLDAuNzItNy41OCYjMTA7JiM5OyYjOTsmIzk7JiM5O0M4LDUuNTcsMTAuOTUsMS4xMywxNC40MiwxLjFjMC4wMSwwLDAuMDIsMCwwLjA0LDBjMiwwLDUuNjIsMS41NSw3LjY0LDExLjgybDAsMC4wMmMwLjI3LDEuNTYsMC40OSwzLjMzLDAuNiw1LjIxTDM4LjM4LDIuNDgmIzEwOyYjOTsmIzk7JiM5OyYjOTtIMzQuN1YxSDQxIE00MiwwaC0xaC02LjNoLTF2MXYxLjQ4djFoMWgxLjI2TDIzLjUzLDE1LjkyYy0wLjExLTEuMDktMC4yNi0yLjE0LTAuNDQtMy4xNUMyMS4wMiwyLjI5LDE3LjI2LDAuMSwxNC40NiwwLjEmIzEwOyYjOTsmIzk7JiM5OyYjOTtjLTQuMDksMC4wNC03LjMzLDQuNjgtOC43MSwxMi40MWMtMC4zOSwxLjk5LTAuNjMsNC4zMS0wLjcxLDYuNzVIMUgwdjF2MS40OHYxaDFoNC4wNGMwLjA4LDIuMzQsMC4zMSw0LjU4LDAuNjcsNi41MSYjMTA7JiM5OyYjOTsmIzk7JiM5O2MwLjk2LDUuNTcsMy41MSwxMS44Miw3LjgsMTIuNmMwLjI4LDAuMDUsMC41NywwLjA4LDAuODYsMC4wOGMxLjU0LDAsMy44NC0wLjc4LDYuMDMtNC40OGwwLTAuMDFsMC4wMy0wLjA1JiMxMDsmIzk7JiM5OyYjOTsmIzk7YzEuNjItMy4wNiwyLjY5LTYuOTQsMy4xNC0xMS4zM2wxMi40NSwxMi40NUgzNC43aC0xdjFWNDF2MWgxSDQxaDF2LTF2LTYuM3YtMWgtMWgtMS40OGgtMXYxdjEuNEwyNS4xNiwyMi43NGgxMC41M2wtMC45MiwwLjkyJiMxMDsmIzk7JiM5OyYjOTsmIzk7bC0wLjcxLDAuNzFsMC43MSwwLjcxbDEuMDUsMS4wNWwwLjcxLDAuNzFsMC43MS0wLjcxbDQuNDMtNC40M2wwLjcyLTAuNzJsLTAuNzQtMC43MWwtNC40NC00LjIzbC0wLjcyLTAuNjlsLTAuNjksMC43MiYjMTA7JiM5OyYjOTsmIzk7JiM5O2wtMS4wMiwxLjA3bC0wLjY5LDAuNzJsMC43MiwwLjY5bDAuNzQsMC43SDI1LjExTDM4LjUyLDUuODVWNy4zdjFoMUg0MWgxdi0xVjFWMEw0MiwweiIvPiYjeGE7CQk8L2c+JiN4YTsJCTxnPiYjeGE7CQkJPHBhdGggY2xhc3M9InN0MSIgZD0iTTE0LjQ2LDIuOTVjLTAuMDEsMC0wLjAxLDAtMC4wMiwwYy0xLjk3LDAuMDItNC42NiwzLjE4LTUuODgsMTAuMDZsMCwwLjAyYy0wLjQyLDIuMTctMC42NSw0LjY4LTAuNjksNy4yMyYjMTA7JiM5OyYjOTsmIzk7JiM5O2g4Ljg4bC0yLjc0LTIuNjFsMS4wMi0xLjA3bDQuNjIsNC40MWwtNC40Myw0LjQybC0xLjA1LTEuMDVsMi42Mi0yLjYySDcuODZjMC4wNCwyLjQ2LDAuMjUsNC44OSwwLjY1LDYuOTkmIzEwOyYjOTsmIzk7JiM5OyYjOTtjMC45Niw1LjU3LDMuMjcsOS45LDUuNTEsMTAuMzFjMC4xMSwwLjAyLDAuMjMsMC4wMywwLjM0LDAuMDNjMS40MywwLDIuNzEtMS42MywzLjU2LTMuMDZjMy4yOS02LjI1LDMuNTYtMTUuOTIsMi4zNi0yMi43NSYjMTA7JiM5OyYjOTsmIzk7JiM5O0MxOC43OCw1LjY2LDE2LjI5LDIuOTUsMTQuNDYsMi45NXoiLz4mI3hhOwkJCTxwYXRoIGNsYXNzPSJzdDIiIGQ9Ik00MSw3LjNWMWgtNi4zdjEuNDhoMy42N0wyMi43MSwxOC4xNWMtMC4xMS0xLjg4LTAuMzItMy42NS0wLjYtNS4yMWwwLTAuMDJDMjAuMDgsMi42NSwxNi40NiwxLjEsMTQuNDYsMS4xJiMxMDsmIzk7JiM5OyYjOTsmIzk7Yy0wLjAxLDAtMC4wMiwwLTAuMDQsMEMxMC45NSwxLjEzLDgsNS41Nyw2Ljc0LDEyLjY4Yy0wLjQ0LDIuMjctMC42OCw0LjkxLTAuNzIsNy41OEgxdjEuNDhoNS4wMWMwLjA0LDIuNTgsMC4yNiw1LjEyLDAuNjgsNy4zMiYjMTA7JiM5OyYjOTsmIzk7JiM5O2MwLjg2LDUuMDEsMy4yMSwxMS4xMSw2Ljk5LDExLjgxYzAuMjEsMC4wNCwwLjQ0LDAuMDYsMC42OCwwLjA2YzEuNDEsMCwzLjI4LTAuOCw1LjE3LTMuOTlsMC4wMi0wLjA0JiMxMDsmIzk7JiM5OyYjOTsmIzk7YzIuMDEtMy44LDIuOTMtOC41MSwzLjE4LTEzLjA4bDE1LjcsMTUuN0gzNC43VjQxSDQxdi02LjNoLTEuNDh2My44MUwyMi43OSwyMS43OWMwLTAuMDIsMC0wLjAzLDAtMC4wNUgzOC4xbC0yLjYyLDIuNjImIzEwOyYjOTsmIzk7JiM5OyYjOTtsMS4wNSwxLjA1bDQuNDMtNC40M2wtNC40NC00LjIzbC0xLjAyLDEuMDdsMi41NSwyLjQzSDIyLjc5YzAtMC4wMywwLTAuMDYsMC0wLjA5TDM5LjUyLDMuNDRWNy4zSDQxeiBNMTcuOTIsMzYuMDImIzEwOyYjOTsmIzk7JiM5OyYjOTtjLTAuODUsMS40My0yLjEzLDMuMDYtMy41NiwzLjA2Yy0wLjExLDAtMC4yMy0wLjAxLTAuMzQtMC4wM2MtMi4yMy0wLjQxLTQuNTUtNC43NC01LjUxLTEwLjMxYy0wLjQtMi4xMS0wLjYxLTQuNTQtMC42NS02Ljk5JiMxMDsmIzk7JiM5OyYjOTsmIzk7aDguOTRsLTIuNjIsMi42MmwxLjA1LDEuMDVsNC40My00LjQybC00LjYyLTQuNDFsLTEuMDIsMS4wN2wyLjc0LDIuNjFINy44NmMwLjA0LTIuNTUsMC4yNy01LjA2LDAuNjktNy4yM2wwLTAuMDImIzEwOyYjOTsmIzk7JiM5OyYjOTtjMS4yMi02Ljg5LDMuOTEtMTAuMDQsNS44OC0xMC4wNmMwLjAxLDAsMC4wMSwwLDAuMDIsMGMxLjgzLDAsNC4zMiwyLjcxLDUuODMsMTAuMzJDMjEuNDgsMjAuMDksMjEuMjEsMjkuNzcsMTcuOTIsMzYuMDJ6Ii8+JiN4YTsJCTwvZz4mI3hhOwk8L2c+JiN4YTs8L2c+JiN4YTs8L3N2Zz4=;dashed=1;fontSize=6;fontColor=#AE562C;strokeColor=#AE562C;strokeWidth=2;fillColor=#E6E6E6;" parent="1" vertex="1">
          <mxGeometry x="754" y="218" width="22" height="22" as="geometry" />
        </mxCell>
        <mxCell id="aZVrczoCgkLRek6ezOxu-13" value="" style="rounded=0;whiteSpace=wrap;html=1;dashed=1;strokeColor=#AE562C;fillColor=#F5F4F2;strokeWidth=2;" parent="1" vertex="1">
          <mxGeometry x="610" y="333" width="310" height="80" as="geometry" />
        </mxCell>
        <mxCell id="aZVrczoCgkLRek6ezOxu-9" style="vsdxID=45;fillColor=none;gradientColor=none;strokeOpacity=0;spacingTop=-3;spacingBottom=-3;spacingLeft=-3;spacingRight=-3;labelBackgroundColor=none;rounded=0;strokeColor=none;html=1;whiteSpace=wrap;dashed=1;fontSize=10;fontColor=#AE562C;" parent="1" vertex="1">
          <mxGeometry x="699" y="300" width="55" height="60" as="geometry" />
        </mxCell>
        <mxCell id="aZVrczoCgkLRek6ezOxu-10" style="vsdxID=46;fillColor=none;gradientColor=none;image;aspect=fixed;image=data:image/png,iVBORw0KGgoAAAANSUhEUgAAAZAAAAGNCAYAAAA/9yeJAAAABGdBTUEAALGPC/xhBQAAACBjSFJNAAB6JgAAgIQAAPoAAACA6AAAdTAAAOpgAAA6mAAAF3CculE8AAAABmJLR0QA/wD/AP+gvaeTAAAACXBIWXMAAA7DAAAOwwHHb6hkAAAAB3RJTUUH5AQDBxsK6pjOGwAALOxJREFUeNrt3Xd4VFX+BvD3zkx6gZAOBAihJARCLwGpAQSUahd3dV1ddV37Ij8BV1FBURB3EURdEAuK0kRApAcChBJKQosEEtIhpJGeTGbu7w+BpTNzMjNnJnk/z8MTkrlzzvdcwn3n3nvuvQrk0nbv3l1TVVWlVLdooTSvrFQk10NE5DCy3NzURnl5Ri8vLzU2NrbW1v3baoOtxIwZ00nV6YZAVftCRXdVQYgCxcnWAyYiqp9UFSouqKoxSdFo9hlVdUtWdXX86Q0bqq3VozUDRIkZO/Yuo6I8oSjKA4DideUF7mcQEVmNql76ClWvAlsVVf1vXkrK2uPHj9dYsh+Lb8qjhg/38Hd3f1YFJkHRBAIMDCIiWS6HiaKgXAUW6oE5catW5VqibYtt2qOGD/fw9/R8STUap0DReDA0iIjsyx9hotaqqvpFrUbzXl2DxCKb+Zhx48YZgcWKovFhcBAR2TdVBRSoNVDV17f+/POnAAwi7dRpc99/5Eh/nYvrMkVRhjA4iIgci6oCqoLT0OvHbV+79ri57xfe7A8aP/4ujaKsg4pGDA8iIsd0+bAWVPXpbT//vMSc9wpt+gePHfuiotF8oiiMDiKi+kBVAVU1/qAWF//Z1GtKzA6AmLFjP1Q12kmMDiKi+uXS3sjuynPnhsXHx1feaXmzYmDg+PFfa6H8meFBRFQ/qSqgQk1Wi4p6xsbGlt1uWY2pjQ4YN24uw4OIqH5TFECBEq5p7LMnMjLS+XbLak1pMGbcuJc0iuZtS4bH5YtbiIjIMiy1jf6jHSXQ3df3rrPJyd8CuOkW+47dDRw/PloL7LbECfOrQ4N7MkRElnX9B/O6bmcvHc76z/bVq1+62eu3bf6ue+7xcXZxyVQAD0sMiKFBRGQbltr2qqqqAhi6bfXqbde/dttzIE7Ozr9CrXt4KArDg4jIlq7e7tbllMGlo0+/9ho/3vf6124ZIP0mTBijQOkjsuH/Yz4xg4OISLbL2+HL22XBVlw8gBXX//SmJ9HbjBzp4uvktF9R4Hznhq919V4HERHZh6u3yeZuny8t3zKkXbvt6b//nn755zfdAwlxcZ0pcuiK4UFEZL/qckhLURRFp9X+fPXPbgiQyMhIZ0VRXjA3BBgeRET27+pDWgLv9hkwZszEy9/dECB+YWHTAJj1qFmGBxGR4zE3RBQF0Gm08y5/f0OAaLXa18wJAoYHEZHjET6cpSg+g0aNGgFcFyCDRo/uAyjuooUQEZHjEAkRRQE0zi5zgOsCRNHp5orsfRARkWMS2QFQNEp499Gj3a8NEKCHLTonIiL7Ys4OgapC46nTPX8lQHrFxLQDFJ01OiMiIvslcl2IFnjqSoB4eHm9LnhxCRER1QNm7RgoSqjmf39X7rZKJ0REZPfM3iFQ4fS/AAH8rdoZERHVG4py1SwsFebf94qIiOoXc44wXQ4Q3jeXiKiBMzcFNKJvJCKihu1ygJj0bHTgf8/5ICKihu2qQ1hERESm01z3lYiIyCQMDiIiEsIAISIiIQwQIiISwgAhIiIhDBAiIhLCACEiIiEMECIiEsIAISIiIQwQIiISwgAhIiIhDBAiIhLCACEiIiEMECIiEsIAISIiIQwQIiISwgAhIiIhDBAiIhLCACEiIiEMECIiEsIAISIiIQwQIiISwgAhIiIhDBAiIhLCACEiIiEMECIiEsIAISIiIQwQIiISwgAhIiIhDBAiIhLCACEiIiEMECIiEsIAISIiITrZBZB1ebi7I9DfH+5ublABlJWXI/f8edTU1MguzS45OzsjKCAAnh4e0Gg0qKysxLm8PJRXVMguzS5pNBoEBQTA28sLzk5OqKyqwoX8fBSXlMgujWyAAVLPaLVa9OzaFQOjo9G5Y0cE+PndsIzRaMTZjAwcOHIEW3buRFp6uuyypYoMD8fgfv3QNSoKLZo1g6IoNyyTe/48DiUlYfuuXThy7JjskqUKadYMMf37o0eXLmjbujW0Wu0NyxRfvIgjx45hx5492JuQAH1treyyyQou/09xiZkwocqUN6gqcJP/XySZRqPBPcOG4ZEJE24aGrdzKCkJi7//HskpKbKHYVN9evTAEw8/jDahoWa972xGBr7+8UfE7d0rewg21SY0FE8++ih6detm1vsKioqwbNUqrPntNxiNRtnDoDswZxvPAKkHmgcHY+qrr6Jt69bCbaiqijUbNuDzr7+u958WvTw98c+//x39eveuUzv7Dx3Ch59+iuKLF2UPyaq0Wi2emjgR940eDY1G/LRpano63v/kE6RlZMgeEt2GOdv4y/ueutYREdNM7YABYj+6RUXho+nTERQQUKd2FEVBeNu26NWtG3bv24eq6mrZQ7OK5sHB+GTGDHRo377ObTULDkbMgAE4nJSEouJi2UOzCg93d3zw5psY3L//TQ/tmcOncWPcPXgwMrKykJGdLXtodBsMkAagW1QUZkyZAlcXF4u16dukCaJ79cKO3bvrXYgEBwbi3zNnwt/X12Jturu5YUj//jiYmIjCoiLZQ7QoV1dXzJk+3SJhe5lOp8OA6Ghk5ebiLPdE7Jap23hO43VQTYOC8NakSXBycrJ42yFNm+K9qVOh09WfORaurq6YOW0afBo1snjbHu7umDltGvyaNJE9TIua8vLLaBcWZvF2NRoNJr/wAjpGRMgeItURA8QBKYqCN156CR7u7lbrI7xNGzz9pz/JHqrF/P0vf0FI06ZWa9+nUSNMfeUV2cO0mHuGDUPfnj2t1r5Op8O0V16x6u8wWR8DxAHdPXgwItq1s3o/40eNMnuGkj1qFxaGkTExVu+nU4cONunH2jw9PPDXiROt3o+fr69N+iHrYYA4GEVR8Oh999mkL41Gg7888ojsIdfZxPvvr/MJYFP9+aGHHP7Q37iRI+Ht5WWTvu4ZNqzOE0BIHgaIg+nRuTOaBgXZrL/e3bujeXCw7GEL823SxKqHYq7n7+uLAdHRsoddJ/cOH26zvrRaLcaOGCF7yCSIAeJgBvTta/M+YwYMkD1sYQP69LHZ3sdlQx14fUWGh8PPgrPUTOHIv18NHQPEwXSOjLR5n927dJE9bGGdO3a0eZ9RkZEOexiri4T11cTHB6EtW8oeOglggDgQN1dXmx6+uqxNaKjNP8VbSlirVjbv09XFBS2aNZM9dCEy1hcAtLfCdGGyPgaIA5F1stHZycmiF9/ZiqIoZt8XzFKaOeh5o0B/fyn9yvhgRHXHAHEg7hLnzHt4eMgevtlcXFxueqdYW3DE9QVA2nUZjrq+GjoGiAOReVzdyQGP6cus2RHXFyDvd8zZQddXQ8cAISIiIQwQIiISwgAhIiIhDBAiIhLCACEiIiEMECIiEsIAISIiIQwQIiISwgAhIiIhDBAiIhLCACEiIiEMECIiEsIAISIiIQwQIiISwgAhIiIhDBAiIhLCACEiIiEMECIiEsIAISIiIQwQIiISwgAhIiIhDBAiIhLCACEiIiEMECIiEsIAISIiIQwQIiISwgAhIiIhDBAiIhLCACEiIiEMECIiEsIAISIiIQwQIiISwgAhIiIhDBAiIhLCACEiIiEMECIiEsIAISIiIQwQIiISwgAhIiIhDBAiIhLCACEiIiEMECIiEsIAISIiIQwQIiISwgAhIiIhDBAiIhLCACEiIiEMECIiEsIAISIiIQwQIiISwgAhIiIhDBAiIhLCACEiIiEMECIiEsIAISIiIQwQIiISwgAhIiIhDBAiIhLCACEiIiEMECIiEsIAISIiIQwQIiISwgAhIiIhDBAiIhLCACEiIiEMECIiEsIAISIiIQwQIiISwgAhIiIhDBAiIhLCACEiIiEMECIiEsIAISIiIQwQIiISwgAhIiIhDBAiIhLCACEiIiEMECIiEsIAISIiIQwQIiISwgAhIiIhDBAiIhLCACEiIiEMECIiEsIAISIiIQwQIiISwgAhIiIhDBAiIhLCACEiIiEMECIiEsIAISIiIQwQIiISwgAhIiIhDBAiIhLCACEiIiEMECIiEsIAISIiIQwQIiISwgAhIiIhDBAiIhLCACEiIiEMECIiEsIAISIiIQwQIiISwgAhIiIhDBAiIhLCACEiIiEMECIiEsIAISIiIQwQIiISwgAhIiIhDBAiIhLCACEiIiEMECIiEsIAISIiIQwQIiISwgAhIiIhDBAiIhLCACEiIiEMECIiEsIAISIiIQwQIiISwgAhIiIhDBAiIhLCACEiIiEMECIiEsIAISIiIQwQIiISwgAhIiIhDBAiIhLCACEiIiEMECIiEsIAISIiIQwQIiISwgAhIiIhDBAiIhLCACEiIiEMECIiEsIAISIiIQwQIiISwgAhIiIhDBAiIhLCACEiIiEMECIiEsIAISIiIQwQIiISwgAhIiIhDBAiIhLCACEiIiEMECIiEsIAISIiIQwQIiISwgAhIiIhDBAiIhLCACEiIiEMECIiEsIAISIiIQwQIiISwgAhIiIhDBAiIhLCACEiIiEMECIiEsIAISIiIQwQIiISwgAhIiIhDBAiIhLCACEiIiEMECIiEsIAISIiIQwQIiISwgAhIiIhDBAiIhLCACEiIiEMECIiEsIAISIiIQwQIiISwgBxJKoqsWt5fTtizY64vmTi2nJMDBAHUl1TI6/v6mrZwze/Zq4vh6m7qqpK9tBJAAPEgVwsKZHWd/HFi7KHbza9Xo9KSRsmR1xfAFBSWiql32KJv9skjgHiQM5fuIDa2lqb93uxpAQlZWWyhy8kOzdXSr8Z2dmyhy4kS9b6ysqSPXQSwABxIEajEadSU23e79GTJ2UPXVhySorN+7xQUIDzFy7IHrqQk6dOSen3WHKy7KGTAAaIg0k4fNjmfcYfOCB72MIOcH2ZJSEx0eYTAE6eOuWwh/waOgaIg9kWF2fT/+AVlZXYGR8ve9jC9h86hFIbH377bds22cMWlnfhgs33Bhx5fTV0DBAHk5Wbi32HDtmsvzUbNkg7EW0J+tparN240Wb9HUpKwqkzZ2QPu05Wrl1rs74KioqwKTZW9pBJEAPEAS1euhRGo9Hq/RQWFWHZ6tWyh1tnP61Zg4s2mF1kMBiwcMkS2cOts1379tnsXMiX334LvV4ve8gkiAHigFLT07HCBp8SP164EOUVFbKHW2dl5eVYsGiR1fv5fuVKpKanyx6uRcxduBA1Vt6wxx84gC07dsgeKtUBA8RBLf7+exyz4uyo75Yvx96EBNnDtJitcXFYv3mz1drfe/AgvvnpJ9nDtJjU9HTMt2LoZmRlYda8ebKHSXWkvfRV1zoiYpqpb1IU2WWT0WjEnv370aNrVzRp3Niiba/+9Vd8+e23sodocfsPHUJoy5Zo0by5Rds9fPQo3p41C7UGg+whWlRKaiqMqoouHTtatN3s3Fy8Pn06Z17ZMVO38QwQB1ZdU4Ptu3ahbevWaBoUVOf2DAYD/rt0KZb88IPsoVmFqqrYGR8Pby8vhLdta5E2N27bhhlz51r9cI8sSSdOoPjiRXTv3BkaTd0PWCQdP4433n0XhcXFsodGt8EAaSD0ej22xsWhoqICke3bw8nJSaidtIwMvP3hh4jdvVv2kKxKVVXsP3QIqenp6BgeDnd3d6F2ioqL8fFnn2HpypU2mdAg0+9nzmD/4cNoFxYGXx8foTaqq6vx9Y8/Yu7ChQ49q6+hMHUbf3kxl5gJE0z6V1VVBoi9atyoER4YPRp3DxmCxo0amfSeM2fPYsUvv2BrXFy93xBez9XFBfcMG4axI0eavAeXl5+PX377zeGnN4tQFAUD+/bF/WPGILxNG5PeU1Zejo3bt+Onn39GQVGR7CGQCczZxjNA6iGNRoMuHTuic2QkQlu2RJC/P9zc3KCqKsorKpCdm4vk06eRcPgwzmZmyi7XLrQPC0PXqCi0CQ1F06AgeHp4QKvRoLyyEufy8nA6NRWHkpJw/Pffeat2AM2Cg9G9c2eEt22LZsHB8PbygrOTE6qqqnChoABp6ek4cuwYDiUlQS/h/m0kjgFCRERCzNnGcxovEREJYYAQEZEQBggREQlhgBARkRAGCBERCWGAEBGREAYIEREJYYAQEZEQBggREQlhgBARkRAGCBERCWGAEBGREAYIEREJYYAQEZEQBggREQlhgBARkRAGCBERCWGAEBGREAYIEREJYYAQEZEQnewCiByZk5MTXF1coNVq4aTTQafTQVEUqKoKo9EIFYBer0dNTQ2qa2pQW1sru2Qii2GAEF1Fo9EgwM8P/n5+8Pf1hZ+vL/x8fNDI2xuNGzWCt5cXvL284O7mBnc3N2i1WrPaNxgMqKisRFl5OcrKy1FeUYHyS38vq6hAQVERLuTn//GnoAD5hYUwGAyyVwvRTTFAqEHy9PBAy5AQtAoJQcuQEDRv2hTNgoIQ6O8Pnc56/y20Wi28PD3h5elp0vKqqqKwuBgX8vORlZOD9KwspGdlISMzEznnz8NoNMpeldSAMUCo3vP08EBEu3ZoFxaGtq1bo23r1gj095ddlkkURYGvjw98fXwQ3rbtNa/V6PV/hEpmJk6dOYOTp07hVGoqampqZJdNDYRy6atLzIQJVaa8QVUBRTFlSSI5Avz80KVTJ3QKD0eH8HC0aNYMSgP5pTUYDEhNT8fJU6eu/MnKzZVdFjkQc7bxDBByeB7u7ugWFYUeXbqga6dOaBoUJLsku5KXn4+DiYk4mJiIQ0lJKCktlV0S2TEGCNV7wYGB6B8djT7duiEyPNzsk9kNlaqqOJ2WhoOJidh/6BCOJSfzPApdgwFC9VJQQAAG9O2LQX37ol1YmOxy6oWiixexe98+7IyPx5FjxxgmxACh+iPQ3x8D+/XDwOhotG/TRnY59VpJaSl279+PuL17kXDkCMOkgWKAkEPT6XTo16sXRg0dim5RUQ3mBLg9KSouxqbYWPy2bRsys7Nll0M2xAAhh9QsOBijhg7F3YMHo3GjRrLLoUuOJydjw9atiN2zB1VVJm0myIExQMhhaDQaDIiOxr3Dh6NLx46yy6HbqKysxLZdu7By3TpkZGXJLoeshAFCds/Z2RkjhgzBA2PGIDgwUHY5ZAZVVXHg8GGsWLsWh5KSZJdDFsYAIbvl5emJsSNGYPw996CRt7fscqiOUs+exYq1a7Ft1y7eKLKeYICQ3fFr0gQPjh2LkUOHws3VVXY5ZGEFRUX4YeVKrN+8GXoGiUNjgJDd8Pb0xCMTJmDsyJFwdnaWXQ5Z2YWCAixdsQIbtm7lXYQdFAOEpHN1ccGEe+/Fg2PHwtPDQ3Y5ZGPn8vLw3fLl2BQby+tJHAwDhKTRarW4Z+hQPPbAA2ji4yO7HJIsOzcXn3/zDfbs3y+7FDIRA4Sk6NO9O/7+5JO8mSHd4FBSEhYsXoyzmZmyS6E7YICQTQX6++P5v/4VfXv2lF0K2TGDwYB1mzZhybJlKC0rk10O3QIDhGxCp9PhwbFjMfG+++Di4iK7HHIQJaWlWLJsGdZu3AhVVWWXQ9dhgJDVdYuKwgtPP42Qpk1ll0IO6sSpU5g9fz6varczDBCyGg93d7zw1FMYOnCg7FKkKCktRWFREYovXkRJWRnKystRWlaG6upqVNXUoLq6GrW1tTAajVBVFaqqQqfTQafTwUmng6ur65Vnont5eFz5eyNv7wZ5/68avR7fLV+OZatXc7aWnWCAkFV079wZ/3z+efj7+souxWqMRiNyz59HWkYG0jMzkZuXh3Pnz+NcXh4KCgutepGci7MzAv39ERQYiKDLXwMC0DIkBM2Dg+v1Q7NOp6Vh9vz5OJ2WJruUBo8BQhbl6uKCp//8Z4wdMUJ2KRZVVV2N5JQUnE5Lw9mMDKSlp+NsZiaqa2pkl3YDZ2dnhIaEICw0FGGtWiGsVSu0ad0arvXo3JPBYMCPP/+MJcuWcW9EIgYIWUyH9u0x+YUX0Cw4WHYpdVZSWopjyck4euIEjp08iVOpqQ59tbRWq0X7sDBERUYiqkMHdIyIgLubm+yy6uzkqVOYMXcuzuXlyS6lQWKAUJ1pNBo8/tBDeGTCBGg0GtnlCDEYDDiWnIz4Awdw4MgRpNfzaxA0Gg3ahIaia6dO6NuzJyLatXPYf7uy8nLMXbgQO/bskV1Kg8MAoTpp7O2Nqa++iq6dOskuxWxl5eU4cPgw9iYkYN+hQygrL5ddkjSNvb3Rp2dP9O3ZE92johxyqvWvW7Zg/qJFdnlYsb5igJCwjuHhmPbaa/Br0kR2KSarrq7Grn37sHnHDhw+etShD0tZi7OzM3p17Yphgwahd7du0Ol0sksyWXpmJqbPns3pvjbCACEh948Zg6cfe8whZvuoqoqjJ05gU2wsdsbHo6KyUnZJDsPbywsx/ftj+ODBaNu6texyTFJRWYn3P/kE8QkJskup9xggZBZ3NzdM+sc/0L9PH9ml3FFhURHWbdqETbGxPMlqAa1CQjBy6FCMGDIEHu7ussu5LVVV8dUPP+D7lStll1KvMUDIZIH+/pg5bRpaNm8uu5TbSklNxap167B9924++c4K3FxdMWLIEIy/5x67vxlm7O7d+OjTT3lexEoYIGSS8LZt8e4bb8DHTq+ANhqNiD9wACvXrUPSiROyy2kQFEVBn+7dcd+996KLHU+iSElNxVuzZiEvP192KfUOA4TuqH+fPvi/F1+0y5k5BoMBW+Pi8N3y5cg5d052OQ1W+zZt8PjDD6NX166yS7mpwqIi/N+77yI1PV12KfUKA4Ru66Fx4/DUY49BsbN/SKPRiB179uDrH39EVk6O7HLokg7t2uHxhx9G986dZZdyg7Lycrz5wQc4yj1Ui2GA0E1pNBq8/MwzGDV0qOxSrqGqKuL27sU3P/7IBw7ZsY7h4Xji4Yft7tBWTU0N3ps7l089tBAGCN1Ap9PhzVdfRb/evWWXco3jycn4dNEipKSmyi6FTBTdowee+8tf7Opku8FgwCeff44NW7fKLsXhmbONvzzhX9c6ImKaqR0wQByLs7Mz3pk8GX169JBdyhUFRUX49xdfYMFXX6GwqEh2OWSGrJwcrN20CZVVVejQrh2cnJxklwSNRoO+PXtCX1uLYydPyi7H4TFACADg6uqKmVOnoltUlOxSAAB6vR4r1q7FO7Nn49SZM7LLIUFGoxHHk5Oxcds2eHt7I6xVK7s4p9YtKgq1BgOOMkTqhAFC8HB3x4f/+hc6RkTILgUAcDAxEdNmzkQsr+WoNyqrqrBn/34cPnoUHcPD4e3lJbskdO3UCTV6PY4lJ8suxWExQBq4Rt7e+Ojtt9G+TRvZpaCyshKfLlqEBV99hZKyMtnlkBXk5efj161b4ezsjIi2baXvjXSLikJlVRVO/P677FXjkHgSvQHz9PDA3PfeQ2iLFrJLweGjRzF7/nycv3BBdilkIxFt2+Kf//iHXdzdYMHixVi1fr1V+9BoNPD39UVQYCCCAwLg7+eHRl5e8L70x9PDA05OTlcea6woCi6WlqKoqAiFxcUoLCpCVm4usrKzkZWbi/KKCqnrjLOwrMDTwwMBfn5o3KgRvDw94e3lBTdXV7i4uMDVxQW6S78YGkWBCqBWr4e+thbVNTUoKCxEfmHhla+lVvwU7urqio/eegsR7dpJXV+VVVX48ptv8MvGjVLrIDmcdDo88cgjeHDsWOl7I//58kv88ttvFmnL1cUFEe3aISw0FG1atULrVq3Qsnlzi96ANL+wEKfOnEFySgp+P30aySkpNg0VBogg3yZNENaqFVq1aIEgf38EXvoT4O9v0Se91dTUIL+wENm5ucjKzUV2Ts4fX3Nzcf7CBeHHeTrpdJg5bZr053gknz6NGR9/jNzz56XWQfL17NIFk198EY0l3i5HVVW8O2cOdsbHm/1enU6HqA4d0LVTJ3Tu2BHtWre2+a3wDQYDTp05g4OJiTiYlITjyclWfeQvA8QEQQEBiAwPR5tWra48Z7qRt7fssqDX65GRnY3Tqak4ffYszqSl4czZs3f8BKLRaPDWpEno16uX1Pp//vVXLPz6a54kpyt8fXww5ZVX0DkyUloNNXo9Xp8+3aQpvq6urujdrRv69eqF3t27291diktKS7F7/37s3LMHh6zw/BsGyE0E+vujc8eO6BwZiS4dOyLQ3192SWY5l5eH30+fxrHkZBxPTsbptLRrPoX834svYujAgdLqq6isxOz584U+5VH9p9Fo8KcHHsDE+++X9pjd0rIyvDRlCjKys2/6esfwcIyIicHAvn3h5uoqc3WZrKS0FFvj4vDr5s1Iy8iwSJsMEPzxC9spIgJ39emD6B49EBQQILski6qqrkZySgpO/P47/Hx9MXzQIGm1nDl7Fu/Mno3s3FzZq4XsXLeoKLz52mvw8vSU0v/5vDy88MYbKCwuBgC4ODtjZEwMxo4ciZBmzWSvnjpJTknBL7/9hq1xcXXaK2mwAeLk5ITuUVFXQsMeDknVd1t27sScBQug1+tll0IOonlwMN6bMgXNmzaV0n9Kaiqmf/QRhg8ahLGjRqGRHVy7Ykn5BQVYuW4d1m/eLPSkzgYXIO3DwjBy6FAMvusuuzteWZ8tWbYM3y1fLrsMckCeHh54a9Ik6RM+6rOy8nL8tGYNVq1bh6rqapPf1yACxNvTE0MHDsSImBi0btlSdjkNSo1ej9nz52NbXJzsUsiBaTQavPDUUxh9992yS6nXioqLsXTFCqzdtMmkQ1v1OkBat2yJB8eNw8DoaLu4iVtDc7GkBP+aNQvHeZsIspD7R4/GM48/Lv16kfouIysL8/77Xxw+evS2y9XLAOkWFYWHxo2zy4faNBSZ2dmYMmMGr+8gi7t78GC8+txzFr0gj24udvdufPbVVyi4xV2w602AKIqCwXfdhQfHjkWb0FDbdEo3lXr2LF6fPh3FJSWyS6F6qn+fPpjy8ss8smADZeXl+HTRImzZseOG1+pFgET36IEnJ060i/s5NXTJp0/jjXffteotWIgAoEeXLnj79dfh6uIiu5QGYfe+fZi7cOE1HwwdOkCiOnTAXx97DJHt21uvEzLZ0RMnMHXmTKHpgEQiIsPDMXPqVM6otJGCoiK89/HHV54r75BPJGzRrBkmv/QSnnz0UQT4+Vl7nZEJDiYmYurMmWZNASSqqwv5+Th28iQG3XWXze871RC5u7lh2MCB0Ov1VybHOEyAuLq44IlHHsHkF190+CtB65P9hw/jX++/jxpeIEgS5OXnIzklBQP79eOJdRvQaDTo3rkzQlu2xK59+6Gqpt2sUWqA9OvVCzOmTkXv7t2l3R+HbnT05Em8OXMmw4Okyj1/Hmnp6RgQHc3tg420bN4cWo32jlN9L5PyrxLg74+ZU6di+uTJPFxlZ06npWHazJmorqmRXQoR9hw4gFnz5ln19uV0rWbBQSYva/MDjMMHD8bzTz7JE2R2KDMnB//3zjvSn4hGdLVtcXHwdHfHi3/7m+xS6Do2C5DG3t545bnnpD+vgm4uLz8fk3mdB9mpXzZuRLOmTXHfvffKLoWuYpMA6durF1599lmpTyWjWystK8Pkd95BXn6+7FKIbmnhkiVoGhSE6B49ZJdCl1j1HIhWq8U//vpXvDN5MsPDThkMBrwzezYyb/GQHSJ7oaoqZsydi9SzZ2WXQpdYbQ/Er0kT/GvSJHRo1072GOk25i9aZPKMCyLZqqqqMHXmTMyfNQtNfHxkl3OD6upqnM3MxPkLF5CXn4/8ggIUXbyImpoaVFVXo0avh5uLC7y9vdHIywtNGjdGi+bN0SokBAH+/g53Q0mrBEjXTp0w9ZVX6u1eh6qqKK+oQElpKUrLylBaVobyigoYjUYYjUaoqgqjqgL449yPn68v/H19pT2F7VbWbNiAXzZulF0GkVkuFBTgrVmzMPe996RfaHguLw8JR47g6IkTSElLQ1ZOjvCMMVdXV0S0bYsuHTuiS6dOCG/Txu6vgbH42n9o3Dg8+eijdj/wOzEajcjMycHZjAzknDuHnHPnkHv+PHLOn0d+QYHQL4mLszP8fH3h16QJgoOCENK0KUKaNUOrkBAEBwba9NPHwcREzF+82JarlMhiTqak4ItvvsHfn3zS5n2npKZiy44diE9IQM65cxZrt6qqCoePHv3jiMAPP8Db0xP9o6MxpH9/dIqIsMtrYSwWIBqNBq8+9xxGDBkie0xC8vLzkXTiBE6dPo1Tqak4nZaGqiqTbg9msuqaGmTn5iI7NxeJx49f85q7mxvCQkPRPiwMkeHh6BgeDp/Gja0y1szsbLwzezbn1pNDW7V+PTpHRqJf795W76u0rAzrN2/Gpu3bkWGj84Ull/pcv3kzAvz8MH7UKIwcOhSeHh426d8UFrmZorubG96aNMmhntVRVl6OxGPHcDApCYcSE5GVmyu7pBs0Dw5Gjy5d0KNrV3SOjISbq2ud2ywqLsYLb7yBc3l5sodHVGce7u74fM4cBAUEWKX9c3l5WLl2LTZs3WoX94Rzc3XFPcOG4ZEJE9DI29sqfezYswfvzplj0rJ1DhB/X1/MmDrVIR4rW1Jail379iF2924cOXbMoT6BOzs7o2eXLhgQHY3onj3h7uZmdhuVlZV45c03cTotTfZwiCymfVgYPpkxw6LPEblYWorvfvoJv2zcaNJjYG3Nw90dD40bh/vuvRcuFr71vc0CJLRFC7z/5pvwa9LEZivOXNXV1Yjdswexu3bhYFKSQ4XGrTg7O6N/nz4YGRODzpGRJp07MRgMmDpzJhKOHJFdPpHFjRkxAi8+/XSd2zEYDFi1bh2+W7HCIe7IEODvj9eee86iR3+279qFGXPnmrTs5S2Pc8yECSbtn10OkDahoZj11lto5OVl85VmioysLKzdtAmbtm93iF8EUcGBgYgZMADDBg5Es+DgWy734bx52BQbK7tcIqt5+ZlncO/w4cLvT8/MxIfz5uH3M2dkD8VsI2Ni8Mzjj1vk/MiGLVsw57PPTFr2coBoYyZMqDXlDaoKRLRriw/efNOuTub8UZuK+IQErFy79oaT1A1BRNu2GDpoEAb163dNsC9auhQ/rFoluzwiq9JoNPjwX/9Cl06dzHqf0WjET2vW4Otly6CvNWkzaJeCAwPx9uuvI6xVqzq1s2LtWixcssSkZS8HiBIzYYLJx3aWffmlXR22MhqN2LFnD75fuRJpGRmyy5FOq9WiV9euGDZoEPILC7GA03WpgfDy9MSnH3xw273xq+WcO4dZ8+ZdeZCSo3N2dsbLzzyD4YMGCbcxf9EirP71V5OWvTyNV1VVVVVMvBChsKjILgLEaDRi686dWLpihV3OopLFYDAgPiEB8QkJskshsqnSsjJMe/99zHv//TseIVm/eTM+W7LE4tP1ZaqpqcGH8+YhKycHTz76qFAb6VlZJi975ToQRVFU/G+P5LZOnTmDdmFhUlfUkWPHsHDJEs4oIqJrZGZn472PP8aMKVNuekFzUXEx5ixYgL0HD8ou1Wq+X7kSF0tK8NLf/mbWBYhGoxEpqakmL39l7bYOD58MRTFpHpybmxsGREdLWTGZOTmYM38+Fi1disLiYik1EJF9yzl3DuXl5ejVrds1P4/buxdvvPcezjSAGzKmpKYiMycHd/XubfJdLlJSU7F6/XqT+7iyB6ICWQpg0p0PDyYmora21qb3odHr9Vi6ciV+WLXKLudlE5F9Wf3rr2gZEoJ7hw9HeUUFPv3vf7F5xw7ZZdlU7O7d8HB3xyvPPmvS8nv27ze5bScnJ/XKHkiriIhgRVH6m/LG6poatG/bFiFNm9pkJZw4dQpTZsxA3N69UC/dpJCI6E4OHDkCV2dnfPjppzh68qTscqRISU1FdU3NHa8VUVUVH82fb/JlD21atTJeCRCf0NCjrjrdP009kV5ZVYUh/U3KG2HV1dX4/Jtv8MnChbjIJ+URkZlUVcXBxMR6fS2YKY4nJyMwIABtQkNvuczehASs27TJ5DbDQkPPXzm7cnjDhgsAakx9896EBKtOmU3PzMTzkydj9fr13OsgIqqjTz7/HL+fPn3L179dvtys9pycnD6/5vS8Amwxp4HFS5daZaAbtm7F319/HWczM63SPhFRQ6PX6/H2hx+irLz8hte279qFU2ZcgR8cGKi+M3ny9GsCpMJgeBmAyR/34xMSLDoVrqq6GjM/+QRzFixAdY3JO0NERGSCCwUFmPfll9f8rKy8HAu++sqsdkKaNs0Ernsm+p41a8717t7drONFcy10fiK/oACvTJuGbXFxVlp1RES0NS4OO+Pjr3w/Z8ECFJlxSYRWq1UNRuNTwHUBoihK2d2DB5t1TX9BYSE++Pe/6zS19tSZM3h+8mSzLmAhIiIx//niC5SVl2P5L78gbu9es94b1aFD5YdvvbUZuC5AAGBAdPSTUR06mNXggSNH8J/rdotMtTM+Hi9Pm4aCoiKbrTwiooasuKQEM+bOxedff23W+zQajRrStOkrV76/fgFFUfYNHTjwmLkFrd+8GfMXLzZrxtSGrVvx7pw5qOH5DiIim1FV4MDhw2a/LyqiQ8VLzzzzxeXvb3qTlFFDh97Tt3dvs+fOrl6/HjPmzkW1CY9+XLV+PeYsWMApukRENnSzx5KbwtPDQ23RvNnoq3920wBRFCVj1ODB81wFHpUYu3s3np88Gem3mYK7dMUK3mKciMiGVFU8PACgb69eJ1565pntV//slk2pqqpd9N13uT+sXu0v0plOp8MDY8Zg4v334+og+n7lSiz+/nspK5CIqKG5+iCPaHh0aN++9j8zZ3ooinLN+YZb3g1RURSDqqpdUjMyMvcdPGj6/YAvqa2txQ+rVmHDli24b/RojL77bmyLi2N4EBHZgCWCAwB8fXzU7lFR464PD8CE53/E7dv3yMKvvlp6Li+vDiX88ZQ8g8FwZVB1GRAREd3o+lPKdd3OXjqS9P1Tjz028Wavm9T8qvXr3/9u+fLJF0tKLLbZ57lzIiLLs9SHc0VR8MCYMQefefzxHrdcxtTGlq1evfTb5csfrU+PfyQiopu7f/TojGefeKLVpafV3pTJ5zYeHj9+4vhRo7739PDgvgMRUT2lKAoeGjcu+9knnmh/u/AAzNgDuWzp8uUfrdm48bWCwkKexSAiqkecnJzUPz3wwLFH77uvm6IotXda3uzZVRMfeGDSsIEDJ7Zv08Yoe7BERGQhKmofHDv2q0fvu6+zKeEBCOyBXJaYmBjwy5Ytx2J37xa6ToSIiOyDqqo5peXlfQ5s2mTWQ5jqfBhq7mefLUw6efJvGVlZPKRFRORYDEaDOn/7mtUvibzZIhv9zZs3N9qblLT7YGJih9KyMgYJEZEdU/+4CeEBpaRkzNatW8+LtmPRjf3bH3zQYse+fXM1ijIWgFb2SiIiov9RVVVVgH1VtbVP7V679nhd2/t/+E3n30LBQTEAAAAldEVYdGRhdGU6Y3JlYXRlADIwMjAtMDQtMDNUMDc6Mjc6MTArMDA6MDDHVXucAAAAJXRFWHRkYXRlOm1vZGlmeQAyMDIwLTA0LTAzVDA3OjI3OjEwKzAwOjAwtgjDIAAAAABJRU5ErkJggg==;strokeWidth=102;spacingTop=-3;spacingBottom=-3;spacingLeft=-3;spacingRight=-3;labelBackgroundColor=none;rounded=0;html=1;whiteSpace=wrap;dashed=1;fontSize=10;fontColor=#AE562C;" parent="aZVrczoCgkLRek6ezOxu-9" vertex="1">
          <mxGeometry width="55" height="55" as="geometry" />
        </mxCell>
        <mxCell id="aZVrczoCgkLRek6ezOxu-15" style="vsdxID=45;fillColor=none;gradientColor=none;strokeOpacity=0;spacingTop=-3;spacingBottom=-3;spacingLeft=-3;spacingRight=-3;labelBackgroundColor=none;rounded=0;strokeColor=none;html=1;whiteSpace=wrap;dashed=1;fontSize=10;fontColor=#AE562C;" parent="1" vertex="1">
          <mxGeometry x="785" y="300" width="55" height="60" as="geometry" />
        </mxCell>
        <mxCell id="aZVrczoCgkLRek6ezOxu-16" style="vsdxID=46;fillColor=none;gradientColor=none;image;aspect=fixed;image=data:image/png,iVBORw0KGgoAAAANSUhEUgAAAZAAAAGNCAYAAAA/9yeJAAAABGdBTUEAALGPC/xhBQAAACBjSFJNAAB6JgAAgIQAAPoAAACA6AAAdTAAAOpgAAA6mAAAF3CculE8AAAABmJLR0QA/wD/AP+gvaeTAAAACXBIWXMAAA7DAAAOwwHHb6hkAAAAB3RJTUUH5AQDBxsK6pjOGwAALOxJREFUeNrt3Xd4VFX+BvD3zkx6gZAOBAihJARCLwGpAQSUahd3dV1ddV37Ij8BV1FBURB3EURdEAuK0kRApAcChBJKQosEEtIhpJGeTGbu7w+BpTNzMjNnJnk/z8MTkrlzzvdcwn3n3nvuvQrk0nbv3l1TVVWlVLdooTSvrFQk10NE5DCy3NzURnl5Ri8vLzU2NrbW1v3baoOtxIwZ00nV6YZAVftCRXdVQYgCxcnWAyYiqp9UFSouqKoxSdFo9hlVdUtWdXX86Q0bqq3VozUDRIkZO/Yuo6I8oSjKA4DideUF7mcQEVmNql76ClWvAlsVVf1vXkrK2uPHj9dYsh+Lb8qjhg/38Hd3f1YFJkHRBAIMDCIiWS6HiaKgXAUW6oE5catW5VqibYtt2qOGD/fw9/R8STUap0DReDA0iIjsyx9hotaqqvpFrUbzXl2DxCKb+Zhx48YZgcWKovFhcBAR2TdVBRSoNVDV17f+/POnAAwi7dRpc99/5Eh/nYvrMkVRhjA4iIgci6oCqoLT0OvHbV+79ri57xfe7A8aP/4ujaKsg4pGDA8iIsd0+bAWVPXpbT//vMSc9wpt+gePHfuiotF8oiiMDiKi+kBVAVU1/qAWF//Z1GtKzA6AmLFjP1Q12kmMDiKi+uXS3sjuynPnhsXHx1feaXmzYmDg+PFfa6H8meFBRFQ/qSqgQk1Wi4p6xsbGlt1uWY2pjQ4YN24uw4OIqH5TFECBEq5p7LMnMjLS+XbLak1pMGbcuJc0iuZtS4bH5YtbiIjIMiy1jf6jHSXQ3df3rrPJyd8CuOkW+47dDRw/PloL7LbECfOrQ4N7MkRElnX9B/O6bmcvHc76z/bVq1+62eu3bf6ue+7xcXZxyVQAD0sMiKFBRGQbltr2qqqqAhi6bfXqbde/dttzIE7Ozr9CrXt4KArDg4jIlq7e7tbllMGlo0+/9ho/3vf6124ZIP0mTBijQOkjsuH/Yz4xg4OISLbL2+HL22XBVlw8gBXX//SmJ9HbjBzp4uvktF9R4Hznhq919V4HERHZh6u3yeZuny8t3zKkXbvt6b//nn755zfdAwlxcZ0pcuiK4UFEZL/qckhLURRFp9X+fPXPbgiQyMhIZ0VRXjA3BBgeRET27+pDWgLv9hkwZszEy9/dECB+YWHTAJj1qFmGBxGR4zE3RBQF0Gm08y5/f0OAaLXa18wJAoYHEZHjET6cpSg+g0aNGgFcFyCDRo/uAyjuooUQEZHjEAkRRQE0zi5zgOsCRNHp5orsfRARkWMS2QFQNEp499Gj3a8NEKCHLTonIiL7Ys4OgapC46nTPX8lQHrFxLQDFJ01OiMiIvslcl2IFnjqSoB4eHm9LnhxCRER1QNm7RgoSqjmf39X7rZKJ0REZPfM3iFQ4fS/AAH8rdoZERHVG4py1SwsFebf94qIiOoXc44wXQ4Q3jeXiKiBMzcFNKJvJCKihu1ygJj0bHTgf8/5ICKihu2qQ1hERESm01z3lYiIyCQMDiIiEsIAISIiIQwQIiISwgAhIiIhDBAiIhLCACEiIiEMECIiEsIAISIiIQwQIiISwgAhIiIhDBAiIhLCACEiIiEMECIiEsIAISIiIQwQIiISwgAhIiIhDBAiIhLCACEiIiEMECIiEsIAISIiIQwQIiISwgAhIiIhDBAiIhLCACEiIiEMECIiEsIAISIiIQwQIiISwgAhIiIhDBAiIhLCACEiIiEMECIiEsIAISIiITrZBZB1ebi7I9DfH+5ublABlJWXI/f8edTU1MguzS45OzsjKCAAnh4e0Gg0qKysxLm8PJRXVMguzS5pNBoEBQTA28sLzk5OqKyqwoX8fBSXlMgujWyAAVLPaLVa9OzaFQOjo9G5Y0cE+PndsIzRaMTZjAwcOHIEW3buRFp6uuyypYoMD8fgfv3QNSoKLZo1g6IoNyyTe/48DiUlYfuuXThy7JjskqUKadYMMf37o0eXLmjbujW0Wu0NyxRfvIgjx45hx5492JuQAH1treyyyQou/09xiZkwocqUN6gqcJP/XySZRqPBPcOG4ZEJE24aGrdzKCkJi7//HskpKbKHYVN9evTAEw8/jDahoWa972xGBr7+8UfE7d0rewg21SY0FE8++ih6detm1vsKioqwbNUqrPntNxiNRtnDoDswZxvPAKkHmgcHY+qrr6Jt69bCbaiqijUbNuDzr7+u958WvTw98c+//x39eveuUzv7Dx3Ch59+iuKLF2UPyaq0Wi2emjgR940eDY1G/LRpano63v/kE6RlZMgeEt2GOdv4y/ueutYREdNM7YABYj+6RUXho+nTERQQUKd2FEVBeNu26NWtG3bv24eq6mrZQ7OK5sHB+GTGDHRo377ObTULDkbMgAE4nJSEouJi2UOzCg93d3zw5psY3L//TQ/tmcOncWPcPXgwMrKykJGdLXtodBsMkAagW1QUZkyZAlcXF4u16dukCaJ79cKO3bvrXYgEBwbi3zNnwt/X12Jturu5YUj//jiYmIjCoiLZQ7QoV1dXzJk+3SJhe5lOp8OA6Ghk5ebiLPdE7Jap23hO43VQTYOC8NakSXBycrJ42yFNm+K9qVOh09WfORaurq6YOW0afBo1snjbHu7umDltGvyaNJE9TIua8vLLaBcWZvF2NRoNJr/wAjpGRMgeItURA8QBKYqCN156CR7u7lbrI7xNGzz9pz/JHqrF/P0vf0FI06ZWa9+nUSNMfeUV2cO0mHuGDUPfnj2t1r5Op8O0V16x6u8wWR8DxAHdPXgwItq1s3o/40eNMnuGkj1qFxaGkTExVu+nU4cONunH2jw9PPDXiROt3o+fr69N+iHrYYA4GEVR8Oh999mkL41Gg7888ojsIdfZxPvvr/MJYFP9+aGHHP7Q37iRI+Ht5WWTvu4ZNqzOE0BIHgaIg+nRuTOaBgXZrL/e3bujeXCw7GEL823SxKqHYq7n7+uLAdHRsoddJ/cOH26zvrRaLcaOGCF7yCSIAeJgBvTta/M+YwYMkD1sYQP69LHZ3sdlQx14fUWGh8PPgrPUTOHIv18NHQPEwXSOjLR5n927dJE9bGGdO3a0eZ9RkZEOexiri4T11cTHB6EtW8oeOglggDgQN1dXmx6+uqxNaKjNP8VbSlirVjbv09XFBS2aNZM9dCEy1hcAtLfCdGGyPgaIA5F1stHZycmiF9/ZiqIoZt8XzFKaOeh5o0B/fyn9yvhgRHXHAHEg7hLnzHt4eMgevtlcXFxueqdYW3DE9QVA2nUZjrq+GjoGiAOReVzdyQGP6cus2RHXFyDvd8zZQddXQ8cAISIiIQwQIiISwgAhIiIhDBAiIhLCACEiIiEMECIiEsIAISIiIQwQIiISwgAhIiIhDBAiIhLCACEiIiEMECIiEsIAISIiIQwQIiISwgAhIiIhDBAiIhLCACEiIiEMECIiEsIAISIiIQwQIiISwgAhIiIhDBAiIhLCACEiIiEMECIiEsIAISIiIQwQIiISwgAhIiIhDBAiIhLCACEiIiEMECIiEsIAISIiIQwQIiISwgAhIiIhDBAiIhLCACEiIiEMECIiEsIAISIiIQwQIiISwgAhIiIhDBAiIhLCACEiIiEMECIiEsIAISIiIQwQIiISwgAhIiIhDBAiIhLCACEiIiEMECIiEsIAISIiIQwQIiISwgAhIiIhDBAiIhLCACEiIiEMECIiEsIAISIiIQwQIiISwgAhIiIhDBAiIhLCACEiIiEMECIiEsIAISIiIQwQIiISwgAhIiIhDBAiIhLCACEiIiEMECIiEsIAISIiIQwQIiISwgAhIiIhDBAiIhLCACEiIiEMECIiEsIAISIiIQwQIiISwgAhIiIhDBAiIhLCACEiIiEMECIiEsIAISIiIQwQIiISwgAhIiIhDBAiIhLCACEiIiEMECIiEsIAISIiIQwQIiISwgAhIiIhDBAiIhLCACEiIiEMECIiEsIAISIiIQwQIiISwgAhIiIhDBAiIhLCACEiIiEMECIiEsIAISIiIQwQIiISwgAhIiIhDBAiIhLCACEiIiEMECIiEsIAISIiIQwQIiISwgAhIiIhDBAiIhLCACEiIiEMECIiEsIAISIiIQwQIiISwgAhIiIhDBAiIhLCACEiIiEMECIiEsIAISIiIQwQIiISwgAhIiIhDBAiIhLCACEiIiEMECIiEsIAISIiIQwQIiISwgAhIiIhDBAiIhLCACEiIiEMECIiEsIAISIiIQwQIiISwgAhIiIhDBAiIhLCACEiIiEMECIiEsIAISIiIQwQIiISwgAhIiIhDBAiIhLCACEiIiEMECIiEsIAISIiIQwQIiISwgAhIiIhDBAiIhLCACEiIiEMECIiEsIAISIiIQwQIiISwgAhIiIhDBAiIhLCACEiIiEMECIiEsIAISIiIQwQIiISwgAhIiIhDBAiIhLCACEiIiEMECIiEsIAISIiIQwQIiISwgAhIiIhDBAiIhLCACEiIiEMECIiEsIAISIiIQwQIiISwgAhIiIhDBAiIhLCACEiIiEMECIiEsIAISIiIQwQIiISwgAhIiIhDBAiIhLCACEiIiEMECIiEsIAISIiIQwQIiISwgBxJKoqsWt5fTtizY64vmTi2nJMDBAHUl1TI6/v6mrZwze/Zq4vh6m7qqpK9tBJAAPEgVwsKZHWd/HFi7KHbza9Xo9KSRsmR1xfAFBSWiql32KJv9skjgHiQM5fuIDa2lqb93uxpAQlZWWyhy8kOzdXSr8Z2dmyhy4kS9b6ysqSPXQSwABxIEajEadSU23e79GTJ2UPXVhySorN+7xQUIDzFy7IHrqQk6dOSen3WHKy7KGTAAaIg0k4fNjmfcYfOCB72MIOcH2ZJSEx0eYTAE6eOuWwh/waOgaIg9kWF2fT/+AVlZXYGR8ve9jC9h86hFIbH377bds22cMWlnfhgs33Bhx5fTV0DBAHk5Wbi32HDtmsvzUbNkg7EW0J+tparN240Wb9HUpKwqkzZ2QPu05Wrl1rs74KioqwKTZW9pBJEAPEAS1euhRGo9Hq/RQWFWHZ6tWyh1tnP61Zg4s2mF1kMBiwcMkS2cOts1379tnsXMiX334LvV4ve8gkiAHigFLT07HCBp8SP164EOUVFbKHW2dl5eVYsGiR1fv5fuVKpKanyx6uRcxduBA1Vt6wxx84gC07dsgeKtUBA8RBLf7+exyz4uyo75Yvx96EBNnDtJitcXFYv3mz1drfe/AgvvnpJ9nDtJjU9HTMt2LoZmRlYda8ebKHSXWkvfRV1zoiYpqpb1IU2WWT0WjEnv370aNrVzRp3Niiba/+9Vd8+e23sodocfsPHUJoy5Zo0by5Rds9fPQo3p41C7UGg+whWlRKaiqMqoouHTtatN3s3Fy8Pn06Z17ZMVO38QwQB1ZdU4Ptu3ahbevWaBoUVOf2DAYD/rt0KZb88IPsoVmFqqrYGR8Pby8vhLdta5E2N27bhhlz51r9cI8sSSdOoPjiRXTv3BkaTd0PWCQdP4433n0XhcXFsodGt8EAaSD0ej22xsWhoqICke3bw8nJSaidtIwMvP3hh4jdvVv2kKxKVVXsP3QIqenp6BgeDnd3d6F2ioqL8fFnn2HpypU2mdAg0+9nzmD/4cNoFxYGXx8foTaqq6vx9Y8/Yu7ChQ49q6+hMHUbf3kxl5gJE0z6V1VVBoi9atyoER4YPRp3DxmCxo0amfSeM2fPYsUvv2BrXFy93xBez9XFBfcMG4axI0eavAeXl5+PX377zeGnN4tQFAUD+/bF/WPGILxNG5PeU1Zejo3bt+Onn39GQVGR7CGQCczZxjNA6iGNRoMuHTuic2QkQlu2RJC/P9zc3KCqKsorKpCdm4vk06eRcPgwzmZmyi7XLrQPC0PXqCi0CQ1F06AgeHp4QKvRoLyyEufy8nA6NRWHkpJw/Pffeat2AM2Cg9G9c2eEt22LZsHB8PbygrOTE6qqqnChoABp6ek4cuwYDiUlQS/h/m0kjgFCRERCzNnGcxovEREJYYAQEZEQBggREQlhgBARkRAGCBERCWGAEBGREAYIEREJYYAQEZEQBggREQlhgBARkRAGCBERCWGAEBGREAYIEREJYYAQEZEQBggREQlhgBARkRAGCBERCWGAEBGREAYIEREJYYAQEZEQnewCiByZk5MTXF1coNVq4aTTQafTQVEUqKoKo9EIFYBer0dNTQ2qa2pQW1sru2Qii2GAEF1Fo9EgwM8P/n5+8Pf1hZ+vL/x8fNDI2xuNGzWCt5cXvL284O7mBnc3N2i1WrPaNxgMqKisRFl5OcrKy1FeUYHyS38vq6hAQVERLuTn//GnoAD5hYUwGAyyVwvRTTFAqEHy9PBAy5AQtAoJQcuQEDRv2hTNgoIQ6O8Pnc56/y20Wi28PD3h5elp0vKqqqKwuBgX8vORlZOD9KwspGdlISMzEznnz8NoNMpeldSAMUCo3vP08EBEu3ZoFxaGtq1bo23r1gj095ddlkkURYGvjw98fXwQ3rbtNa/V6PV/hEpmJk6dOYOTp07hVGoqampqZJdNDYRy6atLzIQJVaa8QVUBRTFlSSI5Avz80KVTJ3QKD0eH8HC0aNYMSgP5pTUYDEhNT8fJU6eu/MnKzZVdFjkQc7bxDBByeB7u7ugWFYUeXbqga6dOaBoUJLsku5KXn4+DiYk4mJiIQ0lJKCktlV0S2TEGCNV7wYGB6B8djT7duiEyPNzsk9kNlaqqOJ2WhoOJidh/6BCOJSfzPApdgwFC9VJQQAAG9O2LQX37ol1YmOxy6oWiixexe98+7IyPx5FjxxgmxACh+iPQ3x8D+/XDwOhotG/TRnY59VpJaSl279+PuL17kXDkCMOkgWKAkEPT6XTo16sXRg0dim5RUQ3mBLg9KSouxqbYWPy2bRsys7Nll0M2xAAhh9QsOBijhg7F3YMHo3GjRrLLoUuOJydjw9atiN2zB1VVJm0myIExQMhhaDQaDIiOxr3Dh6NLx46yy6HbqKysxLZdu7By3TpkZGXJLoeshAFCds/Z2RkjhgzBA2PGIDgwUHY5ZAZVVXHg8GGsWLsWh5KSZJdDFsYAIbvl5emJsSNGYPw996CRt7fscqiOUs+exYq1a7Ft1y7eKLKeYICQ3fFr0gQPjh2LkUOHws3VVXY5ZGEFRUX4YeVKrN+8GXoGiUNjgJDd8Pb0xCMTJmDsyJFwdnaWXQ5Z2YWCAixdsQIbtm7lXYQdFAOEpHN1ccGEe+/Fg2PHwtPDQ3Y5ZGPn8vLw3fLl2BQby+tJHAwDhKTRarW4Z+hQPPbAA2ji4yO7HJIsOzcXn3/zDfbs3y+7FDIRA4Sk6NO9O/7+5JO8mSHd4FBSEhYsXoyzmZmyS6E7YICQTQX6++P5v/4VfXv2lF0K2TGDwYB1mzZhybJlKC0rk10O3QIDhGxCp9PhwbFjMfG+++Di4iK7HHIQJaWlWLJsGdZu3AhVVWWXQ9dhgJDVdYuKwgtPP42Qpk1ll0IO6sSpU5g9fz6varczDBCyGg93d7zw1FMYOnCg7FKkKCktRWFREYovXkRJWRnKystRWlaG6upqVNXUoLq6GrW1tTAajVBVFaqqQqfTQafTwUmng6ur65Vnont5eFz5eyNv7wZ5/68avR7fLV+OZatXc7aWnWCAkFV079wZ/3z+efj7+souxWqMRiNyz59HWkYG0jMzkZuXh3Pnz+NcXh4KCgutepGci7MzAv39ERQYiKDLXwMC0DIkBM2Dg+v1Q7NOp6Vh9vz5OJ2WJruUBo8BQhbl6uKCp//8Z4wdMUJ2KRZVVV2N5JQUnE5Lw9mMDKSlp+NsZiaqa2pkl3YDZ2dnhIaEICw0FGGtWiGsVSu0ad0arvXo3JPBYMCPP/+MJcuWcW9EIgYIWUyH9u0x+YUX0Cw4WHYpdVZSWopjyck4euIEjp08iVOpqQ59tbRWq0X7sDBERUYiqkMHdIyIgLubm+yy6uzkqVOYMXcuzuXlyS6lQWKAUJ1pNBo8/tBDeGTCBGg0GtnlCDEYDDiWnIz4Awdw4MgRpNfzaxA0Gg3ahIaia6dO6NuzJyLatXPYf7uy8nLMXbgQO/bskV1Kg8MAoTpp7O2Nqa++iq6dOskuxWxl5eU4cPgw9iYkYN+hQygrL5ddkjSNvb3Rp2dP9O3ZE92johxyqvWvW7Zg/qJFdnlYsb5igJCwjuHhmPbaa/Br0kR2KSarrq7Grn37sHnHDhw+etShD0tZi7OzM3p17Yphgwahd7du0Ol0sksyWXpmJqbPns3pvjbCACEh948Zg6cfe8whZvuoqoqjJ05gU2wsdsbHo6KyUnZJDsPbywsx/ftj+ODBaNu6texyTFJRWYn3P/kE8QkJskup9xggZBZ3NzdM+sc/0L9PH9ml3FFhURHWbdqETbGxPMlqAa1CQjBy6FCMGDIEHu7ussu5LVVV8dUPP+D7lStll1KvMUDIZIH+/pg5bRpaNm8uu5TbSklNxap167B9924++c4K3FxdMWLIEIy/5x67vxlm7O7d+OjTT3lexEoYIGSS8LZt8e4bb8DHTq+ANhqNiD9wACvXrUPSiROyy2kQFEVBn+7dcd+996KLHU+iSElNxVuzZiEvP192KfUOA4TuqH+fPvi/F1+0y5k5BoMBW+Pi8N3y5cg5d052OQ1W+zZt8PjDD6NX166yS7mpwqIi/N+77yI1PV12KfUKA4Ru66Fx4/DUY49BsbN/SKPRiB179uDrH39EVk6O7HLokg7t2uHxhx9G986dZZdyg7Lycrz5wQc4yj1Ui2GA0E1pNBq8/MwzGDV0qOxSrqGqKuL27sU3P/7IBw7ZsY7h4Xji4Yft7tBWTU0N3ps7l089tBAGCN1Ap9PhzVdfRb/evWWXco3jycn4dNEipKSmyi6FTBTdowee+8tf7Opku8FgwCeff44NW7fKLsXhmbONvzzhX9c6ImKaqR0wQByLs7Mz3pk8GX169JBdyhUFRUX49xdfYMFXX6GwqEh2OWSGrJwcrN20CZVVVejQrh2cnJxklwSNRoO+PXtCX1uLYydPyi7H4TFACADg6uqKmVOnoltUlOxSAAB6vR4r1q7FO7Nn49SZM7LLIUFGoxHHk5Oxcds2eHt7I6xVK7s4p9YtKgq1BgOOMkTqhAFC8HB3x4f/+hc6RkTILgUAcDAxEdNmzkQsr+WoNyqrqrBn/34cPnoUHcPD4e3lJbskdO3UCTV6PY4lJ8suxWExQBq4Rt7e+Ojtt9G+TRvZpaCyshKfLlqEBV99hZKyMtnlkBXk5efj161b4ezsjIi2baXvjXSLikJlVRVO/P677FXjkHgSvQHz9PDA3PfeQ2iLFrJLweGjRzF7/nycv3BBdilkIxFt2+Kf//iHXdzdYMHixVi1fr1V+9BoNPD39UVQYCCCAwLg7+eHRl5e8L70x9PDA05OTlcea6woCi6WlqKoqAiFxcUoLCpCVm4usrKzkZWbi/KKCqnrjLOwrMDTwwMBfn5o3KgRvDw94e3lBTdXV7i4uMDVxQW6S78YGkWBCqBWr4e+thbVNTUoKCxEfmHhla+lVvwU7urqio/eegsR7dpJXV+VVVX48ptv8MvGjVLrIDmcdDo88cgjeHDsWOl7I//58kv88ttvFmnL1cUFEe3aISw0FG1atULrVq3Qsnlzi96ANL+wEKfOnEFySgp+P30aySkpNg0VBogg3yZNENaqFVq1aIEgf38EXvoT4O9v0Se91dTUIL+wENm5ucjKzUV2Ts4fX3Nzcf7CBeHHeTrpdJg5bZr053gknz6NGR9/jNzz56XWQfL17NIFk198EY0l3i5HVVW8O2cOdsbHm/1enU6HqA4d0LVTJ3Tu2BHtWre2+a3wDQYDTp05g4OJiTiYlITjyclWfeQvA8QEQQEBiAwPR5tWra48Z7qRt7fssqDX65GRnY3Tqak4ffYszqSl4czZs3f8BKLRaPDWpEno16uX1Pp//vVXLPz6a54kpyt8fXww5ZVX0DkyUloNNXo9Xp8+3aQpvq6urujdrRv69eqF3t27291diktKS7F7/37s3LMHh6zw/BsGyE0E+vujc8eO6BwZiS4dOyLQ3192SWY5l5eH30+fxrHkZBxPTsbptLRrPoX834svYujAgdLqq6isxOz584U+5VH9p9Fo8KcHHsDE+++X9pjd0rIyvDRlCjKys2/6esfwcIyIicHAvn3h5uoqc3WZrKS0FFvj4vDr5s1Iy8iwSJsMEPzxC9spIgJ39emD6B49EBQQILski6qqrkZySgpO/P47/Hx9MXzQIGm1nDl7Fu/Mno3s3FzZq4XsXLeoKLz52mvw8vSU0v/5vDy88MYbKCwuBgC4ODtjZEwMxo4ciZBmzWSvnjpJTknBL7/9hq1xcXXaK2mwAeLk5ITuUVFXQsMeDknVd1t27sScBQug1+tll0IOonlwMN6bMgXNmzaV0n9Kaiqmf/QRhg8ahLGjRqGRHVy7Ykn5BQVYuW4d1m/eLPSkzgYXIO3DwjBy6FAMvusuuzteWZ8tWbYM3y1fLrsMckCeHh54a9Ik6RM+6rOy8nL8tGYNVq1bh6rqapPf1yACxNvTE0MHDsSImBi0btlSdjkNSo1ej9nz52NbXJzsUsiBaTQavPDUUxh9992yS6nXioqLsXTFCqzdtMmkQ1v1OkBat2yJB8eNw8DoaLu4iVtDc7GkBP+aNQvHeZsIspD7R4/GM48/Lv16kfouIysL8/77Xxw+evS2y9XLAOkWFYWHxo2zy4faNBSZ2dmYMmMGr+8gi7t78GC8+txzFr0gj24udvdufPbVVyi4xV2w602AKIqCwXfdhQfHjkWb0FDbdEo3lXr2LF6fPh3FJSWyS6F6qn+fPpjy8ss8smADZeXl+HTRImzZseOG1+pFgET36IEnJ060i/s5NXTJp0/jjXffteotWIgAoEeXLnj79dfh6uIiu5QGYfe+fZi7cOE1HwwdOkCiOnTAXx97DJHt21uvEzLZ0RMnMHXmTKHpgEQiIsPDMXPqVM6otJGCoiK89/HHV54r75BPJGzRrBkmv/QSnnz0UQT4+Vl7nZEJDiYmYurMmWZNASSqqwv5+Th28iQG3XWXze871RC5u7lh2MCB0Ov1VybHOEyAuLq44IlHHsHkF190+CtB65P9hw/jX++/jxpeIEgS5OXnIzklBQP79eOJdRvQaDTo3rkzQlu2xK59+6Gqpt2sUWqA9OvVCzOmTkXv7t2l3R+HbnT05Em8OXMmw4Okyj1/Hmnp6RgQHc3tg420bN4cWo32jlN9L5PyrxLg74+ZU6di+uTJPFxlZ06npWHazJmorqmRXQoR9hw4gFnz5ln19uV0rWbBQSYva/MDjMMHD8bzTz7JE2R2KDMnB//3zjvSn4hGdLVtcXHwdHfHi3/7m+xS6Do2C5DG3t545bnnpD+vgm4uLz8fk3mdB9mpXzZuRLOmTXHfvffKLoWuYpMA6durF1599lmpTyWjWystK8Pkd95BXn6+7FKIbmnhkiVoGhSE6B49ZJdCl1j1HIhWq8U//vpXvDN5MsPDThkMBrwzezYyb/GQHSJ7oaoqZsydi9SzZ2WXQpdYbQ/Er0kT/GvSJHRo1072GOk25i9aZPKMCyLZqqqqMHXmTMyfNQtNfHxkl3OD6upqnM3MxPkLF5CXn4/8ggIUXbyImpoaVFVXo0avh5uLC7y9vdHIywtNGjdGi+bN0SokBAH+/g53Q0mrBEjXTp0w9ZVX6u1eh6qqKK+oQElpKUrLylBaVobyigoYjUYYjUaoqgqjqgL449yPn68v/H19pT2F7VbWbNiAXzZulF0GkVkuFBTgrVmzMPe996RfaHguLw8JR47g6IkTSElLQ1ZOjvCMMVdXV0S0bYsuHTuiS6dOCG/Txu6vgbH42n9o3Dg8+eijdj/wOzEajcjMycHZjAzknDuHnHPnkHv+PHLOn0d+QYHQL4mLszP8fH3h16QJgoOCENK0KUKaNUOrkBAEBwba9NPHwcREzF+82JarlMhiTqak4ItvvsHfn3zS5n2npKZiy44diE9IQM65cxZrt6qqCoePHv3jiMAPP8Db0xP9o6MxpH9/dIqIsMtrYSwWIBqNBq8+9xxGDBkie0xC8vLzkXTiBE6dPo1Tqak4nZaGqiqTbg9msuqaGmTn5iI7NxeJx49f85q7mxvCQkPRPiwMkeHh6BgeDp/Gja0y1szsbLwzezbn1pNDW7V+PTpHRqJf795W76u0rAzrN2/Gpu3bkWGj84Ull/pcv3kzAvz8MH7UKIwcOhSeHh426d8UFrmZorubG96aNMmhntVRVl6OxGPHcDApCYcSE5GVmyu7pBs0Dw5Gjy5d0KNrV3SOjISbq2ud2ywqLsYLb7yBc3l5sodHVGce7u74fM4cBAUEWKX9c3l5WLl2LTZs3WoX94Rzc3XFPcOG4ZEJE9DI29sqfezYswfvzplj0rJ1DhB/X1/MmDrVIR4rW1Jail379iF2924cOXbMoT6BOzs7o2eXLhgQHY3onj3h7uZmdhuVlZV45c03cTotTfZwiCymfVgYPpkxw6LPEblYWorvfvoJv2zcaNJjYG3Nw90dD40bh/vuvRcuFr71vc0CJLRFC7z/5pvwa9LEZivOXNXV1Yjdswexu3bhYFKSQ4XGrTg7O6N/nz4YGRODzpGRJp07MRgMmDpzJhKOHJFdPpHFjRkxAi8+/XSd2zEYDFi1bh2+W7HCIe7IEODvj9eee86iR3+279qFGXPnmrTs5S2Pc8yECSbtn10OkDahoZj11lto5OVl85VmioysLKzdtAmbtm93iF8EUcGBgYgZMADDBg5Es+DgWy734bx52BQbK7tcIqt5+ZlncO/w4cLvT8/MxIfz5uH3M2dkD8VsI2Ni8Mzjj1vk/MiGLVsw57PPTFr2coBoYyZMqDXlDaoKRLRriw/efNOuTub8UZuK+IQErFy79oaT1A1BRNu2GDpoEAb163dNsC9auhQ/rFoluzwiq9JoNPjwX/9Cl06dzHqf0WjET2vW4Otly6CvNWkzaJeCAwPx9uuvI6xVqzq1s2LtWixcssSkZS8HiBIzYYLJx3aWffmlXR22MhqN2LFnD75fuRJpGRmyy5FOq9WiV9euGDZoEPILC7GA03WpgfDy9MSnH3xw273xq+WcO4dZ8+ZdeZCSo3N2dsbLzzyD4YMGCbcxf9EirP71V5OWvTyNV1VVVVVMvBChsKjILgLEaDRi686dWLpihV3OopLFYDAgPiEB8QkJskshsqnSsjJMe/99zHv//TseIVm/eTM+W7LE4tP1ZaqpqcGH8+YhKycHTz76qFAb6VlZJi975ToQRVFU/G+P5LZOnTmDdmFhUlfUkWPHsHDJEs4oIqJrZGZn472PP8aMKVNuekFzUXEx5ixYgL0HD8ou1Wq+X7kSF0tK8NLf/mbWBYhGoxEpqakmL39l7bYOD58MRTFpHpybmxsGREdLWTGZOTmYM38+Fi1disLiYik1EJF9yzl3DuXl5ejVrds1P4/buxdvvPcezjSAGzKmpKYiMycHd/XubfJdLlJSU7F6/XqT+7iyB6ICWQpg0p0PDyYmora21qb3odHr9Vi6ciV+WLXKLudlE5F9Wf3rr2gZEoJ7hw9HeUUFPv3vf7F5xw7ZZdlU7O7d8HB3xyvPPmvS8nv27ze5bScnJ/XKHkiriIhgRVH6m/LG6poatG/bFiFNm9pkJZw4dQpTZsxA3N69UC/dpJCI6E4OHDkCV2dnfPjppzh68qTscqRISU1FdU3NHa8VUVUVH82fb/JlD21atTJeCRCf0NCjrjrdP009kV5ZVYUh/U3KG2HV1dX4/Jtv8MnChbjIJ+URkZlUVcXBxMR6fS2YKY4nJyMwIABtQkNvuczehASs27TJ5DbDQkPPXzm7cnjDhgsAakx9896EBKtOmU3PzMTzkydj9fr13OsgIqqjTz7/HL+fPn3L179dvtys9pycnD6/5vS8Amwxp4HFS5daZaAbtm7F319/HWczM63SPhFRQ6PX6/H2hx+irLz8hte279qFU2ZcgR8cGKi+M3ny9GsCpMJgeBmAyR/34xMSLDoVrqq6GjM/+QRzFixAdY3JO0NERGSCCwUFmPfll9f8rKy8HAu++sqsdkKaNs0Ernsm+p41a8717t7drONFcy10fiK/oACvTJuGbXFxVlp1RES0NS4OO+Pjr3w/Z8ECFJlxSYRWq1UNRuNTwHUBoihK2d2DB5t1TX9BYSE++Pe/6zS19tSZM3h+8mSzLmAhIiIx//niC5SVl2P5L78gbu9es94b1aFD5YdvvbUZuC5AAGBAdPSTUR06mNXggSNH8J/rdotMtTM+Hi9Pm4aCoiKbrTwiooasuKQEM+bOxedff23W+zQajRrStOkrV76/fgFFUfYNHTjwmLkFrd+8GfMXLzZrxtSGrVvx7pw5qOH5DiIim1FV4MDhw2a/LyqiQ8VLzzzzxeXvb3qTlFFDh97Tt3dvs+fOrl6/HjPmzkW1CY9+XLV+PeYsWMApukRENnSzx5KbwtPDQ23RvNnoq3920wBRFCVj1ODB81wFHpUYu3s3np88Gem3mYK7dMUK3mKciMiGVFU8PACgb69eJ1565pntV//slk2pqqpd9N13uT+sXu0v0plOp8MDY8Zg4v334+og+n7lSiz+/nspK5CIqKG5+iCPaHh0aN++9j8zZ3ooinLN+YZb3g1RURSDqqpdUjMyMvcdPGj6/YAvqa2txQ+rVmHDli24b/RojL77bmyLi2N4EBHZgCWCAwB8fXzU7lFR464PD8CE53/E7dv3yMKvvlp6Li+vDiX88ZQ8g8FwZVB1GRAREd3o+lPKdd3OXjqS9P1Tjz028Wavm9T8qvXr3/9u+fLJF0tKLLbZ57lzIiLLs9SHc0VR8MCYMQefefzxHrdcxtTGlq1evfTb5csfrU+PfyQiopu7f/TojGefeKLVpafV3pTJ5zYeHj9+4vhRo7739PDgvgMRUT2lKAoeGjcu+9knnmh/u/AAzNgDuWzp8uUfrdm48bWCwkKexSAiqkecnJzUPz3wwLFH77uvm6IotXda3uzZVRMfeGDSsIEDJ7Zv08Yoe7BERGQhKmofHDv2q0fvu6+zKeEBCOyBXJaYmBjwy5Ytx2J37xa6ToSIiOyDqqo5peXlfQ5s2mTWQ5jqfBhq7mefLUw6efJvGVlZPKRFRORYDEaDOn/7mtUvibzZIhv9zZs3N9qblLT7YGJih9KyMgYJEZEdU/+4CeEBpaRkzNatW8+LtmPRjf3bH3zQYse+fXM1ijIWgFb2SiIiov9RVVVVgH1VtbVP7V679nhd2/t/+E3n30LBQTEAAAAldEVYdGRhdGU6Y3JlYXRlADIwMjAtMDQtMDNUMDc6Mjc6MTArMDA6MDDHVXucAAAAJXRFWHRkYXRlOm1vZGlmeQAyMDIwLTA0LTAzVDA3OjI3OjEwKzAwOjAwtgjDIAAAAABJRU5ErkJggg==;strokeWidth=102;spacingTop=-3;spacingBottom=-3;spacingLeft=-3;spacingRight=-3;labelBackgroundColor=none;rounded=0;html=1;whiteSpace=wrap;dashed=1;fontSize=10;fontColor=#AE562C;" parent="aZVrczoCgkLRek6ezOxu-15" vertex="1">
          <mxGeometry width="55" height="55" as="geometry" />
        </mxCell>
        <mxCell id="aZVrczoCgkLRek6ezOxu-17" value="Internal &#xa;Load Balancer" style="shape=image;verticalLabelPosition=bottom;verticalAlign=top;imageAspect=0;aspect=fixed;image=data:image/svg+xml,PHN2ZyB4bWxucz0iaHR0cDovL3d3dy53My5vcmcvMjAwMC9zdmciIHhtbG5zOnhsaW5rPSJodHRwOi8vd3d3LnczLm9yZy8xOTk5L3hsaW5rIiB2ZXJzaW9uPSIxLjEiIGlkPSJMYXllcl8xIiB4PSIwcHgiIHk9IjBweCIgdmlld0JveD0iMCAwIDQyLjM4OTk5OTM4OTY0ODQ0IDQyIiBzdHlsZT0iZW5hYmxlLWJhY2tncm91bmQ6bmV3IDAgMCA0Mi4zOCA0MjsiIHhtbDpzcGFjZT0icHJlc2VydmUiIHdpZHRoPSI0Mi4zODk5OTkzODk2NDg0NCIgaGVpZ2h0PSI0MiI+JiN4YTs8c3R5bGUgdHlwZT0idGV4dC9jc3MiPiYjeGE7CS5zdDB7ZmlsbDojRkZGRkZGO30mI3hhOwkuc3Qxe2ZpbGw6bm9uZTt9JiN4YTsJLnN0MntmaWxsOiMyQzU5Njc7fSYjeGE7PC9zdHlsZT4mI3hhOzxnPiYjeGE7CTxnPiYjeGE7CQk8Zz4mI3hhOwkJCTxwYXRoIGNsYXNzPSJzdDAiIGQ9Ik0zNC4yLDQxLjV2LTIuNDhoMy4wMUwyMy4xNiwyNC45NmMtMC4zNyw0Ljc2LTEuNDYsOC45NS0zLjE3LDEyLjE4Yy0yLjEsMy41Ni00LjIyLDQuMjktNS42Myw0LjI5JiMxMDsmIzk7JiM5OyYjOTsmIzk7Yy0wLjI1LDAtMC41MS0wLjAyLTAuNzYtMC4wN2MtNC4wMy0wLjc0LTYuNDYtNi43OS03LjQtMTIuMjFjLTAuMzgtMi4wMy0wLjYyLTQuNDEtMC42Ny02LjkxSDAuNXYtMi40OGg1LjAzJiMxMDsmIzk7JiM5OyYjOTsmIzk7YzAuMDYtMi41OSwwLjMxLTUuMDcsMC43Mi03LjE3QzcuNTYsNS4yMywxMC42OSwwLjY0LDE0LjQyLDAuNmMyLjE4LDAsNi4wOCwxLjU5LDguMTgsMTIuMjNjMC4yNCwxLjM1LDAuNDEsMi43NSwwLjUzLDQuMiYjMTA7JiM5OyYjOTsmIzk7JiM5O0wzNy4xNywyLjk4SDM0LjJWMC41aDcuM3Y3LjNoLTIuNDhWNC42NEwyMy45LDE5Ljc2aDEyLjg4bC0yLTEuOTFsMS43MS0xLjhsNS4xNyw0LjkybC01LjE0LDUuMTRsLTEuNzUtMS43NWwyLjEyLTIuMTNIMjMuOTUmIzEwOyYjOTsmIzk7JiM5OyYjOTtsMTUuMDcsMTUuMDdWMzQuMmgyLjQ4djcuM0gzNC4yeiIvPiYjeGE7CQkJPHBhdGggY2xhc3M9InN0MCIgZD0iTTQxLDF2Ni4zaC0xLjQ4VjMuNDRMMjIuNzksMjAuMTdjMCwwLjAzLDAsMC4wNiwwLDAuMDloMTUuMjVsLTIuNTUtMi40M2wxLjAyLTEuMDdsNC40NCw0LjIzbC00LjQzLDQuNDMmIzEwOyYjOTsmIzk7JiM5OyYjOTtsLTEuMDUtMS4wNWwyLjYyLTIuNjJIMjIuNzljMCwwLjAyLDAsMC4wMywwLDAuMDVsMTYuNzIsMTYuNzJWMzQuN0g0MVY0MWgtNi4zdi0xLjQ4aDMuNzJsLTE1LjctMTUuNyYjMTA7JiM5OyYjOTsmIzk7JiM5O2MtMC4yNSw0LjU3LTEuMTcsOS4yOC0zLjE4LDEzLjA4bC0wLjAyLDAuMDRjLTEuODgsMy4xOS0zLjc1LDMuOTktNS4xNywzLjk5Yy0wLjI0LDAtMC40Ny0wLjAyLTAuNjgtMC4wNiYjMTA7JiM5OyYjOTsmIzk7JiM5O2MtMy43OC0wLjY5LTYuMTMtNi43OS02Ljk5LTExLjgxYy0wLjQyLTIuMi0wLjY0LTQuNzUtMC42OC03LjMySDF2LTEuNDhoNS4wMmMwLjA0LTIuNjcsMC4yOC01LjMxLDAuNzItNy41OCYjMTA7JiM5OyYjOTsmIzk7JiM5O0M4LDUuNTcsMTAuOTUsMS4xMywxNC40MiwxLjFjMC4wMSwwLDAuMDIsMCwwLjA0LDBjMiwwLDUuNjIsMS41NSw3LjY0LDExLjgybDAsMC4wMmMwLjI3LDEuNTYsMC40OSwzLjMzLDAuNiw1LjIxTDM4LjM4LDIuNDgmIzEwOyYjOTsmIzk7JiM5OyYjOTtIMzQuN1YxSDQxIE00MiwwaC0xaC02LjNoLTF2MXYxLjQ4djFoMWgxLjI2TDIzLjUzLDE1LjkyYy0wLjExLTEuMDktMC4yNi0yLjE0LTAuNDQtMy4xNUMyMS4wMiwyLjI5LDE3LjI2LDAuMSwxNC40NiwwLjEmIzEwOyYjOTsmIzk7JiM5OyYjOTtjLTQuMDksMC4wNC03LjMzLDQuNjgtOC43MSwxMi40MWMtMC4zOSwxLjk5LTAuNjMsNC4zMS0wLjcxLDYuNzVIMUgwdjF2MS40OHYxaDFoNC4wNGMwLjA4LDIuMzQsMC4zMSw0LjU4LDAuNjcsNi41MSYjMTA7JiM5OyYjOTsmIzk7JiM5O2MwLjk2LDUuNTcsMy41MSwxMS44Miw3LjgsMTIuNmMwLjI4LDAuMDUsMC41NywwLjA4LDAuODYsMC4wOGMxLjU0LDAsMy44NC0wLjc4LDYuMDMtNC40OGwwLTAuMDFsMC4wMy0wLjA1JiMxMDsmIzk7JiM5OyYjOTsmIzk7YzEuNjItMy4wNiwyLjY5LTYuOTQsMy4xNC0xMS4zM2wxMi40NSwxMi40NUgzNC43aC0xdjFWNDF2MWgxSDQxaDF2LTF2LTYuM3YtMWgtMWgtMS40OGgtMXYxdjEuNEwyNS4xNiwyMi43NGgxMC41M2wtMC45MiwwLjkyJiMxMDsmIzk7JiM5OyYjOTsmIzk7bC0wLjcxLDAuNzFsMC43MSwwLjcxbDEuMDUsMS4wNWwwLjcxLDAuNzFsMC43MS0wLjcxbDQuNDMtNC40M2wwLjcyLTAuNzJsLTAuNzQtMC43MWwtNC40NC00LjIzbC0wLjcyLTAuNjlsLTAuNjksMC43MiYjMTA7JiM5OyYjOTsmIzk7JiM5O2wtMS4wMiwxLjA3bC0wLjY5LDAuNzJsMC43MiwwLjY5bDAuNzQsMC43SDI1LjExTDM4LjUyLDUuODVWNy4zdjFoMUg0MWgxdi0xVjFWMEw0MiwweiIvPiYjeGE7CQk8L2c+JiN4YTsJCTxnPiYjeGE7CQkJPHBhdGggY2xhc3M9InN0MSIgZD0iTTE0LjQ2LDIuOTVjLTAuMDEsMC0wLjAxLDAtMC4wMiwwYy0xLjk3LDAuMDItNC42NiwzLjE4LTUuODgsMTAuMDZsMCwwLjAyYy0wLjQyLDIuMTctMC42NSw0LjY4LTAuNjksNy4yMyYjMTA7JiM5OyYjOTsmIzk7JiM5O2g4Ljg4bC0yLjc0LTIuNjFsMS4wMi0xLjA3bDQuNjIsNC40MWwtNC40Myw0LjQybC0xLjA1LTEuMDVsMi42Mi0yLjYySDcuODZjMC4wNCwyLjQ2LDAuMjUsNC44OSwwLjY1LDYuOTkmIzEwOyYjOTsmIzk7JiM5OyYjOTtjMC45Niw1LjU3LDMuMjcsOS45LDUuNTEsMTAuMzFjMC4xMSwwLjAyLDAuMjMsMC4wMywwLjM0LDAuMDNjMS40MywwLDIuNzEtMS42MywzLjU2LTMuMDZjMy4yOS02LjI1LDMuNTYtMTUuOTIsMi4zNi0yMi43NSYjMTA7JiM5OyYjOTsmIzk7JiM5O0MxOC43OCw1LjY2LDE2LjI5LDIuOTUsMTQuNDYsMi45NXoiLz4mI3hhOwkJCTxwYXRoIGNsYXNzPSJzdDIiIGQ9Ik00MSw3LjNWMWgtNi4zdjEuNDhoMy42N0wyMi43MSwxOC4xNWMtMC4xMS0xLjg4LTAuMzItMy42NS0wLjYtNS4yMWwwLTAuMDJDMjAuMDgsMi42NSwxNi40NiwxLjEsMTQuNDYsMS4xJiMxMDsmIzk7JiM5OyYjOTsmIzk7Yy0wLjAxLDAtMC4wMiwwLTAuMDQsMEMxMC45NSwxLjEzLDgsNS41Nyw2Ljc0LDEyLjY4Yy0wLjQ0LDIuMjctMC42OCw0LjkxLTAuNzIsNy41OEgxdjEuNDhoNS4wMWMwLjA0LDIuNTgsMC4yNiw1LjEyLDAuNjgsNy4zMiYjMTA7JiM5OyYjOTsmIzk7JiM5O2MwLjg2LDUuMDEsMy4yMSwxMS4xMSw2Ljk5LDExLjgxYzAuMjEsMC4wNCwwLjQ0LDAuMDYsMC42OCwwLjA2YzEuNDEsMCwzLjI4LTAuOCw1LjE3LTMuOTlsMC4wMi0wLjA0JiMxMDsmIzk7JiM5OyYjOTsmIzk7YzIuMDEtMy44LDIuOTMtOC41MSwzLjE4LTEzLjA4bDE1LjcsMTUuN0gzNC43VjQxSDQxdi02LjNoLTEuNDh2My44MUwyMi43OSwyMS43OWMwLTAuMDIsMC0wLjAzLDAtMC4wNUgzOC4xbC0yLjYyLDIuNjImIzEwOyYjOTsmIzk7JiM5OyYjOTtsMS4wNSwxLjA1bDQuNDMtNC40M2wtNC40NC00LjIzbC0xLjAyLDEuMDdsMi41NSwyLjQzSDIyLjc5YzAtMC4wMywwLTAuMDYsMC0wLjA5TDM5LjUyLDMuNDRWNy4zSDQxeiBNMTcuOTIsMzYuMDImIzEwOyYjOTsmIzk7JiM5OyYjOTtjLTAuODUsMS40My0yLjEzLDMuMDYtMy41NiwzLjA2Yy0wLjExLDAtMC4yMy0wLjAxLTAuMzQtMC4wM2MtMi4yMy0wLjQxLTQuNTUtNC43NC01LjUxLTEwLjMxYy0wLjQtMi4xMS0wLjYxLTQuNTQtMC42NS02Ljk5JiMxMDsmIzk7JiM5OyYjOTsmIzk7aDguOTRsLTIuNjIsMi42MmwxLjA1LDEuMDVsNC40My00LjQybC00LjYyLTQuNDFsLTEuMDIsMS4wN2wyLjc0LDIuNjFINy44NmMwLjA0LTIuNTUsMC4yNy01LjA2LDAuNjktNy4yM2wwLTAuMDImIzEwOyYjOTsmIzk7JiM5OyYjOTtjMS4yMi02Ljg5LDMuOTEtMTAuMDQsNS44OC0xMC4wNmMwLjAxLDAsMC4wMSwwLDAuMDIsMGMxLjgzLDAsNC4zMiwyLjcxLDUuODMsMTAuMzJDMjEuNDgsMjAuMDksMjEuMjEsMjkuNzcsMTcuOTIsMzYuMDJ6Ii8+JiN4YTsJCTwvZz4mI3hhOwk8L2c+JiN4YTs8L2c+JiN4YTs8L3N2Zz4=;dashed=1;fontSize=6;fontColor=#AE562C;strokeColor=#AE562C;strokeWidth=2;fillColor=#E6E6E6;" parent="1" vertex="1">
          <mxGeometry x="754" y="362" width="22" height="22" as="geometry" />
        </mxCell>
        <mxCell id="aZVrczoCgkLRek6ezOxu-18" value="&lt;p style=&quot;font-size: 8px;&quot;&gt;&lt;font style=&quot;font-size: 8px;&quot;&gt;&lt;font style=&quot;font-size: 8px;&quot; color=&quot;#ae562c&quot;&gt;&amp;nbsp;NLB Subnet&lt;br style=&quot;font-size: 8px;&quot;&gt;&lt;/font&gt;&lt;/font&gt;&lt;span style=&quot;background-color: initial; font-size: 8px;&quot;&gt;&lt;font style=&quot;font-size: 8px;&quot;&gt;&amp;nbsp;172.16.140.0/28&lt;/font&gt;&lt;/span&gt;&lt;/p&gt;" style="text;html=1;strokeColor=none;fillColor=none;align=left;verticalAlign=middle;whiteSpace=wrap;rounded=0;dashed=1;horizontal=1;labelPosition=center;verticalLabelPosition=middle;fontSize=8;" parent="1" vertex="1">
          <mxGeometry x="610" y="210" width="100" height="30" as="geometry" />
        </mxCell>
        <mxCell id="aZVrczoCgkLRek6ezOxu-19" value="&lt;p style=&quot;font-size: 8px;&quot;&gt;&lt;font style=&quot;font-size: 8px;&quot;&gt;&lt;font style=&quot;font-size: 8px;&quot; color=&quot;#ae562c&quot;&gt;&amp;nbsp;Untrust subnet&lt;br style=&quot;font-size: 8px;&quot;&gt;&lt;/font&gt;&lt;/font&gt;&lt;span style=&quot;background-color: initial; font-size: 8px;&quot;&gt;&lt;font style=&quot;font-size: 8px;&quot;&gt;&amp;nbsp;172.16.140.32/28&lt;/font&gt;&lt;/span&gt;&lt;/p&gt;" style="text;html=1;strokeColor=none;fillColor=none;align=left;verticalAlign=middle;whiteSpace=wrap;rounded=0;dashed=1;horizontal=1;labelPosition=center;verticalLabelPosition=middle;fontSize=8;" parent="1" vertex="1">
          <mxGeometry x="610" y="280" width="100" height="30" as="geometry" />
        </mxCell>
        <mxCell id="aZVrczoCgkLRek6ezOxu-20" value="&lt;p style=&quot;font-size: 8px;&quot;&gt;&lt;font style=&quot;font-size: 8px;&quot;&gt;&lt;font style=&quot;font-size: 8px;&quot; color=&quot;#ae562c&quot;&gt;&amp;nbsp;Trust subnet&lt;br style=&quot;font-size: 8px;&quot;&gt;&lt;/font&gt;&lt;/font&gt;&lt;span style=&quot;background-color: initial; font-size: 8px;&quot;&gt;&lt;font style=&quot;font-size: 8px;&quot;&gt;&amp;nbsp;172.16.140.64/28&lt;/font&gt;&lt;/span&gt;&lt;/p&gt;" style="text;html=1;strokeColor=none;fillColor=none;align=left;verticalAlign=middle;whiteSpace=wrap;rounded=0;dashed=1;horizontal=1;labelPosition=center;verticalLabelPosition=middle;fontSize=8;" parent="1" vertex="1">
          <mxGeometry x="610" y="380" width="100" height="33" as="geometry" />
        </mxCell>
        <mxCell id="FjssQyAybScEDL5SJHFA-5" value="" style="shape=image;verticalLabelPosition=bottom;verticalAlign=top;imageAspect=0;aspect=fixed;image=data:image/svg+xml,PHN2ZyB4bWxucz0iaHR0cDovL3d3dy53My5vcmcvMjAwMC9zdmciIHhtbG5zOnhsaW5rPSJodHRwOi8vd3d3LnczLm9yZy8xOTk5L3hsaW5rIiB2ZXJzaW9uPSIxLjEiIGlkPSJMYXllcl8xIiB4PSIwcHgiIHk9IjBweCIgdmlld0JveD0iMCAwIDQyIDQyIiBzdHlsZT0iZW5hYmxlLWJhY2tncm91bmQ6bmV3IDAgMCA0MiA0MjsiIHhtbDpzcGFjZT0icHJlc2VydmUiIHdpZHRoPSI0MiIgaGVpZ2h0PSI0MiI+JiN4YTs8Zz4mI3hhOwk8Zz4mI3hhOwkJPHJlY3QgeD0iMC41IiB5PSIwLjUiIHN0eWxlPSJmaWxsOiNGRkZGRkY7IiB3aWR0aD0iNDEiIGhlaWdodD0iNDEiLz4mI3hhOwkJPHBhdGggc3R5bGU9ImZpbGw6I0ZGRkZGRjsiIGQ9Ik00MSwxdjQwSDFWMUg0MSBNNDIsMGgtMUgxSDB2MXY0MHYxaDFoNDBoMXYtMVYxVjBMNDIsMHoiLz4mI3hhOwk8L2c+JiN4YTsJPGc+JiN4YTsJCTxwYXRoIHN0eWxlPSJmaWxsOiNCQjUwMUM7IiBkPSJNMSwxdjQwaDQwVjFIMXogTTM5LjUsMTMuOEgxMy42VjIuNWgyNS45VjEzLjh6IE0yLjUsMjguMmg5LjZ2MTEuNEgyLjVWMjguMnogTTEyLjEsMi41djExLjRIMi41JiMxMDsmIzk7JiM5OyYjOTtWMi41SDEyLjF6IE0xMi4xLDE1LjN2MTEuNEgyLjVWMTUuM0gxMi4xeiBNMTMuNiwzOS41VjI4LjJoMjUuOXYxMS40SDEzLjZ6IE0xMy42LDI2LjdWMTUuM2gyNS45djExLjRIMTMuNnoiLz4mI3hhOwkJPHBvbHlnb24gc3R5bGU9ImZpbGw6I0JCNTAxQzsiIHBvaW50cz0iMTUsMTIuMyAxNi43LDEyLjMgMTcuNiwxMC42IDE4LjUsMTIuMyAyMC4xLDEyLjMgMTguNiw5LjYgMjAsNy4xIDE4LjQsNy4xIDE3LjYsOC43ICYjMTA7JiM5OyYjOTsmIzk7MTYuNyw3LjEgMTUuMSw3LjEgMTYuNiw5LjYgJiM5OyYjOTsiLz4mI3hhOwkJPHJlY3QgeD0iMjAuOSIgeT0iMTEuMSIgc3R5bGU9ImZpbGw6I0JCNTAxQzsiIHdpZHRoPSIxLjQiIGhlaWdodD0iMS4yIi8+JiN4YTsJCTxwb2x5Z29uIHN0eWxlPSJmaWxsOiNCQjUwMUM7IiBwb2ludHM9IjI1LDEyLjMgMjUuOSwxMC42IDI2LjgsMTIuMyAyOC40LDEyLjMgMjYuOCw5LjYgMjguMyw3LjEgMjYuOCw3LjEgMjUuOSw4LjcgMjUsNy4xICYjMTA7JiM5OyYjOTsmIzk7MjMuNCw3LjEgMjQuOSw5LjYgMjMuNCwxMi4zICYjOTsmIzk7Ii8+JiN4YTsJCTxyZWN0IHg9IjI4LjkiIHk9IjExLjEiIHN0eWxlPSJmaWxsOiNCQjUwMUM7IiB3aWR0aD0iMS40IiBoZWlnaHQ9IjEuMiIvPiYjeGE7CQk8cG9seWdvbiBzdHlsZT0iZmlsbDojQkI1MDFDOyIgcG9pbnRzPSIzMi43LDEyLjMgMzMuNiwxMC42IDM0LjYsMTIuMyAzNi4xLDEyLjMgMzQuNiw5LjYgMzYsNy4xIDM0LjUsNy4xIDMzLjYsOC43IDMyLjcsNy4xICYjMTA7JiM5OyYjOTsmIzk7MzEuMiw3LjEgMzIuNiw5LjYgMzEuMSwxMi4zICYjOTsmIzk7Ii8+JiN4YTsJCTxyZWN0IHg9IjM2LjYiIHk9IjExLjEiIHN0eWxlPSJmaWxsOiNCQjUwMUM7IiB3aWR0aD0iMS40IiBoZWlnaHQ9IjEuMiIvPiYjeGE7CQk8cG9seWdvbiBzdHlsZT0iZmlsbDojQkI1MDFDOyIgcG9pbnRzPSIyMCwyMC4xIDE4LjQsMjAuMSAxNy42LDIxLjcgMTYuNywyMC4xIDE1LjEsMjAuMSAxNi42LDIyLjYgMTUsMjUuMyAxNi43LDI1LjMgMTcuNiwyMy42ICYjMTA7JiM5OyYjOTsmIzk7MTguNSwyNS4zIDIwLjEsMjUuMyAxOC42LDIyLjYgJiM5OyYjOTsiLz4mI3hhOwkJPHJlY3QgeD0iMjAuOSIgeT0iMjQiIHN0eWxlPSJmaWxsOiNCQjUwMUM7IiB3aWR0aD0iMS40IiBoZWlnaHQ9IjEuMiIvPiYjeGE7CQk8cG9seWdvbiBzdHlsZT0iZmlsbDojQkI1MDFDOyIgcG9pbnRzPSIyOC4zLDIwLjEgMjYuOCwyMC4xIDI1LjksMjEuNyAyNSwyMC4xIDIzLjQsMjAuMSAyNC45LDIyLjYgMjMuNCwyNS4zIDI1LDI1LjMgMjUuOSwyMy42ICYjMTA7JiM5OyYjOTsmIzk7MjYuOCwyNS4zIDI4LjQsMjUuMyAyNi44LDIyLjYgJiM5OyYjOTsiLz4mI3hhOwkJPHJlY3QgeD0iMjguOSIgeT0iMjQiIHN0eWxlPSJmaWxsOiNCQjUwMUM7IiB3aWR0aD0iMS40IiBoZWlnaHQ9IjEuMiIvPiYjeGE7CQk8cG9seWdvbiBzdHlsZT0iZmlsbDojQkI1MDFDOyIgcG9pbnRzPSIzNiwyMC4xIDM0LjUsMjAuMSAzMy42LDIxLjcgMzIuNywyMC4xIDMxLjIsMjAuMSAzMi42LDIyLjYgMzEuMSwyNS4zIDMyLjcsMjUuMyAmIzEwOyYjOTsmIzk7JiM5OzMzLjYsMjMuNiAzNC42LDI1LjMgMzYuMSwyNS4zIDM0LjYsMjIuNiAmIzk7JiM5OyIvPiYjeGE7CQk8cmVjdCB4PSIzNi42IiB5PSIyNCIgc3R5bGU9ImZpbGw6I0JCNTAxQzsiIHdpZHRoPSIxLjQiIGhlaWdodD0iMS4yIi8+JiN4YTsJCTxwb2x5Z29uIHN0eWxlPSJmaWxsOiNCQjUwMUM7IiBwb2ludHM9IjIwLDMyLjkgMTguNCwzMi45IDE3LjYsMzQuNCAxNi43LDMyLjkgMTUuMSwzMi45IDE2LjYsMzUuMyAxNSwzOCAxNi43LDM4IDE3LjYsMzYuMyAmIzEwOyYjOTsmIzk7JiM5OzE4LjUsMzggMjAuMSwzOCAxOC42LDM1LjQgJiM5OyYjOTsiLz4mI3hhOwkJPHJlY3QgeD0iMjAuOSIgeT0iMzYuOCIgc3R5bGU9ImZpbGw6I0JCNTAxQzsiIHdpZHRoPSIxLjQiIGhlaWdodD0iMS4yIi8+JiN4YTsJCTxwb2x5Z29uIHN0eWxlPSJmaWxsOiNCQjUwMUM7IiBwb2ludHM9IjI4LjMsMzIuOSAyNi44LDMyLjkgMjUuOSwzNC40IDI1LDMyLjkgMjMuNCwzMi45IDI0LjksMzUuMyAyMy40LDM4IDI1LDM4IDI1LjksMzYuMyAmIzEwOyYjOTsmIzk7JiM5OzI2LjgsMzggMjguNCwzOCAyNi44LDM1LjQgJiM5OyYjOTsiLz4mI3hhOwkJPHJlY3QgeD0iMjguOSIgeT0iMzYuOCIgc3R5bGU9ImZpbGw6I0JCNTAxQzsiIHdpZHRoPSIxLjQiIGhlaWdodD0iMS4yIi8+JiN4YTsJCTxwb2x5Z29uIHN0eWxlPSJmaWxsOiNCQjUwMUM7IiBwb2ludHM9IjM2LDMyLjkgMzQuNSwzMi45IDMzLjYsMzQuNCAzMi43LDMyLjkgMzEuMiwzMi45IDMyLjYsMzUuMyAzMS4xLDM4IDMyLjcsMzggMzMuNiwzNi4zICYjMTA7JiM5OyYjOTsmIzk7MzQuNiwzOCAzNi4xLDM4IDM0LjYsMzUuNCAmIzk7JiM5OyIvPiYjeGE7CQk8cmVjdCB4PSIzNi42IiB5PSIzNi44IiBzdHlsZT0iZmlsbDojQkI1MDFDOyIgd2lkdGg9IjEuNCIgaGVpZ2h0PSIxLjIiLz4mI3hhOwk8L2c+JiN4YTs8L2c+JiN4YTs8L3N2Zz4=;dashed=1;fontSize=6;fontColor=#B3B3B3;strokeColor=#999999;strokeWidth=2;fillColor=#F5F4F2;opacity=50;" parent="1" vertex="1">
          <mxGeometry x="502" y="389.64" width="32" height="32" as="geometry" />
        </mxCell>
        <mxCell id="FjssQyAybScEDL5SJHFA-6" value="" style="shape=image;verticalLabelPosition=bottom;verticalAlign=top;imageAspect=0;aspect=fixed;image=data:image/svg+xml,PHN2ZyB4bWxucz0iaHR0cDovL3d3dy53My5vcmcvMjAwMC9zdmciIHhtbG5zOnhsaW5rPSJodHRwOi8vd3d3LnczLm9yZy8xOTk5L3hsaW5rIiB2ZXJzaW9uPSIxLjEiIGlkPSJMYXllcl8xIiB4PSIwcHgiIHk9IjBweCIgdmlld0JveD0iMCAwIDQyIDQyIiBzdHlsZT0iZW5hYmxlLWJhY2tncm91bmQ6bmV3IDAgMCA0MiA0MjsiIHhtbDpzcGFjZT0icHJlc2VydmUiIHdpZHRoPSI0MiIgaGVpZ2h0PSI0MiI+JiN4YTs8Zz4mI3hhOwk8Zz4mI3hhOwkJPHJlY3QgeD0iMC41IiB5PSIwLjUiIHN0eWxlPSJmaWxsOiNGRkZGRkY7IiB3aWR0aD0iNDEiIGhlaWdodD0iNDEiLz4mI3hhOwkJPHBhdGggc3R5bGU9ImZpbGw6I0ZGRkZGRjsiIGQ9Ik00MSwxdjQwSDFWMUg0MSBNNDIsMGgtMUgxSDB2MXY0MHYxaDFoNDBoMXYtMVYxVjBMNDIsMHoiLz4mI3hhOwk8L2c+JiN4YTsJPGc+JiN4YTsJCTxwYXRoIHN0eWxlPSJmaWxsOiNCQjUwMUM7IiBkPSJNMSwxdjQwaDQwVjFIMXogTTM5LjUsMTMuOEgxMy42VjIuNWgyNS45VjEzLjh6IE0yLjUsMjguMmg5LjZ2MTEuNEgyLjVWMjguMnogTTEyLjEsMi41djExLjRIMi41JiMxMDsmIzk7JiM5OyYjOTtWMi41SDEyLjF6IE0xMi4xLDE1LjN2MTEuNEgyLjVWMTUuM0gxMi4xeiBNMTMuNiwzOS41VjI4LjJoMjUuOXYxMS40SDEzLjZ6IE0xMy42LDI2LjdWMTUuM2gyNS45djExLjRIMTMuNnoiLz4mI3hhOwkJPHBvbHlnb24gc3R5bGU9ImZpbGw6I0JCNTAxQzsiIHBvaW50cz0iMTUsMTIuMyAxNi43LDEyLjMgMTcuNiwxMC42IDE4LjUsMTIuMyAyMC4xLDEyLjMgMTguNiw5LjYgMjAsNy4xIDE4LjQsNy4xIDE3LjYsOC43ICYjMTA7JiM5OyYjOTsmIzk7MTYuNyw3LjEgMTUuMSw3LjEgMTYuNiw5LjYgJiM5OyYjOTsiLz4mI3hhOwkJPHJlY3QgeD0iMjAuOSIgeT0iMTEuMSIgc3R5bGU9ImZpbGw6I0JCNTAxQzsiIHdpZHRoPSIxLjQiIGhlaWdodD0iMS4yIi8+JiN4YTsJCTxwb2x5Z29uIHN0eWxlPSJmaWxsOiNCQjUwMUM7IiBwb2ludHM9IjI1LDEyLjMgMjUuOSwxMC42IDI2LjgsMTIuMyAyOC40LDEyLjMgMjYuOCw5LjYgMjguMyw3LjEgMjYuOCw3LjEgMjUuOSw4LjcgMjUsNy4xICYjMTA7JiM5OyYjOTsmIzk7MjMuNCw3LjEgMjQuOSw5LjYgMjMuNCwxMi4zICYjOTsmIzk7Ii8+JiN4YTsJCTxyZWN0IHg9IjI4LjkiIHk9IjExLjEiIHN0eWxlPSJmaWxsOiNCQjUwMUM7IiB3aWR0aD0iMS40IiBoZWlnaHQ9IjEuMiIvPiYjeGE7CQk8cG9seWdvbiBzdHlsZT0iZmlsbDojQkI1MDFDOyIgcG9pbnRzPSIzMi43LDEyLjMgMzMuNiwxMC42IDM0LjYsMTIuMyAzNi4xLDEyLjMgMzQuNiw5LjYgMzYsNy4xIDM0LjUsNy4xIDMzLjYsOC43IDMyLjcsNy4xICYjMTA7JiM5OyYjOTsmIzk7MzEuMiw3LjEgMzIuNiw5LjYgMzEuMSwxMi4zICYjOTsmIzk7Ii8+JiN4YTsJCTxyZWN0IHg9IjM2LjYiIHk9IjExLjEiIHN0eWxlPSJmaWxsOiNCQjUwMUM7IiB3aWR0aD0iMS40IiBoZWlnaHQ9IjEuMiIvPiYjeGE7CQk8cG9seWdvbiBzdHlsZT0iZmlsbDojQkI1MDFDOyIgcG9pbnRzPSIyMCwyMC4xIDE4LjQsMjAuMSAxNy42LDIxLjcgMTYuNywyMC4xIDE1LjEsMjAuMSAxNi42LDIyLjYgMTUsMjUuMyAxNi43LDI1LjMgMTcuNiwyMy42ICYjMTA7JiM5OyYjOTsmIzk7MTguNSwyNS4zIDIwLjEsMjUuMyAxOC42LDIyLjYgJiM5OyYjOTsiLz4mI3hhOwkJPHJlY3QgeD0iMjAuOSIgeT0iMjQiIHN0eWxlPSJmaWxsOiNCQjUwMUM7IiB3aWR0aD0iMS40IiBoZWlnaHQ9IjEuMiIvPiYjeGE7CQk8cG9seWdvbiBzdHlsZT0iZmlsbDojQkI1MDFDOyIgcG9pbnRzPSIyOC4zLDIwLjEgMjYuOCwyMC4xIDI1LjksMjEuNyAyNSwyMC4xIDIzLjQsMjAuMSAyNC45LDIyLjYgMjMuNCwyNS4zIDI1LDI1LjMgMjUuOSwyMy42ICYjMTA7JiM5OyYjOTsmIzk7MjYuOCwyNS4zIDI4LjQsMjUuMyAyNi44LDIyLjYgJiM5OyYjOTsiLz4mI3hhOwkJPHJlY3QgeD0iMjguOSIgeT0iMjQiIHN0eWxlPSJmaWxsOiNCQjUwMUM7IiB3aWR0aD0iMS40IiBoZWlnaHQ9IjEuMiIvPiYjeGE7CQk8cG9seWdvbiBzdHlsZT0iZmlsbDojQkI1MDFDOyIgcG9pbnRzPSIzNiwyMC4xIDM0LjUsMjAuMSAzMy42LDIxLjcgMzIuNywyMC4xIDMxLjIsMjAuMSAzMi42LDIyLjYgMzEuMSwyNS4zIDMyLjcsMjUuMyAmIzEwOyYjOTsmIzk7JiM5OzMzLjYsMjMuNiAzNC42LDI1LjMgMzYuMSwyNS4zIDM0LjYsMjIuNiAmIzk7JiM5OyIvPiYjeGE7CQk8cmVjdCB4PSIzNi42IiB5PSIyNCIgc3R5bGU9ImZpbGw6I0JCNTAxQzsiIHdpZHRoPSIxLjQiIGhlaWdodD0iMS4yIi8+JiN4YTsJCTxwb2x5Z29uIHN0eWxlPSJmaWxsOiNCQjUwMUM7IiBwb2ludHM9IjIwLDMyLjkgMTguNCwzMi45IDE3LjYsMzQuNCAxNi43LDMyLjkgMTUuMSwzMi45IDE2LjYsMzUuMyAxNSwzOCAxNi43LDM4IDE3LjYsMzYuMyAmIzEwOyYjOTsmIzk7JiM5OzE4LjUsMzggMjAuMSwzOCAxOC42LDM1LjQgJiM5OyYjOTsiLz4mI3hhOwkJPHJlY3QgeD0iMjAuOSIgeT0iMzYuOCIgc3R5bGU9ImZpbGw6I0JCNTAxQzsiIHdpZHRoPSIxLjQiIGhlaWdodD0iMS4yIi8+JiN4YTsJCTxwb2x5Z29uIHN0eWxlPSJmaWxsOiNCQjUwMUM7IiBwb2ludHM9IjI4LjMsMzIuOSAyNi44LDMyLjkgMjUuOSwzNC40IDI1LDMyLjkgMjMuNCwzMi45IDI0LjksMzUuMyAyMy40LDM4IDI1LDM4IDI1LjksMzYuMyAmIzEwOyYjOTsmIzk7JiM5OzI2LjgsMzggMjguNCwzOCAyNi44LDM1LjQgJiM5OyYjOTsiLz4mI3hhOwkJPHJlY3QgeD0iMjguOSIgeT0iMzYuOCIgc3R5bGU9ImZpbGw6I0JCNTAxQzsiIHdpZHRoPSIxLjQiIGhlaWdodD0iMS4yIi8+JiN4YTsJCTxwb2x5Z29uIHN0eWxlPSJmaWxsOiNCQjUwMUM7IiBwb2ludHM9IjM2LDMyLjkgMzQuNSwzMi45IDMzLjYsMzQuNCAzMi43LDMyLjkgMzEuMiwzMi45IDMyLjYsMzUuMyAzMS4xLDM4IDMyLjcsMzggMzMuNiwzNi4zICYjMTA7JiM5OyYjOTsmIzk7MzQuNiwzOCAzNi4xLDM4IDM0LjYsMzUuNCAmIzk7JiM5OyIvPiYjeGE7CQk8cmVjdCB4PSIzNi42IiB5PSIzNi44IiBzdHlsZT0iZmlsbDojQkI1MDFDOyIgd2lkdGg9IjEuNCIgaGVpZ2h0PSIxLjIiLz4mI3hhOwk8L2c+JiN4YTs8L2c+JiN4YTs8L3N2Zz4=;dashed=1;fontSize=6;fontColor=#B3B3B3;strokeColor=#999999;strokeWidth=2;fillColor=#F5F4F2;opacity=50;" parent="1" vertex="1">
          <mxGeometry x="900" y="394" width="18" height="18" as="geometry" />
        </mxCell>
        <mxCell id="FjssQyAybScEDL5SJHFA-7" value="" style="shape=image;verticalLabelPosition=bottom;verticalAlign=top;imageAspect=0;aspect=fixed;image=data:image/svg+xml,PHN2ZyB4bWxucz0iaHR0cDovL3d3dy53My5vcmcvMjAwMC9zdmciIHhtbG5zOnhsaW5rPSJodHRwOi8vd3d3LnczLm9yZy8xOTk5L3hsaW5rIiB2ZXJzaW9uPSIxLjEiIGlkPSJMYXllcl8xIiB4PSIwcHgiIHk9IjBweCIgdmlld0JveD0iMCAwIDQyIDQyIiBzdHlsZT0iZW5hYmxlLWJhY2tncm91bmQ6bmV3IDAgMCA0MiA0MjsiIHhtbDpzcGFjZT0icHJlc2VydmUiIHdpZHRoPSI0MiIgaGVpZ2h0PSI0MiI+JiN4YTs8Zz4mI3hhOwk8Zz4mI3hhOwkJPHJlY3QgeD0iMC41IiB5PSIwLjUiIHN0eWxlPSJmaWxsOiNGRkZGRkY7IiB3aWR0aD0iNDEiIGhlaWdodD0iNDEiLz4mI3hhOwkJPHBhdGggc3R5bGU9ImZpbGw6I0ZGRkZGRjsiIGQ9Ik00MSwxdjQwSDFWMUg0MSBNNDIsMGgtMUgxSDB2MXY0MHYxaDFoNDBoMXYtMVYxVjBMNDIsMHoiLz4mI3hhOwk8L2c+JiN4YTsJPGc+JiN4YTsJCTxwYXRoIHN0eWxlPSJmaWxsOiNCQjUwMUM7IiBkPSJNMSwxdjQwaDQwVjFIMXogTTM5LjUsMTMuOEgxMy42VjIuNWgyNS45VjEzLjh6IE0yLjUsMjguMmg5LjZ2MTEuNEgyLjVWMjguMnogTTEyLjEsMi41djExLjRIMi41JiMxMDsmIzk7JiM5OyYjOTtWMi41SDEyLjF6IE0xMi4xLDE1LjN2MTEuNEgyLjVWMTUuM0gxMi4xeiBNMTMuNiwzOS41VjI4LjJoMjUuOXYxMS40SDEzLjZ6IE0xMy42LDI2LjdWMTUuM2gyNS45djExLjRIMTMuNnoiLz4mI3hhOwkJPHBvbHlnb24gc3R5bGU9ImZpbGw6I0JCNTAxQzsiIHBvaW50cz0iMTUsMTIuMyAxNi43LDEyLjMgMTcuNiwxMC42IDE4LjUsMTIuMyAyMC4xLDEyLjMgMTguNiw5LjYgMjAsNy4xIDE4LjQsNy4xIDE3LjYsOC43ICYjMTA7JiM5OyYjOTsmIzk7MTYuNyw3LjEgMTUuMSw3LjEgMTYuNiw5LjYgJiM5OyYjOTsiLz4mI3hhOwkJPHJlY3QgeD0iMjAuOSIgeT0iMTEuMSIgc3R5bGU9ImZpbGw6I0JCNTAxQzsiIHdpZHRoPSIxLjQiIGhlaWdodD0iMS4yIi8+JiN4YTsJCTxwb2x5Z29uIHN0eWxlPSJmaWxsOiNCQjUwMUM7IiBwb2ludHM9IjI1LDEyLjMgMjUuOSwxMC42IDI2LjgsMTIuMyAyOC40LDEyLjMgMjYuOCw5LjYgMjguMyw3LjEgMjYuOCw3LjEgMjUuOSw4LjcgMjUsNy4xICYjMTA7JiM5OyYjOTsmIzk7MjMuNCw3LjEgMjQuOSw5LjYgMjMuNCwxMi4zICYjOTsmIzk7Ii8+JiN4YTsJCTxyZWN0IHg9IjI4LjkiIHk9IjExLjEiIHN0eWxlPSJmaWxsOiNCQjUwMUM7IiB3aWR0aD0iMS40IiBoZWlnaHQ9IjEuMiIvPiYjeGE7CQk8cG9seWdvbiBzdHlsZT0iZmlsbDojQkI1MDFDOyIgcG9pbnRzPSIzMi43LDEyLjMgMzMuNiwxMC42IDM0LjYsMTIuMyAzNi4xLDEyLjMgMzQuNiw5LjYgMzYsNy4xIDM0LjUsNy4xIDMzLjYsOC43IDMyLjcsNy4xICYjMTA7JiM5OyYjOTsmIzk7MzEuMiw3LjEgMzIuNiw5LjYgMzEuMSwxMi4zICYjOTsmIzk7Ii8+JiN4YTsJCTxyZWN0IHg9IjM2LjYiIHk9IjExLjEiIHN0eWxlPSJmaWxsOiNCQjUwMUM7IiB3aWR0aD0iMS40IiBoZWlnaHQ9IjEuMiIvPiYjeGE7CQk8cG9seWdvbiBzdHlsZT0iZmlsbDojQkI1MDFDOyIgcG9pbnRzPSIyMCwyMC4xIDE4LjQsMjAuMSAxNy42LDIxLjcgMTYuNywyMC4xIDE1LjEsMjAuMSAxNi42LDIyLjYgMTUsMjUuMyAxNi43LDI1LjMgMTcuNiwyMy42ICYjMTA7JiM5OyYjOTsmIzk7MTguNSwyNS4zIDIwLjEsMjUuMyAxOC42LDIyLjYgJiM5OyYjOTsiLz4mI3hhOwkJPHJlY3QgeD0iMjAuOSIgeT0iMjQiIHN0eWxlPSJmaWxsOiNCQjUwMUM7IiB3aWR0aD0iMS40IiBoZWlnaHQ9IjEuMiIvPiYjeGE7CQk8cG9seWdvbiBzdHlsZT0iZmlsbDojQkI1MDFDOyIgcG9pbnRzPSIyOC4zLDIwLjEgMjYuOCwyMC4xIDI1LjksMjEuNyAyNSwyMC4xIDIzLjQsMjAuMSAyNC45LDIyLjYgMjMuNCwyNS4zIDI1LDI1LjMgMjUuOSwyMy42ICYjMTA7JiM5OyYjOTsmIzk7MjYuOCwyNS4zIDI4LjQsMjUuMyAyNi44LDIyLjYgJiM5OyYjOTsiLz4mI3hhOwkJPHJlY3QgeD0iMjguOSIgeT0iMjQiIHN0eWxlPSJmaWxsOiNCQjUwMUM7IiB3aWR0aD0iMS40IiBoZWlnaHQ9IjEuMiIvPiYjeGE7CQk8cG9seWdvbiBzdHlsZT0iZmlsbDojQkI1MDFDOyIgcG9pbnRzPSIzNiwyMC4xIDM0LjUsMjAuMSAzMy42LDIxLjcgMzIuNywyMC4xIDMxLjIsMjAuMSAzMi42LDIyLjYgMzEuMSwyNS4zIDMyLjcsMjUuMyAmIzEwOyYjOTsmIzk7JiM5OzMzLjYsMjMuNiAzNC42LDI1LjMgMzYuMSwyNS4zIDM0LjYsMjIuNiAmIzk7JiM5OyIvPiYjeGE7CQk8cmVjdCB4PSIzNi42IiB5PSIyNCIgc3R5bGU9ImZpbGw6I0JCNTAxQzsiIHdpZHRoPSIxLjQiIGhlaWdodD0iMS4yIi8+JiN4YTsJCTxwb2x5Z29uIHN0eWxlPSJmaWxsOiNCQjUwMUM7IiBwb2ludHM9IjIwLDMyLjkgMTguNCwzMi45IDE3LjYsMzQuNCAxNi43LDMyLjkgMTUuMSwzMi45IDE2LjYsMzUuMyAxNSwzOCAxNi43LDM4IDE3LjYsMzYuMyAmIzEwOyYjOTsmIzk7JiM5OzE4LjUsMzggMjAuMSwzOCAxOC42LDM1LjQgJiM5OyYjOTsiLz4mI3hhOwkJPHJlY3QgeD0iMjAuOSIgeT0iMzYuOCIgc3R5bGU9ImZpbGw6I0JCNTAxQzsiIHdpZHRoPSIxLjQiIGhlaWdodD0iMS4yIi8+JiN4YTsJCTxwb2x5Z29uIHN0eWxlPSJmaWxsOiNCQjUwMUM7IiBwb2ludHM9IjI4LjMsMzIuOSAyNi44LDMyLjkgMjUuOSwzNC40IDI1LDMyLjkgMjMuNCwzMi45IDI0LjksMzUuMyAyMy40LDM4IDI1LDM4IDI1LjksMzYuMyAmIzEwOyYjOTsmIzk7JiM5OzI2LjgsMzggMjguNCwzOCAyNi44LDM1LjQgJiM5OyYjOTsiLz4mI3hhOwkJPHJlY3QgeD0iMjguOSIgeT0iMzYuOCIgc3R5bGU9ImZpbGw6I0JCNTAxQzsiIHdpZHRoPSIxLjQiIGhlaWdodD0iMS4yIi8+JiN4YTsJCTxwb2x5Z29uIHN0eWxlPSJmaWxsOiNCQjUwMUM7IiBwb2ludHM9IjM2LDMyLjkgMzQuNSwzMi45IDMzLjYsMzQuNCAzMi43LDMyLjkgMzEuMiwzMi45IDMyLjYsMzUuMyAzMS4xLDM4IDMyLjcsMzggMzMuNiwzNi4zICYjMTA7JiM5OyYjOTsmIzk7MzQuNiwzOCAzNi4xLDM4IDM0LjYsMzUuNCAmIzk7JiM5OyIvPiYjeGE7CQk8cmVjdCB4PSIzNi42IiB5PSIzNi44IiBzdHlsZT0iZmlsbDojQkI1MDFDOyIgd2lkdGg9IjEuNCIgaGVpZ2h0PSIxLjIiLz4mI3hhOwk8L2c+JiN4YTs8L2c+JiN4YTs8L3N2Zz4=;dashed=1;fontSize=6;fontColor=#B3B3B3;strokeColor=#999999;strokeWidth=2;fillColor=#F5F4F2;opacity=50;" parent="1" vertex="1">
          <mxGeometry x="900" y="300" width="18" height="18" as="geometry" />
        </mxCell>
        <mxCell id="FjssQyAybScEDL5SJHFA-8" value="" style="shape=image;verticalLabelPosition=bottom;verticalAlign=top;imageAspect=0;aspect=fixed;image=data:image/svg+xml,PHN2ZyB4bWxucz0iaHR0cDovL3d3dy53My5vcmcvMjAwMC9zdmciIHhtbG5zOnhsaW5rPSJodHRwOi8vd3d3LnczLm9yZy8xOTk5L3hsaW5rIiB2ZXJzaW9uPSIxLjEiIGlkPSJMYXllcl8xIiB4PSIwcHgiIHk9IjBweCIgdmlld0JveD0iMCAwIDQyIDQyIiBzdHlsZT0iZW5hYmxlLWJhY2tncm91bmQ6bmV3IDAgMCA0MiA0MjsiIHhtbDpzcGFjZT0icHJlc2VydmUiIHdpZHRoPSI0MiIgaGVpZ2h0PSI0MiI+JiN4YTs8Zz4mI3hhOwk8Zz4mI3hhOwkJPHJlY3QgeD0iMC41IiB5PSIwLjUiIHN0eWxlPSJmaWxsOiNGRkZGRkY7IiB3aWR0aD0iNDEiIGhlaWdodD0iNDEiLz4mI3hhOwkJPHBhdGggc3R5bGU9ImZpbGw6I0ZGRkZGRjsiIGQ9Ik00MSwxdjQwSDFWMUg0MSBNNDIsMGgtMUgxSDB2MXY0MHYxaDFoNDBoMXYtMVYxVjBMNDIsMHoiLz4mI3hhOwk8L2c+JiN4YTsJPGc+JiN4YTsJCTxwYXRoIHN0eWxlPSJmaWxsOiNCQjUwMUM7IiBkPSJNMSwxdjQwaDQwVjFIMXogTTM5LjUsMTMuOEgxMy42VjIuNWgyNS45VjEzLjh6IE0yLjUsMjguMmg5LjZ2MTEuNEgyLjVWMjguMnogTTEyLjEsMi41djExLjRIMi41JiMxMDsmIzk7JiM5OyYjOTtWMi41SDEyLjF6IE0xMi4xLDE1LjN2MTEuNEgyLjVWMTUuM0gxMi4xeiBNMTMuNiwzOS41VjI4LjJoMjUuOXYxMS40SDEzLjZ6IE0xMy42LDI2LjdWMTUuM2gyNS45djExLjRIMTMuNnoiLz4mI3hhOwkJPHBvbHlnb24gc3R5bGU9ImZpbGw6I0JCNTAxQzsiIHBvaW50cz0iMTUsMTIuMyAxNi43LDEyLjMgMTcuNiwxMC42IDE4LjUsMTIuMyAyMC4xLDEyLjMgMTguNiw5LjYgMjAsNy4xIDE4LjQsNy4xIDE3LjYsOC43ICYjMTA7JiM5OyYjOTsmIzk7MTYuNyw3LjEgMTUuMSw3LjEgMTYuNiw5LjYgJiM5OyYjOTsiLz4mI3hhOwkJPHJlY3QgeD0iMjAuOSIgeT0iMTEuMSIgc3R5bGU9ImZpbGw6I0JCNTAxQzsiIHdpZHRoPSIxLjQiIGhlaWdodD0iMS4yIi8+JiN4YTsJCTxwb2x5Z29uIHN0eWxlPSJmaWxsOiNCQjUwMUM7IiBwb2ludHM9IjI1LDEyLjMgMjUuOSwxMC42IDI2LjgsMTIuMyAyOC40LDEyLjMgMjYuOCw5LjYgMjguMyw3LjEgMjYuOCw3LjEgMjUuOSw4LjcgMjUsNy4xICYjMTA7JiM5OyYjOTsmIzk7MjMuNCw3LjEgMjQuOSw5LjYgMjMuNCwxMi4zICYjOTsmIzk7Ii8+JiN4YTsJCTxyZWN0IHg9IjI4LjkiIHk9IjExLjEiIHN0eWxlPSJmaWxsOiNCQjUwMUM7IiB3aWR0aD0iMS40IiBoZWlnaHQ9IjEuMiIvPiYjeGE7CQk8cG9seWdvbiBzdHlsZT0iZmlsbDojQkI1MDFDOyIgcG9pbnRzPSIzMi43LDEyLjMgMzMuNiwxMC42IDM0LjYsMTIuMyAzNi4xLDEyLjMgMzQuNiw5LjYgMzYsNy4xIDM0LjUsNy4xIDMzLjYsOC43IDMyLjcsNy4xICYjMTA7JiM5OyYjOTsmIzk7MzEuMiw3LjEgMzIuNiw5LjYgMzEuMSwxMi4zICYjOTsmIzk7Ii8+JiN4YTsJCTxyZWN0IHg9IjM2LjYiIHk9IjExLjEiIHN0eWxlPSJmaWxsOiNCQjUwMUM7IiB3aWR0aD0iMS40IiBoZWlnaHQ9IjEuMiIvPiYjeGE7CQk8cG9seWdvbiBzdHlsZT0iZmlsbDojQkI1MDFDOyIgcG9pbnRzPSIyMCwyMC4xIDE4LjQsMjAuMSAxNy42LDIxLjcgMTYuNywyMC4xIDE1LjEsMjAuMSAxNi42LDIyLjYgMTUsMjUuMyAxNi43LDI1LjMgMTcuNiwyMy42ICYjMTA7JiM5OyYjOTsmIzk7MTguNSwyNS4zIDIwLjEsMjUuMyAxOC42LDIyLjYgJiM5OyYjOTsiLz4mI3hhOwkJPHJlY3QgeD0iMjAuOSIgeT0iMjQiIHN0eWxlPSJmaWxsOiNCQjUwMUM7IiB3aWR0aD0iMS40IiBoZWlnaHQ9IjEuMiIvPiYjeGE7CQk8cG9seWdvbiBzdHlsZT0iZmlsbDojQkI1MDFDOyIgcG9pbnRzPSIyOC4zLDIwLjEgMjYuOCwyMC4xIDI1LjksMjEuNyAyNSwyMC4xIDIzLjQsMjAuMSAyNC45LDIyLjYgMjMuNCwyNS4zIDI1LDI1LjMgMjUuOSwyMy42ICYjMTA7JiM5OyYjOTsmIzk7MjYuOCwyNS4zIDI4LjQsMjUuMyAyNi44LDIyLjYgJiM5OyYjOTsiLz4mI3hhOwkJPHJlY3QgeD0iMjguOSIgeT0iMjQiIHN0eWxlPSJmaWxsOiNCQjUwMUM7IiB3aWR0aD0iMS40IiBoZWlnaHQ9IjEuMiIvPiYjeGE7CQk8cG9seWdvbiBzdHlsZT0iZmlsbDojQkI1MDFDOyIgcG9pbnRzPSIzNiwyMC4xIDM0LjUsMjAuMSAzMy42LDIxLjcgMzIuNywyMC4xIDMxLjIsMjAuMSAzMi42LDIyLjYgMzEuMSwyNS4zIDMyLjcsMjUuMyAmIzEwOyYjOTsmIzk7JiM5OzMzLjYsMjMuNiAzNC42LDI1LjMgMzYuMSwyNS4zIDM0LjYsMjIuNiAmIzk7JiM5OyIvPiYjeGE7CQk8cmVjdCB4PSIzNi42IiB5PSIyNCIgc3R5bGU9ImZpbGw6I0JCNTAxQzsiIHdpZHRoPSIxLjQiIGhlaWdodD0iMS4yIi8+JiN4YTsJCTxwb2x5Z29uIHN0eWxlPSJmaWxsOiNCQjUwMUM7IiBwb2ludHM9IjIwLDMyLjkgMTguNCwzMi45IDE3LjYsMzQuNCAxNi43LDMyLjkgMTUuMSwzMi45IDE2LjYsMzUuMyAxNSwzOCAxNi43LDM4IDE3LjYsMzYuMyAmIzEwOyYjOTsmIzk7JiM5OzE4LjUsMzggMjAuMSwzOCAxOC42LDM1LjQgJiM5OyYjOTsiLz4mI3hhOwkJPHJlY3QgeD0iMjAuOSIgeT0iMzYuOCIgc3R5bGU9ImZpbGw6I0JCNTAxQzsiIHdpZHRoPSIxLjQiIGhlaWdodD0iMS4yIi8+JiN4YTsJCTxwb2x5Z29uIHN0eWxlPSJmaWxsOiNCQjUwMUM7IiBwb2ludHM9IjI4LjMsMzIuOSAyNi44LDMyLjkgMjUuOSwzNC40IDI1LDMyLjkgMjMuNCwzMi45IDI0LjksMzUuMyAyMy40LDM4IDI1LDM4IDI1LjksMzYuMyAmIzEwOyYjOTsmIzk7JiM5OzI2LjgsMzggMjguNCwzOCAyNi44LDM1LjQgJiM5OyYjOTsiLz4mI3hhOwkJPHJlY3QgeD0iMjguOSIgeT0iMzYuOCIgc3R5bGU9ImZpbGw6I0JCNTAxQzsiIHdpZHRoPSIxLjQiIGhlaWdodD0iMS4yIi8+JiN4YTsJCTxwb2x5Z29uIHN0eWxlPSJmaWxsOiNCQjUwMUM7IiBwb2ludHM9IjM2LDMyLjkgMzQuNSwzMi45IDMzLjYsMzQuNCAzMi43LDMyLjkgMzEuMiwzMi45IDMyLjYsMzUuMyAzMS4xLDM4IDMyLjcsMzggMzMuNiwzNi4zICYjMTA7JiM5OyYjOTsmIzk7MzQuNiwzOCAzNi4xLDM4IDM0LjYsMzUuNCAmIzk7JiM5OyIvPiYjeGE7CQk8cmVjdCB4PSIzNi42IiB5PSIzNi44IiBzdHlsZT0iZmlsbDojQkI1MDFDOyIgd2lkdGg9IjEuNCIgaGVpZ2h0PSIxLjIiLz4mI3hhOwk8L2c+JiN4YTs8L2c+JiN4YTs8L3N2Zz4=;dashed=1;fontSize=6;fontColor=#B3B3B3;strokeColor=#999999;strokeWidth=2;fillColor=#F5F4F2;opacity=50;" parent="1" vertex="1">
          <mxGeometry x="900" y="250" width="18" height="18" as="geometry" />
        </mxCell>
        <mxCell id="uOZhX-TPZ1sE4wuiPjbx-4" value="&amp;nbsp;&lt;font color=&quot;#ae562c&quot;&gt;OCI Region&lt;/font&gt;&lt;br&gt;" style="text;html=1;strokeColor=none;fillColor=none;align=left;verticalAlign=top;whiteSpace=wrap;rounded=0;dashed=1;" parent="1" vertex="1">
          <mxGeometry x="460" y="160" width="100" height="40" as="geometry" />
        </mxCell>
        <mxCell id="WUFahq7_LJD4w8yk8aUv-2" value="Internet Gateway" style="shape=image;verticalLabelPosition=bottom;verticalAlign=top;imageAspect=0;aspect=fixed;image=data:image/svg+xml,PHN2ZyB4bWxucz0iaHR0cDovL3d3dy53My5vcmcvMjAwMC9zdmciIHhtbG5zOnhsaW5rPSJodHRwOi8vd3d3LnczLm9yZy8xOTk5L3hsaW5rIiB2ZXJzaW9uPSIxLjEiIGlkPSJMYXllcl8xIiB4PSIwcHgiIHk9IjBweCIgdmlld0JveD0iMCAwIDI3LjczODQyODExNTg0NDcyNyA0MiIgc3R5bGU9ImVuYWJsZS1iYWNrZ3JvdW5kOm5ldyAwIDAgMjcuNzQgNDI7IiB4bWw6c3BhY2U9InByZXNlcnZlIiB3aWR0aD0iMjcuNzM4NDI4MTE1ODQ0NzI3IiBoZWlnaHQ9IjQyIj4mI3hhOzxzdHlsZSB0eXBlPSJ0ZXh0L2NzcyI+JiN4YTsJLnN0MHtmaWxsOiNGRkZGRkY7fSYjeGE7CS5zdDF7ZmlsbDojMkM1OTY3O30mI3hhOzwvc3R5bGU+JiN4YTs8Zz4mI3hhOwk8Zz4mI3hhOwkJPHBhdGggY2xhc3M9InN0MCIgZD0iTTEzLjkxLDQxLjVjLTUuNjQsMC0xMC4yMi00LjU5LTEwLjIyLTEwLjIyYzAtNS4xNiwzLjkxLTkuNTMsOC45OS0xMC4xNHYtMy4xMmwtMS4xLDEuMDlsLTEuNzUtMS43NiYjMTA7JiM5OyYjOTsmIzk7bDIuODEtMi44SDAuNTRsMC4xLTEuMzNjMC4xNy0yLjMxLDEuNS00LjM0LDMuNTUtNS40MkM0LjUsNy42Myw0LjcyLDcuMzQsNC43OCw3YzAuMzMtMS42NywxLjQ1LTMuMDcsMy0zLjc1JiMxMDsmIzk7JiM5OyYjOTtjMC42NS0wLjI5LDEuMzctMC40NCwyLjA4LTAuNDRjMC4xNiwwLDAuMzIsMC4wMSwwLjQ4LDAuMDJjMC4wNCwwLDAuMDcsMC4wMSwwLjExLDAuMDFjMC4zMSwwLDAuNTgtMC4xMiwwLjc4LTAuMzMmIzEwOyYjOTsmIzk7JiM5O2MxLjE4LTEuMjgsMi44NS0yLjAxLDQuNTktMi4wMWMyLjM5LDAsNC41MywxLjMzLDUuNiwzLjQ3YzAuMTYsMC4zMiwwLjQ1LDAuNTQsMC44LDAuNjJjMC43MiwwLjE2LDEuNCwwLjQ0LDIuMDMsMC44NCYjMTA7JiM5OyYjOTsmIzk7YzIuODMsMS43OSwzLjgxLDUuNTEsMi4yMiw4LjQ2bC0wLjM1LDAuNjVIMTUuMTlsMi44MSwyLjhsLTEuNzUsMS43NmwtMS4xLTEuMDl2My4xMmM1LjA3LDAuNjIsOC45Nyw0Ljk5LDguOTcsMTAuMTQmIzEwOyYjOTsmIzk7JiM5O0MyNC4xMywzNi45MSwxOS41NSw0MS41LDEzLjkxLDQxLjV6Ii8+JiN4YTsJCTxwYXRoIGNsYXNzPSJzdDAiIGQ9Ik0xNS44MywxYzIuMiwwLDQuMTcsMS4yMyw1LjE1LDMuMmMwLjIzLDAuNDUsMC42NCwwLjc4LDEuMTQsMC44OWMwLjY2LDAuMTUsMS4yOSwwLjQxLDEuODcsMC43NyYjMTA7JiM5OyYjOTsmIzk7YzIuNjEsMS42NSwzLjUxLDUuMDgsMi4wNSw3LjhsLTAuMjEsMC4zOUgxNC4zNGMtMC4xMywwLTAuMjUtMC4wMS0wLjM4LTAuMDJsMy4zNCwzLjMybC0xLjA1LDEuMDVsLTEuNTktMS41OXYzLjQ0djEuMzMmIzEwOyYjOTsmIzk7JiM5O2M1LjAxLDAuMzgsOC45OCw0LjU4LDguOTgsOS42OWMwLDUuMzYtNC4zNiw5LjcyLTkuNzIsOS43MmMtNS4zNiwwLTkuNzItNC4zNi05LjcyLTkuNzJjMC01LjExLDMuOTctOS4zMSw4Ljk5LTkuNjl2LTEuMzN2LTMuNDQmIzEwOyYjOTsmIzk7JiM5O2wtMS41OSwxLjU5bC0xLjA1LTEuMDVsMy4zMi0zLjNINC4zOUgxLjA4bDAuMDYtMC44YzAuMTYtMi4xNCwxLjM5LTQuMDEsMy4yOC01LjAxQzQuODcsOCw1LjE4LDcuNTksNS4yNyw3LjEmIzEwOyYjOTsmIzk7JiM5O2MwLjMtMS41MSwxLjMxLTIuNzcsMi43MS0zLjM5YzAuNTktMC4yNiwxLjI0LTAuNCwxLjg4LTAuNGMwLjE1LDAsMC4yOSwwLjAxLDAuNDQsMC4wMmMwLjA1LDAsMC4xMSwwLjAxLDAuMTYsMC4wMSYjMTA7JiM5OyYjOTsmIzk7YzAuNDQsMCwwLjg1LTAuMTcsMS4xNS0wLjQ5QzEyLjY5LDEuNjcsMTQuMjMsMSwxNS44MywxIE0xNS44MywwYy0xLjg3LDAtMy42OCwwLjc5LTQuOTYsMi4xN2MtMC4xLDAuMTEtMC4yNSwwLjE3LTAuNDIsMC4xNyYjMTA7JiM5OyYjOTsmIzk7Yy0wLjAyLDAtMC4wNCwwLTAuMDcsMGMtMC4xOC0wLjAyLTAuMzUtMC4wMy0wLjUzLTAuMDNjLTAuNzgsMC0xLjU3LDAuMTctMi4yOSwwLjQ4Yy0xLjcsMC43NS0yLjkzLDIuMjktMy4yOCw0LjExJiMxMDsmIzk7JiM5OyYjOTtDNC4yNiw3LjEsNC4xMyw3LjI2LDMuOTUsNy4zNmMtMi4yLDEuMTYtMy42MywzLjM0LTMuODEsNS44MmwtMC4wNiwwLjhMMCwxNS4wNWgxLjA4aDMuMzJoNy4wNGwtMS42LDEuNTlsLTAuNzEsMC43MWwwLjcxLDAuNzEmIzEwOyYjOTsmIzk7JiM5O2wxLjA1LDEuMDVsMC43MSwwLjcxbDAuNi0wLjU5djEuMDR2MC40NGMtNS4xMSwwLjg0LTguOTksNS4zMi04Ljk5LDEwLjU4QzMuMTksMzcuMTksOCw0MiwxMy45MSw0MiYjMTA7JiM5OyYjOTsmIzk7YzUuOTEsMCwxMC43Mi00LjgxLDEwLjcyLTEwLjcyYzAtNS4yNi0zLjg3LTkuNzMtOC45OC0xMC41OHYtMC40NHYtMS4wNGwwLjYsMC41OWwwLjcxLTAuNzFsMS4wNS0xLjA1bDAuNzEtMC43MUwxOCwxNi42NCYjMTA7JiM5OyYjOTsmIzk7bC0xLjYtMS41OWg5LjQzaDAuNmwwLjI4LTAuNTNsMC4yMS0wLjM5YzEuNzEtMy4xOCwwLjY2LTcuMTktMi40LTkuMTJjLTAuNjgtMC40My0xLjQxLTAuNzMtMi4xOC0wLjkmIzEwOyYjOTsmIzk7JiM5O2MtMC4yLTAuMDQtMC4zNy0wLjE4LTAuNDYtMC4zNkMyMC43MywxLjQ0LDE4LjQxLDAsMTUuODMsMEwxNS44MywweiIvPiYjeGE7CTwvZz4mI3hhOwk8Zz4mI3hhOwkJPHBhdGggY2xhc3M9InN0MSIgZD0iTTIzLjk5LDUuODZjLTAuNTgtMC4zNi0xLjIxLTAuNjItMS44Ny0wLjc3Yy0wLjUtMC4xMS0wLjkxLTAuNDMtMS4xNC0wLjg5QzIwLDIuMjMsMTguMDMsMSwxNS44MywxJiMxMDsmIzk7JiM5OyYjOTtjLTEuNiwwLTMuMTQsMC42Ny00LjIyLDEuODVDMTEuMjgsMy4yLDEwLjgsMy4zOCwxMC4zLDMuMzNDOS41MSwzLjI2LDguNzEsMy4zOSw3Ljk4LDMuNzFDNi41OCw0LjMzLDUuNTcsNS41OSw1LjI3LDcuMSYjMTA7JiM5OyYjOTsmIzk7QzUuMTgsNy41OSw0Ljg3LDgsNC40Miw4LjI0Yy0xLjksMS0zLjEyLDIuODctMy4yOCw1LjAxbC0wLjA2LDAuOGgzLjMydjBoN2MtMC40OS0wLjQxLTAuODktMC45MS0xLjE4LTEuNDhINC44NHYwaC0yLjEmIzEwOyYjOTsmIzk7JiM5O2MwLjMyLTEuMjksMS4xNy0yLjM4LDIuMzctMy4wMkM1Ljk2LDkuMSw2LjU1LDguMzEsNi43Myw3LjM4YzAuMi0xLjAzLDAuODktMS45LDEuODUtMi4zMmMwLjUtMC4yMiwxLjA0LTAuMzEsMS41OC0wLjI2JiMxMDsmIzk7JiM5OyYjOTtjMC45NywwLjA5LDEuODktMC4yNiwyLjU0LTAuOTVjMC44MS0wLjg3LDEuOTUtMS4zNywzLjE0LTEuMzdjMS42MywwLDMuMSwwLjkxLDMuODMsMi4zOGMwLjQzLDAuODYsMS4yMSwxLjQ3LDIuMTUsMS42NyYjMTA7JiM5OyYjOTsmIzk7YzAuNDksMC4xMSwwLjk2LDAuMywxLjQsMC41OGMxLjg0LDEuMTYsMi41NCwzLjQ5LDEuNzIsNS40NkgxNC4zNGMtMS4yOSwwLTIuMzUtMS4wNy0yLjM1LTIuMzloLTEuNDhjMCwxLjk4LDEuNDgsMy42MSwzLjM3LDMuODQmIzEwOyYjOTsmIzk7JiM5O2wtMy4zNSwzLjMzbDEuMDUsMS4wNWwyLjMzLTIuMzJsMi4zMywyLjMybDEuMDUtMS4wNWwtMy4zNC0zLjMyYzAuMTIsMC4wMSwwLjI1LDAuMDIsMC4zOCwwLjAyaDExLjQ5bDAuMjEtMC4zOSYjMTA7JiM5OyYjOTsmIzk7QzI3LjUxLDEwLjkzLDI2LjYxLDcuNTEsMjMuOTksNS44NnoiLz4mI3hhOwkJPHJlY3QgeD0iMTMuMTgiIHk9IjE3LjY3IiBjbGFzcz0ic3QxIiB3aWR0aD0iMS40OCIgaGVpZ2h0PSIxLjQ4Ii8+JiN4YTsJCTxwYXRoIGNsYXNzPSJzdDEiIGQ9Ik0xNC42NiwyMS41OXYtMS4zM2gtMS40OHYxLjMzYy01LjAyLDAuMzgtOC45OSw0LjU4LTguOTksOS42OWMwLDUuMzYsNC4zNiw5LjcyLDkuNzIsOS43MiYjMTA7JiM5OyYjOTsmIzk7czkuNzItNC4zNiw5LjcyLTkuNzJDMjMuNjMsMjYuMTcsMTkuNjcsMjEuOTcsMTQuNjYsMjEuNTl6IE0xMy45MSwzOS41MmMtNC4yNiwwLTcuNzgtMy4yNS04LjItNy40MWgzLjQybC0xLjI0LDEuMjVsMS4wNSwxLjA0JiMxMDsmIzk7JiM5OyYjOTtsMi45My0yLjk0bC0yLjkzLTIuOTRsLTEuMDUsMS4wNGwxLjA2LDEuMDZINS43YzAuMzMtNC4yNCwzLjg5LTcuNTksOC4yMS03LjU5czcuODgsMy4zNSw4LjIxLDcuNTloLTMuNDRsMC45OS0xbC0xLjA1LTEuMDQmIzEwOyYjOTsmIzk7JiM5O2wtMi43OSwyLjgxbDIuOTMsMi45NGwxLjA1LTEuMDRsLTEuMTgtMS4xOGgzLjQ3QzIxLjY5LDM2LjI3LDE4LjE3LDM5LjUyLDEzLjkxLDM5LjUyeiIvPiYjeGE7CQk8cG9seWdvbiBjbGFzcz0ic3QxIiBwb2ludHM9IjE0LjU1LDM1LjU1IDE0LjU1LDI3LjAxIDE1LjcyLDI4LjE2IDE2Ljc2LDI3LjEyIDEzLjgyLDI0LjE5IDEwLjg5LDI3LjEyIDExLjkzLDI4LjE2IDEzLjA3LDI3LjAzICYjMTA7JiM5OyYjOTsmIzk7MTMuMDcsMzUuNTMgMTEuOTMsMzQuMzkgMTAuODksMzUuNDQgMTMuODIsMzguMzcgMTYuNzYsMzUuNDQgMTUuNzIsMzQuMzkgJiM5OyYjOTsiLz4mI3hhOwk8L2c+JiN4YTs8L2c+JiN4YTs8L3N2Zz4=;fontSize=6;fontColor=#AE562C;strokeColor=#AE562C;strokeWidth=2;fillColor=#2C5967;" parent="1" vertex="1">
          <mxGeometry x="853" y="129" width="28" height="42" as="geometry" />
        </mxCell>
        <mxCell id="ZkSJn2erZB1swvx8y7X5-4" value="" style="endArrow=none;dashed=1;html=1;rounded=0;entryX=0.478;entryY=0.004;entryDx=0;entryDy=0;entryPerimeter=0;exitX=0.483;exitY=0.994;exitDx=0;exitDy=0;exitPerimeter=0;" parent="1" edge="1">
          <mxGeometry width="50" height="50" relative="1" as="geometry">
            <mxPoint x="766.3500000000001" y="421.7560000000001" as="sourcePoint" />
            <mxPoint x="763.6500000000001" y="199.99599999999995" as="targetPoint" />
          </mxGeometry>
        </mxCell>
        <mxCell id="ZkSJn2erZB1swvx8y7X5-6" value="AD1" style="text;html=1;align=center;verticalAlign=middle;whiteSpace=wrap;rounded=0;" parent="1" vertex="1">
          <mxGeometry x="504" y="294" width="60" height="30" as="geometry" />
        </mxCell>
        <mxCell id="ZkSJn2erZB1swvx8y7X5-7" value="AD2" style="text;html=1;align=center;verticalAlign=middle;whiteSpace=wrap;rounded=0;" parent="1" vertex="1">
          <mxGeometry x="980" y="294" width="60" height="30" as="geometry" />
        </mxCell>
      </root>
    </mxGraphModel>
  </diagram>
  <diagram name="routing" id="c0DcwLl5yysSY9oCPRHn">
    <mxGraphModel dx="957" dy="482" grid="1" gridSize="10" guides="1" tooltips="1" connect="1" arrows="1" fold="1" page="1" pageScale="1" pageWidth="1169" pageHeight="827" math="0" shadow="0">
      <root>
        <mxCell id="gP81K4ogqWe0er_8T8x9-0" />
        <mxCell id="gP81K4ogqWe0er_8T8x9-1" parent="gP81K4ogqWe0er_8T8x9-0" />
        <mxCell id="gP81K4ogqWe0er_8T8x9-2" value="" style="rounded=0;whiteSpace=wrap;html=1;fillColor=#F5F4F2;strokeColor=#B3B3B3;" parent="gP81K4ogqWe0er_8T8x9-1" vertex="1">
          <mxGeometry x="460" y="160" width="620" height="300" as="geometry" />
        </mxCell>
        <mxCell id="gP81K4ogqWe0er_8T8x9-3" value="" style="rounded=0;whiteSpace=wrap;html=1;dashed=1;strokeColor=#AE562C;fillColor=#F5F4F2;strokeWidth=2;" parent="gP81K4ogqWe0er_8T8x9-1" vertex="1">
          <mxGeometry x="500" y="200" width="540" height="224" as="geometry" />
        </mxCell>
        <mxCell id="gP81K4ogqWe0er_8T8x9-4" value="" style="shape=image;verticalLabelPosition=bottom;verticalAlign=top;imageAspect=0;aspect=fixed;image=data:image/svg+xml,PHN2ZyB4bWxucz0iaHR0cDovL3d3dy53My5vcmcvMjAwMC9zdmciIHhtbG5zOnhsaW5rPSJodHRwOi8vd3d3LnczLm9yZy8xOTk5L3hsaW5rIiB2ZXJzaW9uPSIxLjEiIGlkPSJMYXllcl8xIiB4PSIwcHgiIHk9IjBweCIgdmlld0JveD0iMCAwIDQzLjUgNDIiIHN0eWxlPSJlbmFibGUtYmFja2dyb3VuZDpuZXcgMCAwIDQzLjUgNDI7IiB4bWw6c3BhY2U9InByZXNlcnZlIiB3aWR0aD0iNDMuNSIgaGVpZ2h0PSI0MiI+JiN4YTs8Zz4mI3hhOwk8Zz4mI3hhOwkJPHBhdGggc3R5bGU9ImZpbGw6I0ZGRkZGRjsiIGQ9Ik0zMS4yLDQxLjVjLTIuOCwwLTUuMy0yLTUuOS00LjhoLTcuMWMtMC42LDIuNy0zLDQuOC01LjksNC44Yy0zLjMsMC02LTIuNy02LTYmIzEwOyYjOTsmIzk7JiM5O2MwLTIuMSwxLjItNC4xLDMtNS4ybC0yLjItNi43Yy0wLjIsMC0wLjQsMC0wLjYsMGMtMy4zLDAtNi0yLjctNi02YzAtMy4zLDIuNy02LDYtNmMxLjUsMCwyLjksMC41LDQsMS42TDE2LjMsOSYjMTA7JiM5OyYjOTsmIzk7Yy0wLjMtMC44LTAuNS0xLjYtMC41LTIuNWMwLTMuMywyLjctNiw2LTZzNiwyLjcsNiw2YzAsMC44LTAuMiwxLjctMC41LDIuNWw1LjcsNC4yYzEuMS0xLDIuNS0xLjYsNC0xLjZjMy4zLDAsNiwyLjcsNiw2JiMxMDsmIzk7JiM5OyYjOTtzLTIuNyw2LTYsNmMtMC4yLDAtMC40LDAtMC42LDBsLTIuMiw2LjdjMS44LDEuMSwzLDMuMSwzLDUuMkMzNy4yLDM4LjgsMzQuNSw0MS41LDMxLjIsNDEuNXoiLz4mI3hhOwkJPHBhdGggc3R5bGU9ImZpbGw6I0ZGRkZGRjsiIGQ9Ik0yMS43LDFjMywwLDUuNSwyLjUsNS41LDUuNWMwLDAuOS0wLjIsMS44LTAuNywyLjZsNi40LDQuN2MxLTEuMSwyLjQtMS43LDQtMS43JiMxMDsmIzk7JiM5OyYjOTtjMywwLDUuNSwyLjUsNS41LDUuNWMwLDMtMi41LDUuNS01LjUsNS41Yy0wLjMsMC0wLjcsMC0xLTAuMWwtMi41LDcuNWMxLjgsMC45LDMuMSwyLjgsMy4xLDVjMCwzLTIuNSw1LjUtNS41LDUuNSYjMTA7JiM5OyYjOTsmIzk7Yy0yLjgsMC01LjEtMi4xLTUuNS00LjhoLTcuOWMtMC40LDIuNy0yLjcsNC44LTUuNSw0LjhjLTMsMC01LjUtMi41LTUuNS01LjVjMC0yLjIsMS4zLTQuMSwzLjEtNUw3LjUsMjNjLTAuMywwLjEtMC43LDAuMS0xLDAuMSYjMTA7JiM5OyYjOTsmIzk7Yy0zLDAtNS41LTIuNS01LjUtNS41czIuNS01LjUsNS41LTUuNWMxLjYsMCwzLDAuNyw0LDEuN2w2LjQtNC43Yy0wLjQtMC44LTAuNy0xLjctMC43LTIuNkMxNi4yLDMuNSwxOC43LDEsMjEuNywxIE0yMS43LDAmIzEwOyYjOTsmIzk7JiM5O2MtMy42LDAtNi41LDIuOS02LjUsNi41YzAsMC44LDAuMSwxLjYsMC40LDIuM2wtNS4xLDMuN2MtMS4xLTAuOS0yLjYtMS40LTQtMS40QzIuOSwxMS4xLDAsMTQsMCwxNy42czIuOSw2LjUsNi41LDYuNSYjMTA7JiM5OyYjOTsmIzk7YzAuMSwwLDAuMiwwLDAuMywwbDEuOSw2Yy0xLjgsMS4yLTIuOSwzLjItMi45LDUuNGMwLDMuNiwyLjksNi41LDYuNSw2LjVjMi45LDAsNS41LTIsNi4zLTQuOGg2LjNjMC44LDIuOCwzLjMsNC44LDYuMyw0LjgmIzEwOyYjOTsmIzk7JiM5O2MzLjYsMCw2LjUtMi45LDYuNS02LjVjMC0yLjItMS4xLTQuMi0yLjktNS40bDEuOS02YzAuMSwwLDAuMiwwLDAuMywwYzMuNiwwLDYuNS0yLjksNi41LTYuNWMwLTMuNi0yLjktNi41LTYuNS02LjUmIzEwOyYjOTsmIzk7JiM5O2MtMS41LDAtMi45LDAuNS00LjEsMS40bC01LjEtMy43YzAuMy0wLjcsMC40LTEuNSwwLjQtMi4zQzI4LjMsMi45LDI1LjMsMCwyMS43LDBMMjEuNywweiIvPiYjeGE7CTwvZz4mI3hhOwk8Zz4mI3hhOwkJPHBhdGggc3R5bGU9ImZpbGw6I0JCNTAxQzsiIGQ9Ik0zNywxMi4xYy0xLjYsMC0zLDAuNy00LDEuN2wtNi40LTQuN2MwLjQtMC44LDAuNy0xLjcsMC43LTIuNmMwLTMtMi41LTUuNS01LjUtNS41JiMxMDsmIzk7JiM5OyYjOTtzLTUuNSwyLjUtNS41LDUuNWMwLDAuOSwwLjIsMS44LDAuNywyLjZsLTYuNCw0LjdjLTEtMS0yLjQtMS43LTQtMS43Yy0zLDAtNS41LDIuNS01LjUsNS41czIuNSw1LjUsNS41LDUuNWMwLjMsMCwwLjcsMCwxLTAuMSYjMTA7JiM5OyYjOTsmIzk7bDIuNCw3LjVjLTEuOCwwLjktMy4xLDIuOC0zLjEsNWMwLDMsMi41LDUuNSw1LjUsNS41YzIuOCwwLDUuMS0yLjEsNS41LTQuOGg3LjljMC40LDIuNywyLjcsNC44LDUuNSw0LjhjMywwLDUuNS0yLjUsNS41LTUuNSYjMTA7JiM5OyYjOTsmIzk7YzAtMi4yLTEuMy00LjEtMy4xLTVMMzYsMjNjMC4zLDAuMSwwLjcsMC4xLDEsMC4xYzMsMCw1LjUtMi41LDUuNS01LjVTNDAsMTIuMSwzNywxMi4xeiBNMzEuMiwzOS41Yy0yLjIsMC00LTEuOC00LTQmIzEwOyYjOTsmIzk7JiM5O2MwLTIuMiwxLjgtNCw0LTRzNCwxLjgsNCw0QzM1LjIsMzcuNywzMy40LDM5LjUsMzEuMiwzOS41eiBNMTcuOCwzNC44Yy0wLjItMS4zLTAuOC0yLjQtMS43LTMuM2wzLTQuMmMwLjgsMC40LDEuNywwLjcsMi42LDAuNyYjMTA7JiM5OyYjOTsmIzk7YzAuOSwwLDEuOC0wLjIsMi42LTAuN2wzLDQuMmMtMC45LDAuOC0xLjUsMi0xLjcsMy4zSDE3Ljh6IE04LjMsMzUuNWMwLTIuMiwxLjgtNCw0LTRzNCwxLjgsNCw0YzAsMi4yLTEuOCw0LTQsNCYjMTA7JiM5OyYjOTsmIzk7UzguMywzNy43LDguMywzNS41eiBNNi41LDEzLjVjMi4yLDAsNCwxLjgsNCw0cy0xLjgsNC00LDRzLTQtMS44LTQtNFM0LjMsMTMuNSw2LjUsMTMuNXogTTE3LjcsNi41YzAtMi4yLDEuOC00LDQtNHM0LDEuOCw0LDQmIzEwOyYjOTsmIzk7JiM5O3MtMS44LDQtNCw0UzE3LjcsOC43LDE3LjcsNi41eiBNMzEuNiwxOC41bC00LjksMS42Yy0wLjgtMS42LTIuNC0yLjgtNC4yLTMuMVYxMmMxLjMtMC4yLDIuNC0wLjgsMy4yLTEuN2w2LjQsNC43JiMxMDsmIzk7JiM5OyYjOTtjLTAuNCwwLjgtMC43LDEuNy0wLjcsMi42QzMxLjUsMTcuOSwzMS41LDE4LjIsMzEuNiwxOC41eiBNMjUuOCwyMi41YzAsMi4yLTEuOCw0LTQsNHMtNC0xLjgtNC00czEuOC00LDQtNFMyNS44LDIwLjIsMjUuOCwyMi41eiYjMTA7JiM5OyYjOTsmIzk7IE0yMSwxMlYxN2MtMS45LDAuMy0zLjUsMS40LTQuMiwzLjFsLTQuOS0xLjZjMC4xLTAuMywwLjEtMC42LDAuMS0xYzAtMC45LTAuMi0xLjgtMC43LTIuNmw2LjQtNC43QzE4LjYsMTEuMiwxOS43LDExLjgsMjEsMTJ6JiMxMDsmIzk7JiM5OyYjOTsgTTExLjUsMTkuOWw0LjksMS42Yy0wLjEsMC4zLTAuMSwwLjYtMC4xLDFjMCwxLjYsMC43LDMsMS43LDRsLTMsNC4yYy0wLjgtMC40LTEuNy0wLjctMi42LTAuN2MtMC4zLDAtMC43LDAtMSwwLjFsLTIuNC03LjUmIzEwOyYjOTsmIzk7JiM5O0MxMCwyMiwxMC45LDIxLjEsMTEuNSwxOS45eiBNMzEuMiwzMGMtMC45LDAtMS44LDAuMi0yLjYsMC43bC0zLTQuMmMxLjEtMSwxLjctMi40LDEuNy00YzAtMC4zLDAtMC43LTAuMS0xbDQuOS0xLjYmIzEwOyYjOTsmIzk7JiM5O2MwLjUsMS4xLDEuNSwyLDIuNiwyLjZsLTIuNSw3LjVDMzEuOCwzMCwzMS41LDMwLDMxLjIsMzB6IE0zMywxNy42YzAtMi4yLDEuOC00LDQtNHM0LDEuOCw0LDRzLTEuOCw0LTQsNFMzMywxOS44LDMzLDE3LjZ6Ii8+JiN4YTsJPC9nPiYjeGE7PC9nPiYjeGE7PC9zdmc+" parent="gP81K4ogqWe0er_8T8x9-1" vertex="1">
          <mxGeometry x="1008" y="393" width="30" height="28.64" as="geometry" />
        </mxCell>
        <mxCell id="gP81K4ogqWe0er_8T8x9-5" value="&amp;nbsp;&lt;font color=&quot;#ae562c&quot;&gt;VCN A&lt;/font&gt;&lt;br&gt;&lt;div style=&quot;&quot;&gt;&lt;span style=&quot;background-color: initial;&quot;&gt;&lt;font style=&quot;font-size: 10px;&quot;&gt;&amp;nbsp;172.16.140.0/23&lt;/font&gt;&lt;/span&gt;&lt;/div&gt;" style="text;html=1;strokeColor=none;fillColor=none;align=left;verticalAlign=middle;whiteSpace=wrap;rounded=0;dashed=1;" parent="gP81K4ogqWe0er_8T8x9-1" vertex="1">
          <mxGeometry x="500" y="200" width="100" height="40" as="geometry" />
        </mxCell>
        <mxCell id="gP81K4ogqWe0er_8T8x9-6" value="" style="rounded=0;whiteSpace=wrap;html=1;dashed=1;strokeColor=#AE562C;fillColor=#F5F4F2;strokeWidth=2;" parent="gP81K4ogqWe0er_8T8x9-1" vertex="1">
          <mxGeometry x="610" y="280" width="310" height="40" as="geometry" />
        </mxCell>
        <mxCell id="gP81K4ogqWe0er_8T8x9-7" value="" style="rounded=0;whiteSpace=wrap;html=1;dashed=1;strokeColor=#AE562C;fillColor=#F5F4F2;strokeWidth=2;" parent="gP81K4ogqWe0er_8T8x9-1" vertex="1">
          <mxGeometry x="610" y="210" width="310" height="60" as="geometry" />
        </mxCell>
        <mxCell id="gP81K4ogqWe0er_8T8x9-8" value="External&#xa;Load Balancer" style="shape=image;verticalLabelPosition=bottom;verticalAlign=top;imageAspect=0;aspect=fixed;image=data:image/svg+xml,PHN2ZyB4bWxucz0iaHR0cDovL3d3dy53My5vcmcvMjAwMC9zdmciIHhtbG5zOnhsaW5rPSJodHRwOi8vd3d3LnczLm9yZy8xOTk5L3hsaW5rIiB2ZXJzaW9uPSIxLjEiIGlkPSJMYXllcl8xIiB4PSIwcHgiIHk9IjBweCIgdmlld0JveD0iMCAwIDQyLjM4OTk5OTM4OTY0ODQ0IDQyIiBzdHlsZT0iZW5hYmxlLWJhY2tncm91bmQ6bmV3IDAgMCA0Mi4zOCA0MjsiIHhtbDpzcGFjZT0icHJlc2VydmUiIHdpZHRoPSI0Mi4zODk5OTkzODk2NDg0NCIgaGVpZ2h0PSI0MiI+JiN4YTs8c3R5bGUgdHlwZT0idGV4dC9jc3MiPiYjeGE7CS5zdDB7ZmlsbDojRkZGRkZGO30mI3hhOwkuc3Qxe2ZpbGw6bm9uZTt9JiN4YTsJLnN0MntmaWxsOiMyQzU5Njc7fSYjeGE7PC9zdHlsZT4mI3hhOzxnPiYjeGE7CTxnPiYjeGE7CQk8Zz4mI3hhOwkJCTxwYXRoIGNsYXNzPSJzdDAiIGQ9Ik0zNC4yLDQxLjV2LTIuNDhoMy4wMUwyMy4xNiwyNC45NmMtMC4zNyw0Ljc2LTEuNDYsOC45NS0zLjE3LDEyLjE4Yy0yLjEsMy41Ni00LjIyLDQuMjktNS42Myw0LjI5JiMxMDsmIzk7JiM5OyYjOTsmIzk7Yy0wLjI1LDAtMC41MS0wLjAyLTAuNzYtMC4wN2MtNC4wMy0wLjc0LTYuNDYtNi43OS03LjQtMTIuMjFjLTAuMzgtMi4wMy0wLjYyLTQuNDEtMC42Ny02LjkxSDAuNXYtMi40OGg1LjAzJiMxMDsmIzk7JiM5OyYjOTsmIzk7YzAuMDYtMi41OSwwLjMxLTUuMDcsMC43Mi03LjE3QzcuNTYsNS4yMywxMC42OSwwLjY0LDE0LjQyLDAuNmMyLjE4LDAsNi4wOCwxLjU5LDguMTgsMTIuMjNjMC4yNCwxLjM1LDAuNDEsMi43NSwwLjUzLDQuMiYjMTA7JiM5OyYjOTsmIzk7JiM5O0wzNy4xNywyLjk4SDM0LjJWMC41aDcuM3Y3LjNoLTIuNDhWNC42NEwyMy45LDE5Ljc2aDEyLjg4bC0yLTEuOTFsMS43MS0xLjhsNS4xNyw0LjkybC01LjE0LDUuMTRsLTEuNzUtMS43NWwyLjEyLTIuMTNIMjMuOTUmIzEwOyYjOTsmIzk7JiM5OyYjOTtsMTUuMDcsMTUuMDdWMzQuMmgyLjQ4djcuM0gzNC4yeiIvPiYjeGE7CQkJPHBhdGggY2xhc3M9InN0MCIgZD0iTTQxLDF2Ni4zaC0xLjQ4VjMuNDRMMjIuNzksMjAuMTdjMCwwLjAzLDAsMC4wNiwwLDAuMDloMTUuMjVsLTIuNTUtMi40M2wxLjAyLTEuMDdsNC40NCw0LjIzbC00LjQzLDQuNDMmIzEwOyYjOTsmIzk7JiM5OyYjOTtsLTEuMDUtMS4wNWwyLjYyLTIuNjJIMjIuNzljMCwwLjAyLDAsMC4wMywwLDAuMDVsMTYuNzIsMTYuNzJWMzQuN0g0MVY0MWgtNi4zdi0xLjQ4aDMuNzJsLTE1LjctMTUuNyYjMTA7JiM5OyYjOTsmIzk7JiM5O2MtMC4yNSw0LjU3LTEuMTcsOS4yOC0zLjE4LDEzLjA4bC0wLjAyLDAuMDRjLTEuODgsMy4xOS0zLjc1LDMuOTktNS4xNywzLjk5Yy0wLjI0LDAtMC40Ny0wLjAyLTAuNjgtMC4wNiYjMTA7JiM5OyYjOTsmIzk7JiM5O2MtMy43OC0wLjY5LTYuMTMtNi43OS02Ljk5LTExLjgxYy0wLjQyLTIuMi0wLjY0LTQuNzUtMC42OC03LjMySDF2LTEuNDhoNS4wMmMwLjA0LTIuNjcsMC4yOC01LjMxLDAuNzItNy41OCYjMTA7JiM5OyYjOTsmIzk7JiM5O0M4LDUuNTcsMTAuOTUsMS4xMywxNC40MiwxLjFjMC4wMSwwLDAuMDIsMCwwLjA0LDBjMiwwLDUuNjIsMS41NSw3LjY0LDExLjgybDAsMC4wMmMwLjI3LDEuNTYsMC40OSwzLjMzLDAuNiw1LjIxTDM4LjM4LDIuNDgmIzEwOyYjOTsmIzk7JiM5OyYjOTtIMzQuN1YxSDQxIE00MiwwaC0xaC02LjNoLTF2MXYxLjQ4djFoMWgxLjI2TDIzLjUzLDE1LjkyYy0wLjExLTEuMDktMC4yNi0yLjE0LTAuNDQtMy4xNUMyMS4wMiwyLjI5LDE3LjI2LDAuMSwxNC40NiwwLjEmIzEwOyYjOTsmIzk7JiM5OyYjOTtjLTQuMDksMC4wNC03LjMzLDQuNjgtOC43MSwxMi40MWMtMC4zOSwxLjk5LTAuNjMsNC4zMS0wLjcxLDYuNzVIMUgwdjF2MS40OHYxaDFoNC4wNGMwLjA4LDIuMzQsMC4zMSw0LjU4LDAuNjcsNi41MSYjMTA7JiM5OyYjOTsmIzk7JiM5O2MwLjk2LDUuNTcsMy41MSwxMS44Miw3LjgsMTIuNmMwLjI4LDAuMDUsMC41NywwLjA4LDAuODYsMC4wOGMxLjU0LDAsMy44NC0wLjc4LDYuMDMtNC40OGwwLTAuMDFsMC4wMy0wLjA1JiMxMDsmIzk7JiM5OyYjOTsmIzk7YzEuNjItMy4wNiwyLjY5LTYuOTQsMy4xNC0xMS4zM2wxMi40NSwxMi40NUgzNC43aC0xdjFWNDF2MWgxSDQxaDF2LTF2LTYuM3YtMWgtMWgtMS40OGgtMXYxdjEuNEwyNS4xNiwyMi43NGgxMC41M2wtMC45MiwwLjkyJiMxMDsmIzk7JiM5OyYjOTsmIzk7bC0wLjcxLDAuNzFsMC43MSwwLjcxbDEuMDUsMS4wNWwwLjcxLDAuNzFsMC43MS0wLjcxbDQuNDMtNC40M2wwLjcyLTAuNzJsLTAuNzQtMC43MWwtNC40NC00LjIzbC0wLjcyLTAuNjlsLTAuNjksMC43MiYjMTA7JiM5OyYjOTsmIzk7JiM5O2wtMS4wMiwxLjA3bC0wLjY5LDAuNzJsMC43MiwwLjY5bDAuNzQsMC43SDI1LjExTDM4LjUyLDUuODVWNy4zdjFoMUg0MWgxdi0xVjFWMEw0MiwweiIvPiYjeGE7CQk8L2c+JiN4YTsJCTxnPiYjeGE7CQkJPHBhdGggY2xhc3M9InN0MSIgZD0iTTE0LjQ2LDIuOTVjLTAuMDEsMC0wLjAxLDAtMC4wMiwwYy0xLjk3LDAuMDItNC42NiwzLjE4LTUuODgsMTAuMDZsMCwwLjAyYy0wLjQyLDIuMTctMC42NSw0LjY4LTAuNjksNy4yMyYjMTA7JiM5OyYjOTsmIzk7JiM5O2g4Ljg4bC0yLjc0LTIuNjFsMS4wMi0xLjA3bDQuNjIsNC40MWwtNC40Myw0LjQybC0xLjA1LTEuMDVsMi42Mi0yLjYySDcuODZjMC4wNCwyLjQ2LDAuMjUsNC44OSwwLjY1LDYuOTkmIzEwOyYjOTsmIzk7JiM5OyYjOTtjMC45Niw1LjU3LDMuMjcsOS45LDUuNTEsMTAuMzFjMC4xMSwwLjAyLDAuMjMsMC4wMywwLjM0LDAuMDNjMS40MywwLDIuNzEtMS42MywzLjU2LTMuMDZjMy4yOS02LjI1LDMuNTYtMTUuOTIsMi4zNi0yMi43NSYjMTA7JiM5OyYjOTsmIzk7JiM5O0MxOC43OCw1LjY2LDE2LjI5LDIuOTUsMTQuNDYsMi45NXoiLz4mI3hhOwkJCTxwYXRoIGNsYXNzPSJzdDIiIGQ9Ik00MSw3LjNWMWgtNi4zdjEuNDhoMy42N0wyMi43MSwxOC4xNWMtMC4xMS0xLjg4LTAuMzItMy42NS0wLjYtNS4yMWwwLTAuMDJDMjAuMDgsMi42NSwxNi40NiwxLjEsMTQuNDYsMS4xJiMxMDsmIzk7JiM5OyYjOTsmIzk7Yy0wLjAxLDAtMC4wMiwwLTAuMDQsMEMxMC45NSwxLjEzLDgsNS41Nyw2Ljc0LDEyLjY4Yy0wLjQ0LDIuMjctMC42OCw0LjkxLTAuNzIsNy41OEgxdjEuNDhoNS4wMWMwLjA0LDIuNTgsMC4yNiw1LjEyLDAuNjgsNy4zMiYjMTA7JiM5OyYjOTsmIzk7JiM5O2MwLjg2LDUuMDEsMy4yMSwxMS4xMSw2Ljk5LDExLjgxYzAuMjEsMC4wNCwwLjQ0LDAuMDYsMC42OCwwLjA2YzEuNDEsMCwzLjI4LTAuOCw1LjE3LTMuOTlsMC4wMi0wLjA0JiMxMDsmIzk7JiM5OyYjOTsmIzk7YzIuMDEtMy44LDIuOTMtOC41MSwzLjE4LTEzLjA4bDE1LjcsMTUuN0gzNC43VjQxSDQxdi02LjNoLTEuNDh2My44MUwyMi43OSwyMS43OWMwLTAuMDIsMC0wLjAzLDAtMC4wNUgzOC4xbC0yLjYyLDIuNjImIzEwOyYjOTsmIzk7JiM5OyYjOTtsMS4wNSwxLjA1bDQuNDMtNC40M2wtNC40NC00LjIzbC0xLjAyLDEuMDdsMi41NSwyLjQzSDIyLjc5YzAtMC4wMywwLTAuMDYsMC0wLjA5TDM5LjUyLDMuNDRWNy4zSDQxeiBNMTcuOTIsMzYuMDImIzEwOyYjOTsmIzk7JiM5OyYjOTtjLTAuODUsMS40My0yLjEzLDMuMDYtMy41NiwzLjA2Yy0wLjExLDAtMC4yMy0wLjAxLTAuMzQtMC4wM2MtMi4yMy0wLjQxLTQuNTUtNC43NC01LjUxLTEwLjMxYy0wLjQtMi4xMS0wLjYxLTQuNTQtMC42NS02Ljk5JiMxMDsmIzk7JiM5OyYjOTsmIzk7aDguOTRsLTIuNjIsMi42MmwxLjA1LDEuMDVsNC40My00LjQybC00LjYyLTQuNDFsLTEuMDIsMS4wN2wyLjc0LDIuNjFINy44NmMwLjA0LTIuNTUsMC4yNy01LjA2LDAuNjktNy4yM2wwLTAuMDImIzEwOyYjOTsmIzk7JiM5OyYjOTtjMS4yMi02Ljg5LDMuOTEtMTAuMDQsNS44OC0xMC4wNmMwLjAxLDAsMC4wMSwwLDAuMDIsMGMxLjgzLDAsNC4zMiwyLjcxLDUuODMsMTAuMzJDMjEuNDgsMjAuMDksMjEuMjEsMjkuNzcsMTcuOTIsMzYuMDJ6Ii8+JiN4YTsJCTwvZz4mI3hhOwk8L2c+JiN4YTs8L2c+JiN4YTs8L3N2Zz4=;dashed=1;fontSize=6;fontColor=#AE562C;strokeColor=#AE562C;strokeWidth=2;fillColor=#E6E6E6;" parent="gP81K4ogqWe0er_8T8x9-1" vertex="1">
          <mxGeometry x="754" y="218" width="22" height="22" as="geometry" />
        </mxCell>
        <mxCell id="gP81K4ogqWe0er_8T8x9-9" value="" style="rounded=0;whiteSpace=wrap;html=1;dashed=1;strokeColor=#AE562C;fillColor=#F5F4F2;strokeWidth=2;" parent="gP81K4ogqWe0er_8T8x9-1" vertex="1">
          <mxGeometry x="610" y="333" width="310" height="80" as="geometry" />
        </mxCell>
        <mxCell id="gP81K4ogqWe0er_8T8x9-10" style="vsdxID=45;fillColor=none;gradientColor=none;strokeOpacity=0;spacingTop=-3;spacingBottom=-3;spacingLeft=-3;spacingRight=-3;labelBackgroundColor=none;rounded=0;strokeColor=none;html=1;whiteSpace=wrap;dashed=1;fontSize=10;fontColor=#AE562C;" parent="gP81K4ogqWe0er_8T8x9-1" vertex="1">
          <mxGeometry x="699" y="300" width="55" height="60" as="geometry" />
        </mxCell>
        <mxCell id="gP81K4ogqWe0er_8T8x9-11" style="vsdxID=46;fillColor=none;gradientColor=none;image;aspect=fixed;image=data:image/png,iVBORw0KGgoAAAANSUhEUgAAAZAAAAGNCAYAAAA/9yeJAAAABGdBTUEAALGPC/xhBQAAACBjSFJNAAB6JgAAgIQAAPoAAACA6AAAdTAAAOpgAAA6mAAAF3CculE8AAAABmJLR0QA/wD/AP+gvaeTAAAACXBIWXMAAA7DAAAOwwHHb6hkAAAAB3RJTUUH5AQDBxsK6pjOGwAALOxJREFUeNrt3Xd4VFX+BvD3zkx6gZAOBAihJARCLwGpAQSUahd3dV1ddV37Ij8BV1FBURB3EURdEAuK0kRApAcChBJKQosEEtIhpJGeTGbu7w+BpTNzMjNnJnk/z8MTkrlzzvdcwn3n3nvuvQrk0nbv3l1TVVWlVLdooTSvrFQk10NE5DCy3NzURnl5Ri8vLzU2NrbW1v3baoOtxIwZ00nV6YZAVftCRXdVQYgCxcnWAyYiqp9UFSouqKoxSdFo9hlVdUtWdXX86Q0bqq3VozUDRIkZO/Yuo6I8oSjKA4DideUF7mcQEVmNql76ClWvAlsVVf1vXkrK2uPHj9dYsh+Lb8qjhg/38Hd3f1YFJkHRBAIMDCIiWS6HiaKgXAUW6oE5catW5VqibYtt2qOGD/fw9/R8STUap0DReDA0iIjsyx9hotaqqvpFrUbzXl2DxCKb+Zhx48YZgcWKovFhcBAR2TdVBRSoNVDV17f+/POnAAwi7dRpc99/5Eh/nYvrMkVRhjA4iIgci6oCqoLT0OvHbV+79ri57xfe7A8aP/4ujaKsg4pGDA8iIsd0+bAWVPXpbT//vMSc9wpt+gePHfuiotF8oiiMDiKi+kBVAVU1/qAWF//Z1GtKzA6AmLFjP1Q12kmMDiKi+uXS3sjuynPnhsXHx1feaXmzYmDg+PFfa6H8meFBRFQ/qSqgQk1Wi4p6xsbGlt1uWY2pjQ4YN24uw4OIqH5TFECBEq5p7LMnMjLS+XbLak1pMGbcuJc0iuZtS4bH5YtbiIjIMiy1jf6jHSXQ3df3rrPJyd8CuOkW+47dDRw/PloL7LbECfOrQ4N7MkRElnX9B/O6bmcvHc76z/bVq1+62eu3bf6ue+7xcXZxyVQAD0sMiKFBRGQbltr2qqqqAhi6bfXqbde/dttzIE7Ozr9CrXt4KArDg4jIlq7e7tbllMGlo0+/9ho/3vf6124ZIP0mTBijQOkjsuH/Yz4xg4OISLbL2+HL22XBVlw8gBXX//SmJ9HbjBzp4uvktF9R4Hznhq919V4HERHZh6u3yeZuny8t3zKkXbvt6b//nn755zfdAwlxcZ0pcuiK4UFEZL/qckhLURRFp9X+fPXPbgiQyMhIZ0VRXjA3BBgeRET27+pDWgLv9hkwZszEy9/dECB+YWHTAJj1qFmGBxGR4zE3RBQF0Gm08y5/f0OAaLXa18wJAoYHEZHjET6cpSg+g0aNGgFcFyCDRo/uAyjuooUQEZHjEAkRRQE0zi5zgOsCRNHp5orsfRARkWMS2QFQNEp499Gj3a8NEKCHLTonIiL7Ys4OgapC46nTPX8lQHrFxLQDFJ01OiMiIvslcl2IFnjqSoB4eHm9LnhxCRER1QNm7RgoSqjmf39X7rZKJ0REZPfM3iFQ4fS/AAH8rdoZERHVG4py1SwsFebf94qIiOoXc44wXQ4Q3jeXiKiBMzcFNKJvJCKihu1ygJj0bHTgf8/5ICKihu2qQ1hERESm01z3lYiIyCQMDiIiEsIAISIiIQwQIiISwgAhIiIhDBAiIhLCACEiIiEMECIiEsIAISIiIQwQIiISwgAhIiIhDBAiIhLCACEiIiEMECIiEsIAISIiIQwQIiISwgAhIiIhDBAiIhLCACEiIiEMECIiEsIAISIiIQwQIiISwgAhIiIhDBAiIhLCACEiIiEMECIiEsIAISIiIQwQIiISwgAhIiIhDBAiIhLCACEiIiEMECIiEsIAISIiITrZBZB1ebi7I9DfH+5ublABlJWXI/f8edTU1MguzS45OzsjKCAAnh4e0Gg0qKysxLm8PJRXVMguzS5pNBoEBQTA28sLzk5OqKyqwoX8fBSXlMgujWyAAVLPaLVa9OzaFQOjo9G5Y0cE+PndsIzRaMTZjAwcOHIEW3buRFp6uuyypYoMD8fgfv3QNSoKLZo1g6IoNyyTe/48DiUlYfuuXThy7JjskqUKadYMMf37o0eXLmjbujW0Wu0NyxRfvIgjx45hx5492JuQAH1treyyyQou/09xiZkwocqUN6gqcJP/XySZRqPBPcOG4ZEJE24aGrdzKCkJi7//HskpKbKHYVN9evTAEw8/jDahoWa972xGBr7+8UfE7d0rewg21SY0FE8++ih6detm1vsKioqwbNUqrPntNxiNRtnDoDswZxvPAKkHmgcHY+qrr6Jt69bCbaiqijUbNuDzr7+u958WvTw98c+//x39eveuUzv7Dx3Ch59+iuKLF2UPyaq0Wi2emjgR940eDY1G/LRpano63v/kE6RlZMgeEt2GOdv4y/ueutYREdNM7YABYj+6RUXho+nTERQQUKd2FEVBeNu26NWtG3bv24eq6mrZQ7OK5sHB+GTGDHRo377ObTULDkbMgAE4nJSEouJi2UOzCg93d3zw5psY3L//TQ/tmcOncWPcPXgwMrKykJGdLXtodBsMkAagW1QUZkyZAlcXF4u16dukCaJ79cKO3bvrXYgEBwbi3zNnwt/X12Jturu5YUj//jiYmIjCoiLZQ7QoV1dXzJk+3SJhe5lOp8OA6Ghk5ebiLPdE7Jap23hO43VQTYOC8NakSXBycrJ42yFNm+K9qVOh09WfORaurq6YOW0afBo1snjbHu7umDltGvyaNJE9TIua8vLLaBcWZvF2NRoNJr/wAjpGRMgeItURA8QBKYqCN156CR7u7lbrI7xNGzz9pz/JHqrF/P0vf0FI06ZWa9+nUSNMfeUV2cO0mHuGDUPfnj2t1r5Op8O0V16x6u8wWR8DxAHdPXgwItq1s3o/40eNMnuGkj1qFxaGkTExVu+nU4cONunH2jw9PPDXiROt3o+fr69N+iHrYYA4GEVR8Oh999mkL41Gg7888ojsIdfZxPvvr/MJYFP9+aGHHP7Q37iRI+Ht5WWTvu4ZNqzOE0BIHgaIg+nRuTOaBgXZrL/e3bujeXCw7GEL823SxKqHYq7n7+uLAdHRsoddJ/cOH26zvrRaLcaOGCF7yCSIAeJgBvTta/M+YwYMkD1sYQP69LHZ3sdlQx14fUWGh8PPgrPUTOHIv18NHQPEwXSOjLR5n927dJE9bGGdO3a0eZ9RkZEOexiri4T11cTHB6EtW8oeOglggDgQN1dXmx6+uqxNaKjNP8VbSlirVjbv09XFBS2aNZM9dCEy1hcAtLfCdGGyPgaIA5F1stHZycmiF9/ZiqIoZt8XzFKaOeh5o0B/fyn9yvhgRHXHAHEg7hLnzHt4eMgevtlcXFxueqdYW3DE9QVA2nUZjrq+GjoGiAOReVzdyQGP6cus2RHXFyDvd8zZQddXQ8cAISIiIQwQIiISwgAhIiIhDBAiIhLCACEiIiEMECIiEsIAISIiIQwQIiISwgAhIiIhDBAiIhLCACEiIiEMECIiEsIAISIiIQwQIiISwgAhIiIhDBAiIhLCACEiIiEMECIiEsIAISIiIQwQIiISwgAhIiIhDBAiIhLCACEiIiEMECIiEsIAISIiIQwQIiISwgAhIiIhDBAiIhLCACEiIiEMECIiEsIAISIiIQwQIiISwgAhIiIhDBAiIhLCACEiIiEMECIiEsIAISIiIQwQIiISwgAhIiIhDBAiIhLCACEiIiEMECIiEsIAISIiIQwQIiISwgAhIiIhDBAiIhLCACEiIiEMECIiEsIAISIiIQwQIiISwgAhIiIhDBAiIhLCACEiIiEMECIiEsIAISIiIQwQIiISwgAhIiIhDBAiIhLCACEiIiEMECIiEsIAISIiIQwQIiISwgAhIiIhDBAiIhLCACEiIiEMECIiEsIAISIiIQwQIiISwgAhIiIhDBAiIhLCACEiIiEMECIiEsIAISIiIQwQIiISwgAhIiIhDBAiIhLCACEiIiEMECIiEsIAISIiIQwQIiISwgAhIiIhDBAiIhLCACEiIiEMECIiEsIAISIiIQwQIiISwgAhIiIhDBAiIhLCACEiIiEMECIiEsIAISIiIQwQIiISwgAhIiIhDBAiIhLCACEiIiEMECIiEsIAISIiIQwQIiISwgAhIiIhDBAiIhLCACEiIiEMECIiEsIAISIiIQwQIiISwgAhIiIhDBAiIhLCACEiIiEMECIiEsIAISIiIQwQIiISwgAhIiIhDBAiIhLCACEiIiEMECIiEsIAISIiIQwQIiISwgAhIiIhDBAiIhLCACEiIiEMECIiEsIAISIiIQwQIiISwgAhIiIhDBAiIhLCACEiIiEMECIiEsIAISIiIQwQIiISwgAhIiIhDBAiIhLCACEiIiEMECIiEsIAISIiIQwQIiISwgAhIiIhDBAiIhLCACEiIiEMECIiEsIAISIiIQwQIiISwgAhIiIhDBAiIhLCACEiIiEMECIiEsIAISIiIQwQIiISwgAhIiIhDBAiIhLCACEiIiEMECIiEsIAISIiIQwQIiISwgAhIiIhDBAiIhLCACEiIiEMECIiEsIAISIiIQwQIiISwgAhIiIhDBAiIhLCACEiIiEMECIiEsIAISIiIQwQIiISwgAhIiIhDBAiIhLCACEiIiEMECIiEsIAISIiIQwQIiISwgAhIiIhDBAiIhLCACEiIiEMECIiEsIAISIiIQwQIiISwgBxJKoqsWt5fTtizY64vmTi2nJMDBAHUl1TI6/v6mrZwze/Zq4vh6m7qqpK9tBJAAPEgVwsKZHWd/HFi7KHbza9Xo9KSRsmR1xfAFBSWiql32KJv9skjgHiQM5fuIDa2lqb93uxpAQlZWWyhy8kOzdXSr8Z2dmyhy4kS9b6ysqSPXQSwABxIEajEadSU23e79GTJ2UPXVhySorN+7xQUIDzFy7IHrqQk6dOSen3WHKy7KGTAAaIg0k4fNjmfcYfOCB72MIOcH2ZJSEx0eYTAE6eOuWwh/waOgaIg9kWF2fT/+AVlZXYGR8ve9jC9h86hFIbH377bds22cMWlnfhgs33Bhx5fTV0DBAHk5Wbi32HDtmsvzUbNkg7EW0J+tparN240Wb9HUpKwqkzZ2QPu05Wrl1rs74KioqwKTZW9pBJEAPEAS1euhRGo9Hq/RQWFWHZ6tWyh1tnP61Zg4s2mF1kMBiwcMkS2cOts1379tnsXMiX334LvV4ve8gkiAHigFLT07HCBp8SP164EOUVFbKHW2dl5eVYsGiR1fv5fuVKpKanyx6uRcxduBA1Vt6wxx84gC07dsgeKtUBA8RBLf7+exyz4uyo75Yvx96EBNnDtJitcXFYv3mz1drfe/AgvvnpJ9nDtJjU9HTMt2LoZmRlYda8ebKHSXWkvfRV1zoiYpqpb1IU2WWT0WjEnv370aNrVzRp3Niiba/+9Vd8+e23sodocfsPHUJoy5Zo0by5Rds9fPQo3p41C7UGg+whWlRKaiqMqoouHTtatN3s3Fy8Pn06Z17ZMVO38QwQB1ZdU4Ptu3ahbevWaBoUVOf2DAYD/rt0KZb88IPsoVmFqqrYGR8Pby8vhLdta5E2N27bhhlz51r9cI8sSSdOoPjiRXTv3BkaTd0PWCQdP4433n0XhcXFsodGt8EAaSD0ej22xsWhoqICke3bw8nJSaidtIwMvP3hh4jdvVv2kKxKVVXsP3QIqenp6BgeDnd3d6F2ioqL8fFnn2HpypU2mdAg0+9nzmD/4cNoFxYGXx8foTaqq6vx9Y8/Yu7ChQ49q6+hMHUbf3kxl5gJE0z6V1VVBoi9atyoER4YPRp3DxmCxo0amfSeM2fPYsUvv2BrXFy93xBez9XFBfcMG4axI0eavAeXl5+PX377zeGnN4tQFAUD+/bF/WPGILxNG5PeU1Zejo3bt+Onn39GQVGR7CGQCczZxjNA6iGNRoMuHTuic2QkQlu2RJC/P9zc3KCqKsorKpCdm4vk06eRcPgwzmZmyi7XLrQPC0PXqCi0CQ1F06AgeHp4QKvRoLyyEufy8nA6NRWHkpJw/Pffeat2AM2Cg9G9c2eEt22LZsHB8PbygrOTE6qqqnChoABp6ek4cuwYDiUlQS/h/m0kjgFCRERCzNnGcxovEREJYYAQEZEQBggREQlhgBARkRAGCBERCWGAEBGREAYIEREJYYAQEZEQBggREQlhgBARkRAGCBERCWGAEBGREAYIEREJYYAQEZEQBggREQlhgBARkRAGCBERCWGAEBGREAYIEREJYYAQEZEQnewCiByZk5MTXF1coNVq4aTTQafTQVEUqKoKo9EIFYBer0dNTQ2qa2pQW1sru2Qii2GAEF1Fo9EgwM8P/n5+8Pf1hZ+vL/x8fNDI2xuNGzWCt5cXvL284O7mBnc3N2i1WrPaNxgMqKisRFl5OcrKy1FeUYHyS38vq6hAQVERLuTn//GnoAD5hYUwGAyyVwvRTTFAqEHy9PBAy5AQtAoJQcuQEDRv2hTNgoIQ6O8Pnc56/y20Wi28PD3h5elp0vKqqqKwuBgX8vORlZOD9KwspGdlISMzEznnz8NoNMpeldSAMUCo3vP08EBEu3ZoFxaGtq1bo23r1gj095ddlkkURYGvjw98fXwQ3rbtNa/V6PV/hEpmJk6dOYOTp07hVGoqampqZJdNDYRy6atLzIQJVaa8QVUBRTFlSSI5Avz80KVTJ3QKD0eH8HC0aNYMSgP5pTUYDEhNT8fJU6eu/MnKzZVdFjkQc7bxDBByeB7u7ugWFYUeXbqga6dOaBoUJLsku5KXn4+DiYk4mJiIQ0lJKCktlV0S2TEGCNV7wYGB6B8djT7duiEyPNzsk9kNlaqqOJ2WhoOJidh/6BCOJSfzPApdgwFC9VJQQAAG9O2LQX37ol1YmOxy6oWiixexe98+7IyPx5FjxxgmxACh+iPQ3x8D+/XDwOhotG/TRnY59VpJaSl279+PuL17kXDkCMOkgWKAkEPT6XTo16sXRg0dim5RUQ3mBLg9KSouxqbYWPy2bRsys7Nll0M2xAAhh9QsOBijhg7F3YMHo3GjRrLLoUuOJydjw9atiN2zB1VVJm0myIExQMhhaDQaDIiOxr3Dh6NLx46yy6HbqKysxLZdu7By3TpkZGXJLoeshAFCds/Z2RkjhgzBA2PGIDgwUHY5ZAZVVXHg8GGsWLsWh5KSZJdDFsYAIbvl5emJsSNGYPw996CRt7fscqiOUs+exYq1a7Ft1y7eKLKeYICQ3fFr0gQPjh2LkUOHws3VVXY5ZGEFRUX4YeVKrN+8GXoGiUNjgJDd8Pb0xCMTJmDsyJFwdnaWXQ5Z2YWCAixdsQIbtm7lXYQdFAOEpHN1ccGEe+/Fg2PHwtPDQ3Y5ZGPn8vLw3fLl2BQby+tJHAwDhKTRarW4Z+hQPPbAA2ji4yO7HJIsOzcXn3/zDfbs3y+7FDIRA4Sk6NO9O/7+5JO8mSHd4FBSEhYsXoyzmZmyS6E7YICQTQX6++P5v/4VfXv2lF0K2TGDwYB1mzZhybJlKC0rk10O3QIDhGxCp9PhwbFjMfG+++Di4iK7HHIQJaWlWLJsGdZu3AhVVWWXQ9dhgJDVdYuKwgtPP42Qpk1ll0IO6sSpU5g9fz6varczDBCyGg93d7zw1FMYOnCg7FKkKCktRWFREYovXkRJWRnKystRWlaG6upqVNXUoLq6GrW1tTAajVBVFaqqQqfTQafTwUmng6ur65Vnont5eFz5eyNv7wZ5/68avR7fLV+OZatXc7aWnWCAkFV079wZ/3z+efj7+souxWqMRiNyz59HWkYG0jMzkZuXh3Pnz+NcXh4KCgutepGci7MzAv39ERQYiKDLXwMC0DIkBM2Dg+v1Q7NOp6Vh9vz5OJ2WJruUBo8BQhbl6uKCp//8Z4wdMUJ2KRZVVV2N5JQUnE5Lw9mMDKSlp+NsZiaqa2pkl3YDZ2dnhIaEICw0FGGtWiGsVSu0ad0arvXo3JPBYMCPP/+MJcuWcW9EIgYIWUyH9u0x+YUX0Cw4WHYpdVZSWopjyck4euIEjp08iVOpqQ59tbRWq0X7sDBERUYiqkMHdIyIgLubm+yy6uzkqVOYMXcuzuXlyS6lQWKAUJ1pNBo8/tBDeGTCBGg0GtnlCDEYDDiWnIz4Awdw4MgRpNfzaxA0Gg3ahIaia6dO6NuzJyLatXPYf7uy8nLMXbgQO/bskV1Kg8MAoTpp7O2Nqa++iq6dOskuxWxl5eU4cPgw9iYkYN+hQygrL5ddkjSNvb3Rp2dP9O3ZE92johxyqvWvW7Zg/qJFdnlYsb5igJCwjuHhmPbaa/Br0kR2KSarrq7Grn37sHnHDhw+etShD0tZi7OzM3p17Yphgwahd7du0Ol0sksyWXpmJqbPns3pvjbCACEh948Zg6cfe8whZvuoqoqjJ05gU2wsdsbHo6KyUnZJDsPbywsx/ftj+ODBaNu6texyTFJRWYn3P/kE8QkJskup9xggZBZ3NzdM+sc/0L9PH9ml3FFhURHWbdqETbGxPMlqAa1CQjBy6FCMGDIEHu7ussu5LVVV8dUPP+D7lStll1KvMUDIZIH+/pg5bRpaNm8uu5TbSklNxap167B9924++c4K3FxdMWLIEIy/5x67vxlm7O7d+OjTT3lexEoYIGSS8LZt8e4bb8DHTq+ANhqNiD9wACvXrUPSiROyy2kQFEVBn+7dcd+996KLHU+iSElNxVuzZiEvP192KfUOA4TuqH+fPvi/F1+0y5k5BoMBW+Pi8N3y5cg5d052OQ1W+zZt8PjDD6NX166yS7mpwqIi/N+77yI1PV12KfUKA4Ru66Fx4/DUY49BsbN/SKPRiB179uDrH39EVk6O7HLokg7t2uHxhx9G986dZZdyg7Lycrz5wQc4yj1Ui2GA0E1pNBq8/MwzGDV0qOxSrqGqKuL27sU3P/7IBw7ZsY7h4Xji4Yft7tBWTU0N3ps7l089tBAGCN1Ap9PhzVdfRb/evWWXco3jycn4dNEipKSmyi6FTBTdowee+8tf7Opku8FgwCeff44NW7fKLsXhmbONvzzhX9c6ImKaqR0wQByLs7Mz3pk8GX169JBdyhUFRUX49xdfYMFXX6GwqEh2OWSGrJwcrN20CZVVVejQrh2cnJxklwSNRoO+PXtCX1uLYydPyi7H4TFACADg6uqKmVOnoltUlOxSAAB6vR4r1q7FO7Nn49SZM7LLIUFGoxHHk5Oxcds2eHt7I6xVK7s4p9YtKgq1BgOOMkTqhAFC8HB3x4f/+hc6RkTILgUAcDAxEdNmzkQsr+WoNyqrqrBn/34cPnoUHcPD4e3lJbskdO3UCTV6PY4lJ8suxWExQBq4Rt7e+Ojtt9G+TRvZpaCyshKfLlqEBV99hZKyMtnlkBXk5efj161b4ezsjIi2baXvjXSLikJlVRVO/P677FXjkHgSvQHz9PDA3PfeQ2iLFrJLweGjRzF7/nycv3BBdilkIxFt2+Kf//iHXdzdYMHixVi1fr1V+9BoNPD39UVQYCCCAwLg7+eHRl5e8L70x9PDA05OTlcea6woCi6WlqKoqAiFxcUoLCpCVm4usrKzkZWbi/KKCqnrjLOwrMDTwwMBfn5o3KgRvDw94e3lBTdXV7i4uMDVxQW6S78YGkWBCqBWr4e+thbVNTUoKCxEfmHhla+lVvwU7urqio/eegsR7dpJXV+VVVX48ptv8MvGjVLrIDmcdDo88cgjeHDsWOl7I//58kv88ttvFmnL1cUFEe3aISw0FG1atULrVq3Qsnlzi96ANL+wEKfOnEFySgp+P30aySkpNg0VBogg3yZNENaqFVq1aIEgf38EXvoT4O9v0Se91dTUIL+wENm5ucjKzUV2Ts4fX3Nzcf7CBeHHeTrpdJg5bZr053gknz6NGR9/jNzz56XWQfL17NIFk198EY0l3i5HVVW8O2cOdsbHm/1enU6HqA4d0LVTJ3Tu2BHtWre2+a3wDQYDTp05g4OJiTiYlITjyclWfeQvA8QEQQEBiAwPR5tWra48Z7qRt7fssqDX65GRnY3Tqak4ffYszqSl4czZs3f8BKLRaPDWpEno16uX1Pp//vVXLPz6a54kpyt8fXww5ZVX0DkyUloNNXo9Xp8+3aQpvq6urujdrRv69eqF3t27291diktKS7F7/37s3LMHh6zw/BsGyE0E+vujc8eO6BwZiS4dOyLQ3192SWY5l5eH30+fxrHkZBxPTsbptLRrPoX834svYujAgdLqq6isxOz584U+5VH9p9Fo8KcHHsDE+++X9pjd0rIyvDRlCjKys2/6esfwcIyIicHAvn3h5uoqc3WZrKS0FFvj4vDr5s1Iy8iwSJsMEPzxC9spIgJ39emD6B49EBQQILski6qqrkZySgpO/P47/Hx9MXzQIGm1nDl7Fu/Mno3s3FzZq4XsXLeoKLz52mvw8vSU0v/5vDy88MYbKCwuBgC4ODtjZEwMxo4ciZBmzWSvnjpJTknBL7/9hq1xcXXaK2mwAeLk5ITuUVFXQsMeDknVd1t27sScBQug1+tll0IOonlwMN6bMgXNmzaV0n9Kaiqmf/QRhg8ahLGjRqGRHVy7Ykn5BQVYuW4d1m/eLPSkzgYXIO3DwjBy6FAMvusuuzteWZ8tWbYM3y1fLrsMckCeHh54a9Ik6RM+6rOy8nL8tGYNVq1bh6rqapPf1yACxNvTE0MHDsSImBi0btlSdjkNSo1ej9nz52NbXJzsUsiBaTQavPDUUxh9992yS6nXioqLsXTFCqzdtMmkQ1v1OkBat2yJB8eNw8DoaLu4iVtDc7GkBP+aNQvHeZsIspD7R4/GM48/Lv16kfouIysL8/77Xxw+evS2y9XLAOkWFYWHxo2zy4faNBSZ2dmYMmMGr+8gi7t78GC8+txzFr0gj24udvdufPbVVyi4xV2w602AKIqCwXfdhQfHjkWb0FDbdEo3lXr2LF6fPh3FJSWyS6F6qn+fPpjy8ss8smADZeXl+HTRImzZseOG1+pFgET36IEnJ060i/s5NXTJp0/jjXffteotWIgAoEeXLnj79dfh6uIiu5QGYfe+fZi7cOE1HwwdOkCiOnTAXx97DJHt21uvEzLZ0RMnMHXmTKHpgEQiIsPDMXPqVM6otJGCoiK89/HHV54r75BPJGzRrBkmv/QSnnz0UQT4+Vl7nZEJDiYmYurMmWZNASSqqwv5+Th28iQG3XWXze871RC5u7lh2MCB0Ov1VybHOEyAuLq44IlHHsHkF190+CtB65P9hw/jX++/jxpeIEgS5OXnIzklBQP79eOJdRvQaDTo3rkzQlu2xK59+6Gqpt2sUWqA9OvVCzOmTkXv7t2l3R+HbnT05Em8OXMmw4Okyj1/Hmnp6RgQHc3tg420bN4cWo32jlN9L5PyrxLg74+ZU6di+uTJPFxlZ06npWHazJmorqmRXQoR9hw4gFnz5ln19uV0rWbBQSYva/MDjMMHD8bzTz7JE2R2KDMnB//3zjvSn4hGdLVtcXHwdHfHi3/7m+xS6Do2C5DG3t545bnnpD+vgm4uLz8fk3mdB9mpXzZuRLOmTXHfvffKLoWuYpMA6durF1599lmpTyWjWystK8Pkd95BXn6+7FKIbmnhkiVoGhSE6B49ZJdCl1j1HIhWq8U//vpXvDN5MsPDThkMBrwzezYyb/GQHSJ7oaoqZsydi9SzZ2WXQpdYbQ/Er0kT/GvSJHRo1072GOk25i9aZPKMCyLZqqqqMHXmTMyfNQtNfHxkl3OD6upqnM3MxPkLF5CXn4/8ggIUXbyImpoaVFVXo0avh5uLC7y9vdHIywtNGjdGi+bN0SokBAH+/g53Q0mrBEjXTp0w9ZVX6u1eh6qqKK+oQElpKUrLylBaVobyigoYjUYYjUaoqgqjqgL449yPn68v/H19pT2F7VbWbNiAXzZulF0GkVkuFBTgrVmzMPe996RfaHguLw8JR47g6IkTSElLQ1ZOjvCMMVdXV0S0bYsuHTuiS6dOCG/Txu6vgbH42n9o3Dg8+eijdj/wOzEajcjMycHZjAzknDuHnHPnkHv+PHLOn0d+QYHQL4mLszP8fH3h16QJgoOCENK0KUKaNUOrkBAEBwba9NPHwcREzF+82JarlMhiTqak4ItvvsHfn3zS5n2npKZiy44diE9IQM65cxZrt6qqCoePHv3jiMAPP8Db0xP9o6MxpH9/dIqIsMtrYSwWIBqNBq8+9xxGDBkie0xC8vLzkXTiBE6dPo1Tqak4nZaGqiqTbg9msuqaGmTn5iI7NxeJx49f85q7mxvCQkPRPiwMkeHh6BgeDp/Gja0y1szsbLwzezbn1pNDW7V+PTpHRqJf795W76u0rAzrN2/Gpu3bkWGj84Ull/pcv3kzAvz8MH7UKIwcOhSeHh426d8UFrmZorubG96aNMmhntVRVl6OxGPHcDApCYcSE5GVmyu7pBs0Dw5Gjy5d0KNrV3SOjISbq2ud2ywqLsYLb7yBc3l5sodHVGce7u74fM4cBAUEWKX9c3l5WLl2LTZs3WoX94Rzc3XFPcOG4ZEJE9DI29sqfezYswfvzplj0rJ1DhB/X1/MmDrVIR4rW1Jail379iF2924cOXbMoT6BOzs7o2eXLhgQHY3onj3h7uZmdhuVlZV45c03cTotTfZwiCymfVgYPpkxw6LPEblYWorvfvoJv2zcaNJjYG3Nw90dD40bh/vuvRcuFr71vc0CJLRFC7z/5pvwa9LEZivOXNXV1Yjdswexu3bhYFKSQ4XGrTg7O6N/nz4YGRODzpGRJp07MRgMmDpzJhKOHJFdPpHFjRkxAi8+/XSd2zEYDFi1bh2+W7HCIe7IEODvj9eee86iR3+279qFGXPnmrTs5S2Pc8yECSbtn10OkDahoZj11lto5OVl85VmioysLKzdtAmbtm93iF8EUcGBgYgZMADDBg5Es+DgWy734bx52BQbK7tcIqt5+ZlncO/w4cLvT8/MxIfz5uH3M2dkD8VsI2Ni8Mzjj1vk/MiGLVsw57PPTFr2coBoYyZMqDXlDaoKRLRriw/efNOuTub8UZuK+IQErFy79oaT1A1BRNu2GDpoEAb163dNsC9auhQ/rFoluzwiq9JoNPjwX/9Cl06dzHqf0WjET2vW4Otly6CvNWkzaJeCAwPx9uuvI6xVqzq1s2LtWixcssSkZS8HiBIzYYLJx3aWffmlXR22MhqN2LFnD75fuRJpGRmyy5FOq9WiV9euGDZoEPILC7GA03WpgfDy9MSnH3xw273xq+WcO4dZ8+ZdeZCSo3N2dsbLzzyD4YMGCbcxf9EirP71V5OWvTyNV1VVVVVMvBChsKjILgLEaDRi686dWLpihV3OopLFYDAgPiEB8QkJskshsqnSsjJMe/99zHv//TseIVm/eTM+W7LE4tP1ZaqpqcGH8+YhKycHTz76qFAb6VlZJi975ToQRVFU/G+P5LZOnTmDdmFhUlfUkWPHsHDJEs4oIqJrZGZn472PP8aMKVNuekFzUXEx5ixYgL0HD8ou1Wq+X7kSF0tK8NLf/mbWBYhGoxEpqakmL39l7bYOD58MRTFpHpybmxsGREdLWTGZOTmYM38+Fi1disLiYik1EJF9yzl3DuXl5ejVrds1P4/buxdvvPcezjSAGzKmpKYiMycHd/XubfJdLlJSU7F6/XqT+7iyB6ICWQpg0p0PDyYmora21qb3odHr9Vi6ciV+WLXKLudlE5F9Wf3rr2gZEoJ7hw9HeUUFPv3vf7F5xw7ZZdlU7O7d8HB3xyvPPmvS8nv27ze5bScnJ/XKHkiriIhgRVH6m/LG6poatG/bFiFNm9pkJZw4dQpTZsxA3N69UC/dpJCI6E4OHDkCV2dnfPjppzh68qTscqRISU1FdU3NHa8VUVUVH82fb/JlD21atTJeCRCf0NCjrjrdP009kV5ZVYUh/U3KG2HV1dX4/Jtv8MnChbjIJ+URkZlUVcXBxMR6fS2YKY4nJyMwIABtQkNvuczehASs27TJ5DbDQkPPXzm7cnjDhgsAakx9896EBKtOmU3PzMTzkydj9fr13OsgIqqjTz7/HL+fPn3L179dvtys9pycnD6/5vS8Amwxp4HFS5daZaAbtm7F319/HWczM63SPhFRQ6PX6/H2hx+irLz8hte279qFU2ZcgR8cGKi+M3ny9GsCpMJgeBmAyR/34xMSLDoVrqq6GjM/+QRzFixAdY3JO0NERGSCCwUFmPfll9f8rKy8HAu++sqsdkKaNs0Ernsm+p41a8717t7drONFcy10fiK/oACvTJuGbXFxVlp1RES0NS4OO+Pjr3w/Z8ECFJlxSYRWq1UNRuNTwHUBoihK2d2DB5t1TX9BYSE++Pe/6zS19tSZM3h+8mSzLmAhIiIx//niC5SVl2P5L78gbu9es94b1aFD5YdvvbUZuC5AAGBAdPSTUR06mNXggSNH8J/rdotMtTM+Hi9Pm4aCoiKbrTwiooasuKQEM+bOxedff23W+zQajRrStOkrV76/fgFFUfYNHTjwmLkFrd+8GfMXLzZrxtSGrVvx7pw5qOH5DiIim1FV4MDhw2a/LyqiQ8VLzzzzxeXvb3qTlFFDh97Tt3dvs+fOrl6/HjPmzkW1CY9+XLV+PeYsWMApukRENnSzx5KbwtPDQ23RvNnoq3920wBRFCVj1ODB81wFHpUYu3s3np88Gem3mYK7dMUK3mKciMiGVFU8PACgb69eJ1565pntV//slk2pqqpd9N13uT+sXu0v0plOp8MDY8Zg4v334+og+n7lSiz+/nspK5CIqKG5+iCPaHh0aN++9j8zZ3ooinLN+YZb3g1RURSDqqpdUjMyMvcdPGj6/YAvqa2txQ+rVmHDli24b/RojL77bmyLi2N4EBHZgCWCAwB8fXzU7lFR464PD8CE53/E7dv3yMKvvlp6Li+vDiX88ZQ8g8FwZVB1GRAREd3o+lPKdd3OXjqS9P1Tjz028Wavm9T8qvXr3/9u+fLJF0tKLLbZ57lzIiLLs9SHc0VR8MCYMQefefzxHrdcxtTGlq1evfTb5csfrU+PfyQiopu7f/TojGefeKLVpafV3pTJ5zYeHj9+4vhRo7739PDgvgMRUT2lKAoeGjcu+9knnmh/u/AAzNgDuWzp8uUfrdm48bWCwkKexSAiqkecnJzUPz3wwLFH77uvm6IotXda3uzZVRMfeGDSsIEDJ7Zv08Yoe7BERGQhKmofHDv2q0fvu6+zKeEBCOyBXJaYmBjwy5Ytx2J37xa6ToSIiOyDqqo5peXlfQ5s2mTWQ5jqfBhq7mefLUw6efJvGVlZPKRFRORYDEaDOn/7mtUvibzZIhv9zZs3N9qblLT7YGJih9KyMgYJEZEdU/+4CeEBpaRkzNatW8+LtmPRjf3bH3zQYse+fXM1ijIWgFb2SiIiov9RVVVVgH1VtbVP7V679nhd2/t/+E3n30LBQTEAAAAldEVYdGRhdGU6Y3JlYXRlADIwMjAtMDQtMDNUMDc6Mjc6MTArMDA6MDDHVXucAAAAJXRFWHRkYXRlOm1vZGlmeQAyMDIwLTA0LTAzVDA3OjI3OjEwKzAwOjAwtgjDIAAAAABJRU5ErkJggg==;strokeWidth=102;spacingTop=-3;spacingBottom=-3;spacingLeft=-3;spacingRight=-3;labelBackgroundColor=none;rounded=0;html=1;whiteSpace=wrap;dashed=1;fontSize=10;fontColor=#AE562C;" parent="gP81K4ogqWe0er_8T8x9-10" vertex="1">
          <mxGeometry width="55" height="55" as="geometry" />
        </mxCell>
        <mxCell id="gP81K4ogqWe0er_8T8x9-12" style="vsdxID=45;fillColor=none;gradientColor=none;strokeOpacity=0;spacingTop=-3;spacingBottom=-3;spacingLeft=-3;spacingRight=-3;labelBackgroundColor=none;rounded=0;strokeColor=none;html=1;whiteSpace=wrap;dashed=1;fontSize=10;fontColor=#AE562C;" parent="gP81K4ogqWe0er_8T8x9-1" vertex="1">
          <mxGeometry x="780" y="302" width="55" height="60" as="geometry" />
        </mxCell>
        <mxCell id="gP81K4ogqWe0er_8T8x9-13" style="vsdxID=46;fillColor=none;gradientColor=none;image;aspect=fixed;image=data:image/png,iVBORw0KGgoAAAANSUhEUgAAAZAAAAGNCAYAAAA/9yeJAAAABGdBTUEAALGPC/xhBQAAACBjSFJNAAB6JgAAgIQAAPoAAACA6AAAdTAAAOpgAAA6mAAAF3CculE8AAAABmJLR0QA/wD/AP+gvaeTAAAACXBIWXMAAA7DAAAOwwHHb6hkAAAAB3RJTUUH5AQDBxsK6pjOGwAALOxJREFUeNrt3Xd4VFX+BvD3zkx6gZAOBAihJARCLwGpAQSUahd3dV1ddV37Ij8BV1FBURB3EURdEAuK0kRApAcChBJKQosEEtIhpJGeTGbu7w+BpTNzMjNnJnk/z8MTkrlzzvdcwn3n3nvuvQrk0nbv3l1TVVWlVLdooTSvrFQk10NE5DCy3NzURnl5Ri8vLzU2NrbW1v3baoOtxIwZ00nV6YZAVftCRXdVQYgCxcnWAyYiqp9UFSouqKoxSdFo9hlVdUtWdXX86Q0bqq3VozUDRIkZO/Yuo6I8oSjKA4DideUF7mcQEVmNql76ClWvAlsVVf1vXkrK2uPHj9dYsh+Lb8qjhg/38Hd3f1YFJkHRBAIMDCIiWS6HiaKgXAUW6oE5catW5VqibYtt2qOGD/fw9/R8STUap0DReDA0iIjsyx9hotaqqvpFrUbzXl2DxCKb+Zhx48YZgcWKovFhcBAR2TdVBRSoNVDV17f+/POnAAwi7dRpc99/5Eh/nYvrMkVRhjA4iIgci6oCqoLT0OvHbV+79ri57xfe7A8aP/4ujaKsg4pGDA8iIsd0+bAWVPXpbT//vMSc9wpt+gePHfuiotF8oiiMDiKi+kBVAVU1/qAWF//Z1GtKzA6AmLFjP1Q12kmMDiKi+uXS3sjuynPnhsXHx1feaXmzYmDg+PFfa6H8meFBRFQ/qSqgQk1Wi4p6xsbGlt1uWY2pjQ4YN24uw4OIqH5TFECBEq5p7LMnMjLS+XbLak1pMGbcuJc0iuZtS4bH5YtbiIjIMiy1jf6jHSXQ3df3rrPJyd8CuOkW+47dDRw/PloL7LbECfOrQ4N7MkRElnX9B/O6bmcvHc76z/bVq1+62eu3bf6ue+7xcXZxyVQAD0sMiKFBRGQbltr2qqqqAhi6bfXqbde/dttzIE7Ozr9CrXt4KArDg4jIlq7e7tbllMGlo0+/9ho/3vf6124ZIP0mTBijQOkjsuH/Yz4xg4OISLbL2+HL22XBVlw8gBXX//SmJ9HbjBzp4uvktF9R4Hznhq919V4HERHZh6u3yeZuny8t3zKkXbvt6b//nn755zfdAwlxcZ0pcuiK4UFEZL/qckhLURRFp9X+fPXPbgiQyMhIZ0VRXjA3BBgeRET27+pDWgLv9hkwZszEy9/dECB+YWHTAJj1qFmGBxGR4zE3RBQF0Gm08y5/f0OAaLXa18wJAoYHEZHjET6cpSg+g0aNGgFcFyCDRo/uAyjuooUQEZHjEAkRRQE0zi5zgOsCRNHp5orsfRARkWMS2QFQNEp499Gj3a8NEKCHLTonIiL7Ys4OgapC46nTPX8lQHrFxLQDFJ01OiMiIvslcl2IFnjqSoB4eHm9LnhxCRER1QNm7RgoSqjmf39X7rZKJ0REZPfM3iFQ4fS/AAH8rdoZERHVG4py1SwsFebf94qIiOoXc44wXQ4Q3jeXiKiBMzcFNKJvJCKihu1ygJj0bHTgf8/5ICKihu2qQ1hERESm01z3lYiIyCQMDiIiEsIAISIiIQwQIiISwgAhIiIhDBAiIhLCACEiIiEMECIiEsIAISIiIQwQIiISwgAhIiIhDBAiIhLCACEiIiEMECIiEsIAISIiIQwQIiISwgAhIiIhDBAiIhLCACEiIiEMECIiEsIAISIiIQwQIiISwgAhIiIhDBAiIhLCACEiIiEMECIiEsIAISIiIQwQIiISwgAhIiIhDBAiIhLCACEiIiEMECIiEsIAISIiITrZBZB1ebi7I9DfH+5ublABlJWXI/f8edTU1MguzS45OzsjKCAAnh4e0Gg0qKysxLm8PJRXVMguzS5pNBoEBQTA28sLzk5OqKyqwoX8fBSXlMgujWyAAVLPaLVa9OzaFQOjo9G5Y0cE+PndsIzRaMTZjAwcOHIEW3buRFp6uuyypYoMD8fgfv3QNSoKLZo1g6IoNyyTe/48DiUlYfuuXThy7JjskqUKadYMMf37o0eXLmjbujW0Wu0NyxRfvIgjx45hx5492JuQAH1treyyyQou/09xiZkwocqUN6gqcJP/XySZRqPBPcOG4ZEJE24aGrdzKCkJi7//HskpKbKHYVN9evTAEw8/jDahoWa972xGBr7+8UfE7d0rewg21SY0FE8++ih6detm1vsKioqwbNUqrPntNxiNRtnDoDswZxvPAKkHmgcHY+qrr6Jt69bCbaiqijUbNuDzr7+u958WvTw98c+//x39eveuUzv7Dx3Ch59+iuKLF2UPyaq0Wi2emjgR940eDY1G/LRpano63v/kE6RlZMgeEt2GOdv4y/ueutYREdNM7YABYj+6RUXho+nTERQQUKd2FEVBeNu26NWtG3bv24eq6mrZQ7OK5sHB+GTGDHRo377ObTULDkbMgAE4nJSEouJi2UOzCg93d3zw5psY3L//TQ/tmcOncWPcPXgwMrKykJGdLXtodBsMkAagW1QUZkyZAlcXF4u16dukCaJ79cKO3bvrXYgEBwbi3zNnwt/X12Jturu5YUj//jiYmIjCoiLZQ7QoV1dXzJk+3SJhe5lOp8OA6Ghk5ebiLPdE7Jap23hO43VQTYOC8NakSXBycrJ42yFNm+K9qVOh09WfORaurq6YOW0afBo1snjbHu7umDltGvyaNJE9TIua8vLLaBcWZvF2NRoNJr/wAjpGRMgeItURA8QBKYqCN156CR7u7lbrI7xNGzz9pz/JHqrF/P0vf0FI06ZWa9+nUSNMfeUV2cO0mHuGDUPfnj2t1r5Op8O0V16x6u8wWR8DxAHdPXgwItq1s3o/40eNMnuGkj1qFxaGkTExVu+nU4cONunH2jw9PPDXiROt3o+fr69N+iHrYYA4GEVR8Oh999mkL41Gg7888ojsIdfZxPvvr/MJYFP9+aGHHP7Q37iRI+Ht5WWTvu4ZNqzOE0BIHgaIg+nRuTOaBgXZrL/e3bujeXCw7GEL823SxKqHYq7n7+uLAdHRsoddJ/cOH26zvrRaLcaOGCF7yCSIAeJgBvTta/M+YwYMkD1sYQP69LHZ3sdlQx14fUWGh8PPgrPUTOHIv18NHQPEwXSOjLR5n927dJE9bGGdO3a0eZ9RkZEOexiri4T11cTHB6EtW8oeOglggDgQN1dXmx6+uqxNaKjNP8VbSlirVjbv09XFBS2aNZM9dCEy1hcAtLfCdGGyPgaIA5F1stHZycmiF9/ZiqIoZt8XzFKaOeh5o0B/fyn9yvhgRHXHAHEg7hLnzHt4eMgevtlcXFxueqdYW3DE9QVA2nUZjrq+GjoGiAOReVzdyQGP6cus2RHXFyDvd8zZQddXQ8cAISIiIQwQIiISwgAhIiIhDBAiIhLCACEiIiEMECIiEsIAISIiIQwQIiISwgAhIiIhDBAiIhLCACEiIiEMECIiEsIAISIiIQwQIiISwgAhIiIhDBAiIhLCACEiIiEMECIiEsIAISIiIQwQIiISwgAhIiIhDBAiIhLCACEiIiEMECIiEsIAISIiIQwQIiISwgAhIiIhDBAiIhLCACEiIiEMECIiEsIAISIiIQwQIiISwgAhIiIhDBAiIhLCACEiIiEMECIiEsIAISIiIQwQIiISwgAhIiIhDBAiIhLCACEiIiEMECIiEsIAISIiIQwQIiISwgAhIiIhDBAiIhLCACEiIiEMECIiEsIAISIiIQwQIiISwgAhIiIhDBAiIhLCACEiIiEMECIiEsIAISIiIQwQIiISwgAhIiIhDBAiIhLCACEiIiEMECIiEsIAISIiIQwQIiISwgAhIiIhDBAiIhLCACEiIiEMECIiEsIAISIiIQwQIiISwgAhIiIhDBAiIhLCACEiIiEMECIiEsIAISIiIQwQIiISwgAhIiIhDBAiIhLCACEiIiEMECIiEsIAISIiIQwQIiISwgAhIiIhDBAiIhLCACEiIiEMECIiEsIAISIiIQwQIiISwgAhIiIhDBAiIhLCACEiIiEMECIiEsIAISIiIQwQIiISwgAhIiIhDBAiIhLCACEiIiEMECIiEsIAISIiIQwQIiISwgAhIiIhDBAiIhLCACEiIiEMECIiEsIAISIiIQwQIiISwgAhIiIhDBAiIhLCACEiIiEMECIiEsIAISIiIQwQIiISwgAhIiIhDBAiIhLCACEiIiEMECIiEsIAISIiIQwQIiISwgAhIiIhDBAiIhLCACEiIiEMECIiEsIAISIiIQwQIiISwgAhIiIhDBAiIhLCACEiIiEMECIiEsIAISIiIQwQIiISwgAhIiIhDBAiIhLCACEiIiEMECIiEsIAISIiIQwQIiISwgAhIiIhDBAiIhLCACEiIiEMECIiEsIAISIiIQwQIiISwgAhIiIhDBAiIhLCACEiIiEMECIiEsIAISIiIQwQIiISwgAhIiIhDBAiIhLCACEiIiEMECIiEsIAISIiIQwQIiISwgAhIiIhDBAiIhLCACEiIiEMECIiEsIAISIiIQwQIiISwgAhIiIhDBAiIhLCACEiIiEMECIiEsIAISIiIQwQIiISwgAhIiIhDBAiIhLCACEiIiEMECIiEsIAISIiIQwQIiISwgAhIiIhDBAiIhLCACEiIiEMECIiEsIAISIiIQwQIiISwgBxJKoqsWt5fTtizY64vmTi2nJMDBAHUl1TI6/v6mrZwze/Zq4vh6m7qqpK9tBJAAPEgVwsKZHWd/HFi7KHbza9Xo9KSRsmR1xfAFBSWiql32KJv9skjgHiQM5fuIDa2lqb93uxpAQlZWWyhy8kOzdXSr8Z2dmyhy4kS9b6ysqSPXQSwABxIEajEadSU23e79GTJ2UPXVhySorN+7xQUIDzFy7IHrqQk6dOSen3WHKy7KGTAAaIg0k4fNjmfcYfOCB72MIOcH2ZJSEx0eYTAE6eOuWwh/waOgaIg9kWF2fT/+AVlZXYGR8ve9jC9h86hFIbH377bds22cMWlnfhgs33Bhx5fTV0DBAHk5Wbi32HDtmsvzUbNkg7EW0J+tparN240Wb9HUpKwqkzZ2QPu05Wrl1rs74KioqwKTZW9pBJEAPEAS1euhRGo9Hq/RQWFWHZ6tWyh1tnP61Zg4s2mF1kMBiwcMkS2cOts1379tnsXMiX334LvV4ve8gkiAHigFLT07HCBp8SP164EOUVFbKHW2dl5eVYsGiR1fv5fuVKpKanyx6uRcxduBA1Vt6wxx84gC07dsgeKtUBA8RBLf7+exyz4uyo75Yvx96EBNnDtJitcXFYv3mz1drfe/AgvvnpJ9nDtJjU9HTMt2LoZmRlYda8ebKHSXWkvfRV1zoiYpqpb1IU2WWT0WjEnv370aNrVzRp3Niiba/+9Vd8+e23sodocfsPHUJoy5Zo0by5Rds9fPQo3p41C7UGg+whWlRKaiqMqoouHTtatN3s3Fy8Pn06Z17ZMVO38QwQB1ZdU4Ptu3ahbevWaBoUVOf2DAYD/rt0KZb88IPsoVmFqqrYGR8Pby8vhLdta5E2N27bhhlz51r9cI8sSSdOoPjiRXTv3BkaTd0PWCQdP4433n0XhcXFsodGt8EAaSD0ej22xsWhoqICke3bw8nJSaidtIwMvP3hh4jdvVv2kKxKVVXsP3QIqenp6BgeDnd3d6F2ioqL8fFnn2HpypU2mdAg0+9nzmD/4cNoFxYGXx8foTaqq6vx9Y8/Yu7ChQ49q6+hMHUbf3kxl5gJE0z6V1VVBoi9atyoER4YPRp3DxmCxo0amfSeM2fPYsUvv2BrXFy93xBez9XFBfcMG4axI0eavAeXl5+PX377zeGnN4tQFAUD+/bF/WPGILxNG5PeU1Zejo3bt+Onn39GQVGR7CGQCczZxjNA6iGNRoMuHTuic2QkQlu2RJC/P9zc3KCqKsorKpCdm4vk06eRcPgwzmZmyi7XLrQPC0PXqCi0CQ1F06AgeHp4QKvRoLyyEufy8nA6NRWHkpJw/Pffeat2AM2Cg9G9c2eEt22LZsHB8PbygrOTE6qqqnChoABp6ek4cuwYDiUlQS/h/m0kjgFCRERCzNnGcxovEREJYYAQEZEQBggREQlhgBARkRAGCBERCWGAEBGREAYIEREJYYAQEZEQBggREQlhgBARkRAGCBERCWGAEBGREAYIEREJYYAQEZEQBggREQlhgBARkRAGCBERCWGAEBGREAYIEREJYYAQEZEQnewCiByZk5MTXF1coNVq4aTTQafTQVEUqKoKo9EIFYBer0dNTQ2qa2pQW1sru2Qii2GAEF1Fo9EgwM8P/n5+8Pf1hZ+vL/x8fNDI2xuNGzWCt5cXvL284O7mBnc3N2i1WrPaNxgMqKisRFl5OcrKy1FeUYHyS38vq6hAQVERLuTn//GnoAD5hYUwGAyyVwvRTTFAqEHy9PBAy5AQtAoJQcuQEDRv2hTNgoIQ6O8Pnc56/y20Wi28PD3h5elp0vKqqqKwuBgX8vORlZOD9KwspGdlISMzEznnz8NoNMpeldSAMUCo3vP08EBEu3ZoFxaGtq1bo23r1gj095ddlkkURYGvjw98fXwQ3rbtNa/V6PV/hEpmJk6dOYOTp07hVGoqampqZJdNDYRy6atLzIQJVaa8QVUBRTFlSSI5Avz80KVTJ3QKD0eH8HC0aNYMSgP5pTUYDEhNT8fJU6eu/MnKzZVdFjkQc7bxDBByeB7u7ugWFYUeXbqga6dOaBoUJLsku5KXn4+DiYk4mJiIQ0lJKCktlV0S2TEGCNV7wYGB6B8djT7duiEyPNzsk9kNlaqqOJ2WhoOJidh/6BCOJSfzPApdgwFC9VJQQAAG9O2LQX37ol1YmOxy6oWiixexe98+7IyPx5FjxxgmxACh+iPQ3x8D+/XDwOhotG/TRnY59VpJaSl279+PuL17kXDkCMOkgWKAkEPT6XTo16sXRg0dim5RUQ3mBLg9KSouxqbYWPy2bRsys7Nll0M2xAAhh9QsOBijhg7F3YMHo3GjRrLLoUuOJydjw9atiN2zB1VVJm0myIExQMhhaDQaDIiOxr3Dh6NLx46yy6HbqKysxLZdu7By3TpkZGXJLoeshAFCds/Z2RkjhgzBA2PGIDgwUHY5ZAZVVXHg8GGsWLsWh5KSZJdDFsYAIbvl5emJsSNGYPw996CRt7fscqiOUs+exYq1a7Ft1y7eKLKeYICQ3fFr0gQPjh2LkUOHws3VVXY5ZGEFRUX4YeVKrN+8GXoGiUNjgJDd8Pb0xCMTJmDsyJFwdnaWXQ5Z2YWCAixdsQIbtm7lXYQdFAOEpHN1ccGEe+/Fg2PHwtPDQ3Y5ZGPn8vLw3fLl2BQby+tJHAwDhKTRarW4Z+hQPPbAA2ji4yO7HJIsOzcXn3/zDfbs3y+7FDIRA4Sk6NO9O/7+5JO8mSHd4FBSEhYsXoyzmZmyS6E7YICQTQX6++P5v/4VfXv2lF0K2TGDwYB1mzZhybJlKC0rk10O3QIDhGxCp9PhwbFjMfG+++Di4iK7HHIQJaWlWLJsGdZu3AhVVWWXQ9dhgJDVdYuKwgtPP42Qpk1ll0IO6sSpU5g9fz6varczDBCyGg93d7zw1FMYOnCg7FKkKCktRWFREYovXkRJWRnKystRWlaG6upqVNXUoLq6GrW1tTAajVBVFaqqQqfTQafTwUmng6ur65Vnont5eFz5eyNv7wZ5/68avR7fLV+OZatXc7aWnWCAkFV079wZ/3z+efj7+souxWqMRiNyz59HWkYG0jMzkZuXh3Pnz+NcXh4KCgutepGci7MzAv39ERQYiKDLXwMC0DIkBM2Dg+v1Q7NOp6Vh9vz5OJ2WJruUBo8BQhbl6uKCp//8Z4wdMUJ2KRZVVV2N5JQUnE5Lw9mMDKSlp+NsZiaqa2pkl3YDZ2dnhIaEICw0FGGtWiGsVSu0ad0arvXo3JPBYMCPP/+MJcuWcW9EIgYIWUyH9u0x+YUX0Cw4WHYpdVZSWopjyck4euIEjp08iVOpqQ59tbRWq0X7sDBERUYiqkMHdIyIgLubm+yy6uzkqVOYMXcuzuXlyS6lQWKAUJ1pNBo8/tBDeGTCBGg0GtnlCDEYDDiWnIz4Awdw4MgRpNfzaxA0Gg3ahIaia6dO6NuzJyLatXPYf7uy8nLMXbgQO/bskV1Kg8MAoTpp7O2Nqa++iq6dOskuxWxl5eU4cPgw9iYkYN+hQygrL5ddkjSNvb3Rp2dP9O3ZE92johxyqvWvW7Zg/qJFdnlYsb5igJCwjuHhmPbaa/Br0kR2KSarrq7Grn37sHnHDhw+etShD0tZi7OzM3p17Yphgwahd7du0Ol0sksyWXpmJqbPns3pvjbCACEh948Zg6cfe8whZvuoqoqjJ05gU2wsdsbHo6KyUnZJDsPbywsx/ftj+ODBaNu6texyTFJRWYn3P/kE8QkJskup9xggZBZ3NzdM+sc/0L9PH9ml3FFhURHWbdqETbGxPMlqAa1CQjBy6FCMGDIEHu7ussu5LVVV8dUPP+D7lStll1KvMUDIZIH+/pg5bRpaNm8uu5TbSklNxap167B9924++c4K3FxdMWLIEIy/5x67vxlm7O7d+OjTT3lexEoYIGSS8LZt8e4bb8DHTq+ANhqNiD9wACvXrUPSiROyy2kQFEVBn+7dcd+996KLHU+iSElNxVuzZiEvP192KfUOA4TuqH+fPvi/F1+0y5k5BoMBW+Pi8N3y5cg5d052OQ1W+zZt8PjDD6NX166yS7mpwqIi/N+77yI1PV12KfUKA4Ru66Fx4/DUY49BsbN/SKPRiB179uDrH39EVk6O7HLokg7t2uHxhx9G986dZZdyg7Lycrz5wQc4yj1Ui2GA0E1pNBq8/MwzGDV0qOxSrqGqKuL27sU3P/7IBw7ZsY7h4Xji4Yft7tBWTU0N3ps7l089tBAGCN1Ap9PhzVdfRb/evWWXco3jycn4dNEipKSmyi6FTBTdowee+8tf7Opku8FgwCeff44NW7fKLsXhmbONvzzhX9c6ImKaqR0wQByLs7Mz3pk8GX169JBdyhUFRUX49xdfYMFXX6GwqEh2OWSGrJwcrN20CZVVVejQrh2cnJxklwSNRoO+PXtCX1uLYydPyi7H4TFACADg6uqKmVOnoltUlOxSAAB6vR4r1q7FO7Nn49SZM7LLIUFGoxHHk5Oxcds2eHt7I6xVK7s4p9YtKgq1BgOOMkTqhAFC8HB3x4f/+hc6RkTILgUAcDAxEdNmzkQsr+WoNyqrqrBn/34cPnoUHcPD4e3lJbskdO3UCTV6PY4lJ8suxWExQBq4Rt7e+Ojtt9G+TRvZpaCyshKfLlqEBV99hZKyMtnlkBXk5efj161b4ezsjIi2baXvjXSLikJlVRVO/P677FXjkHgSvQHz9PDA3PfeQ2iLFrJLweGjRzF7/nycv3BBdilkIxFt2+Kf//iHXdzdYMHixVi1fr1V+9BoNPD39UVQYCCCAwLg7+eHRl5e8L70x9PDA05OTlcea6woCi6WlqKoqAiFxcUoLCpCVm4usrKzkZWbi/KKCqnrjLOwrMDTwwMBfn5o3KgRvDw94e3lBTdXV7i4uMDVxQW6S78YGkWBCqBWr4e+thbVNTUoKCxEfmHhla+lVvwU7urqio/eegsR7dpJXV+VVVX48ptv8MvGjVLrIDmcdDo88cgjeHDsWOl7I//58kv88ttvFmnL1cUFEe3aISw0FG1atULrVq3Qsnlzi96ANL+wEKfOnEFySgp+P30aySkpNg0VBogg3yZNENaqFVq1aIEgf38EXvoT4O9v0Se91dTUIL+wENm5ucjKzUV2Ts4fX3Nzcf7CBeHHeTrpdJg5bZr053gknz6NGR9/jNzz56XWQfL17NIFk198EY0l3i5HVVW8O2cOdsbHm/1enU6HqA4d0LVTJ3Tu2BHtWre2+a3wDQYDTp05g4OJiTiYlITjyclWfeQvA8QEQQEBiAwPR5tWra48Z7qRt7fssqDX65GRnY3Tqak4ffYszqSl4czZs3f8BKLRaPDWpEno16uX1Pp//vVXLPz6a54kpyt8fXww5ZVX0DkyUloNNXo9Xp8+3aQpvq6urujdrRv69eqF3t27291diktKS7F7/37s3LMHh6zw/BsGyE0E+vujc8eO6BwZiS4dOyLQ3192SWY5l5eH30+fxrHkZBxPTsbptLRrPoX834svYujAgdLqq6isxOz584U+5VH9p9Fo8KcHHsDE+++X9pjd0rIyvDRlCjKys2/6esfwcIyIicHAvn3h5uoqc3WZrKS0FFvj4vDr5s1Iy8iwSJsMEPzxC9spIgJ39emD6B49EBQQILski6qqrkZySgpO/P47/Hx9MXzQIGm1nDl7Fu/Mno3s3FzZq4XsXLeoKLz52mvw8vSU0v/5vDy88MYbKCwuBgC4ODtjZEwMxo4ciZBmzWSvnjpJTknBL7/9hq1xcXXaK2mwAeLk5ITuUVFXQsMeDknVd1t27sScBQug1+tll0IOonlwMN6bMgXNmzaV0n9Kaiqmf/QRhg8ahLGjRqGRHVy7Ykn5BQVYuW4d1m/eLPSkzgYXIO3DwjBy6FAMvusuuzteWZ8tWbYM3y1fLrsMckCeHh54a9Ik6RM+6rOy8nL8tGYNVq1bh6rqapPf1yACxNvTE0MHDsSImBi0btlSdjkNSo1ej9nz52NbXJzsUsiBaTQavPDUUxh9992yS6nXioqLsXTFCqzdtMmkQ1v1OkBat2yJB8eNw8DoaLu4iVtDc7GkBP+aNQvHeZsIspD7R4/GM48/Lv16kfouIysL8/77Xxw+evS2y9XLAOkWFYWHxo2zy4faNBSZ2dmYMmMGr+8gi7t78GC8+txzFr0gj24udvdufPbVVyi4xV2w602AKIqCwXfdhQfHjkWb0FDbdEo3lXr2LF6fPh3FJSWyS6F6qn+fPpjy8ss8smADZeXl+HTRImzZseOG1+pFgET36IEnJ060i/s5NXTJp0/jjXffteotWIgAoEeXLnj79dfh6uIiu5QGYfe+fZi7cOE1HwwdOkCiOnTAXx97DJHt21uvEzLZ0RMnMHXmTKHpgEQiIsPDMXPqVM6otJGCoiK89/HHV54r75BPJGzRrBkmv/QSnnz0UQT4+Vl7nZEJDiYmYurMmWZNASSqqwv5+Th28iQG3XWXze871RC5u7lh2MCB0Ov1VybHOEyAuLq44IlHHsHkF190+CtB65P9hw/jX++/jxpeIEgS5OXnIzklBQP79eOJdRvQaDTo3rkzQlu2xK59+6Gqpt2sUWqA9OvVCzOmTkXv7t2l3R+HbnT05Em8OXMmw4Okyj1/Hmnp6RgQHc3tg420bN4cWo32jlN9L5PyrxLg74+ZU6di+uTJPFxlZ06npWHazJmorqmRXQoR9hw4gFnz5ln19uV0rWbBQSYva/MDjMMHD8bzTz7JE2R2KDMnB//3zjvSn4hGdLVtcXHwdHfHi3/7m+xS6Do2C5DG3t545bnnpD+vgm4uLz8fk3mdB9mpXzZuRLOmTXHfvffKLoWuYpMA6durF1599lmpTyWjWystK8Pkd95BXn6+7FKIbmnhkiVoGhSE6B49ZJdCl1j1HIhWq8U//vpXvDN5MsPDThkMBrwzezYyb/GQHSJ7oaoqZsydi9SzZ2WXQpdYbQ/Er0kT/GvSJHRo1072GOk25i9aZPKMCyLZqqqqMHXmTMyfNQtNfHxkl3OD6upqnM3MxPkLF5CXn4/8ggIUXbyImpoaVFVXo0avh5uLC7y9vdHIywtNGjdGi+bN0SokBAH+/g53Q0mrBEjXTp0w9ZVX6u1eh6qqKK+oQElpKUrLylBaVobyigoYjUYYjUaoqgqjqgL449yPn68v/H19pT2F7VbWbNiAXzZulF0GkVkuFBTgrVmzMPe996RfaHguLw8JR47g6IkTSElLQ1ZOjvCMMVdXV0S0bYsuHTuiS6dOCG/Txu6vgbH42n9o3Dg8+eijdj/wOzEajcjMycHZjAzknDuHnHPnkHv+PHLOn0d+QYHQL4mLszP8fH3h16QJgoOCENK0KUKaNUOrkBAEBwba9NPHwcREzF+82JarlMhiTqak4ItvvsHfn3zS5n2npKZiy44diE9IQM65cxZrt6qqCoePHv3jiMAPP8Db0xP9o6MxpH9/dIqIsMtrYSwWIBqNBq8+9xxGDBkie0xC8vLzkXTiBE6dPo1Tqak4nZaGqiqTbg9msuqaGmTn5iI7NxeJx49f85q7mxvCQkPRPiwMkeHh6BgeDp/Gja0y1szsbLwzezbn1pNDW7V+PTpHRqJf795W76u0rAzrN2/Gpu3bkWGj84Ull/pcv3kzAvz8MH7UKIwcOhSeHh426d8UFrmZorubG96aNMmhntVRVl6OxGPHcDApCYcSE5GVmyu7pBs0Dw5Gjy5d0KNrV3SOjISbq2ud2ywqLsYLb7yBc3l5sodHVGce7u74fM4cBAUEWKX9c3l5WLl2LTZs3WoX94Rzc3XFPcOG4ZEJE9DI29sqfezYswfvzplj0rJ1DhB/X1/MmDrVIR4rW1Jail379iF2924cOXbMoT6BOzs7o2eXLhgQHY3onj3h7uZmdhuVlZV45c03cTotTfZwiCymfVgYPpkxw6LPEblYWorvfvoJv2zcaNJjYG3Nw90dD40bh/vuvRcuFr71vc0CJLRFC7z/5pvwa9LEZivOXNXV1Yjdswexu3bhYFKSQ4XGrTg7O6N/nz4YGRODzpGRJp07MRgMmDpzJhKOHJFdPpHFjRkxAi8+/XSd2zEYDFi1bh2+W7HCIe7IEODvj9eee86iR3+279qFGXPnmrTs5S2Pc8yECSbtn10OkDahoZj11lto5OVl85VmioysLKzdtAmbtm93iF8EUcGBgYgZMADDBg5Es+DgWy734bx52BQbK7tcIqt5+ZlncO/w4cLvT8/MxIfz5uH3M2dkD8VsI2Ni8Mzjj1vk/MiGLVsw57PPTFr2coBoYyZMqDXlDaoKRLRriw/efNOuTub8UZuK+IQErFy79oaT1A1BRNu2GDpoEAb163dNsC9auhQ/rFoluzwiq9JoNPjwX/9Cl06dzHqf0WjET2vW4Otly6CvNWkzaJeCAwPx9uuvI6xVqzq1s2LtWixcssSkZS8HiBIzYYLJx3aWffmlXR22MhqN2LFnD75fuRJpGRmyy5FOq9WiV9euGDZoEPILC7GA03WpgfDy9MSnH3xw273xq+WcO4dZ8+ZdeZCSo3N2dsbLzzyD4YMGCbcxf9EirP71V5OWvTyNV1VVVVVMvBChsKjILgLEaDRi686dWLpihV3OopLFYDAgPiEB8QkJskshsqnSsjJMe/99zHv//TseIVm/eTM+W7LE4tP1ZaqpqcGH8+YhKycHTz76qFAb6VlZJi975ToQRVFU/G+P5LZOnTmDdmFhUlfUkWPHsHDJEs4oIqJrZGZn472PP8aMKVNuekFzUXEx5ixYgL0HD8ou1Wq+X7kSF0tK8NLf/mbWBYhGoxEpqakmL39l7bYOD58MRTFpHpybmxsGREdLWTGZOTmYM38+Fi1disLiYik1EJF9yzl3DuXl5ejVrds1P4/buxdvvPcezjSAGzKmpKYiMycHd/XubfJdLlJSU7F6/XqT+7iyB6ICWQpg0p0PDyYmora21qb3odHr9Vi6ciV+WLXKLudlE5F9Wf3rr2gZEoJ7hw9HeUUFPv3vf7F5xw7ZZdlU7O7d8HB3xyvPPmvS8nv27ze5bScnJ/XKHkiriIhgRVH6m/LG6poatG/bFiFNm9pkJZw4dQpTZsxA3N69UC/dpJCI6E4OHDkCV2dnfPjppzh68qTscqRISU1FdU3NHa8VUVUVH82fb/JlD21atTJeCRCf0NCjrjrdP009kV5ZVYUh/U3KG2HV1dX4/Jtv8MnChbjIJ+URkZlUVcXBxMR6fS2YKY4nJyMwIABtQkNvuczehASs27TJ5DbDQkPPXzm7cnjDhgsAakx9896EBKtOmU3PzMTzkydj9fr13OsgIqqjTz7/HL+fPn3L179dvtys9pycnD6/5vS8Amwxp4HFS5daZaAbtm7F319/HWczM63SPhFRQ6PX6/H2hx+irLz8hte279qFU2ZcgR8cGKi+M3ny9GsCpMJgeBmAyR/34xMSLDoVrqq6GjM/+QRzFixAdY3JO0NERGSCCwUFmPfll9f8rKy8HAu++sqsdkKaNs0Ernsm+p41a8717t7drONFcy10fiK/oACvTJuGbXFxVlp1RES0NS4OO+Pjr3w/Z8ECFJlxSYRWq1UNRuNTwHUBoihK2d2DB5t1TX9BYSE++Pe/6zS19tSZM3h+8mSzLmAhIiIx//niC5SVl2P5L78gbu9es94b1aFD5YdvvbUZuC5AAGBAdPSTUR06mNXggSNH8J/rdotMtTM+Hi9Pm4aCoiKbrTwiooasuKQEM+bOxedff23W+zQajRrStOkrV76/fgFFUfYNHTjwmLkFrd+8GfMXLzZrxtSGrVvx7pw5qOH5DiIim1FV4MDhw2a/LyqiQ8VLzzzzxeXvb3qTlFFDh97Tt3dvs+fOrl6/HjPmzkW1CY9+XLV+PeYsWMApukRENnSzx5KbwtPDQ23RvNnoq3920wBRFCVj1ODB81wFHpUYu3s3np88Gem3mYK7dMUK3mKciMiGVFU8PACgb69eJ1565pntV//slk2pqqpd9N13uT+sXu0v0plOp8MDY8Zg4v334+og+n7lSiz+/nspK5CIqKG5+iCPaHh0aN++9j8zZ3ooinLN+YZb3g1RURSDqqpdUjMyMvcdPGj6/YAvqa2txQ+rVmHDli24b/RojL77bmyLi2N4EBHZgCWCAwB8fXzU7lFR464PD8CE53/E7dv3yMKvvlp6Li+vDiX88ZQ8g8FwZVB1GRAREd3o+lPKdd3OXjqS9P1Tjz028Wavm9T8qvXr3/9u+fLJF0tKLLbZ57lzIiLLs9SHc0VR8MCYMQefefzxHrdcxtTGlq1evfTb5csfrU+PfyQiopu7f/TojGefeKLVpafV3pTJ5zYeHj9+4vhRo7739PDgvgMRUT2lKAoeGjcu+9knnmh/u/AAzNgDuWzp8uUfrdm48bWCwkKexSAiqkecnJzUPz3wwLFH77uvm6IotXda3uzZVRMfeGDSsIEDJ7Zv08Yoe7BERGQhKmofHDv2q0fvu6+zKeEBCOyBXJaYmBjwy5Ytx2J37xa6ToSIiOyDqqo5peXlfQ5s2mTWQ5jqfBhq7mefLUw6efJvGVlZPKRFRORYDEaDOn/7mtUvibzZIhv9zZs3N9qblLT7YGJih9KyMgYJEZEdU/+4CeEBpaRkzNatW8+LtmPRjf3bH3zQYse+fXM1ijIWgFb2SiIiov9RVVVVgH1VtbVP7V679nhd2/t/+E3n30LBQTEAAAAldEVYdGRhdGU6Y3JlYXRlADIwMjAtMDQtMDNUMDc6Mjc6MTArMDA6MDDHVXucAAAAJXRFWHRkYXRlOm1vZGlmeQAyMDIwLTA0LTAzVDA3OjI3OjEwKzAwOjAwtgjDIAAAAABJRU5ErkJggg==;strokeWidth=102;spacingTop=-3;spacingBottom=-3;spacingLeft=-3;spacingRight=-3;labelBackgroundColor=none;rounded=0;html=1;whiteSpace=wrap;dashed=1;fontSize=10;fontColor=#AE562C;" parent="gP81K4ogqWe0er_8T8x9-12" vertex="1">
          <mxGeometry width="55" height="55" as="geometry" />
        </mxCell>
        <mxCell id="gP81K4ogqWe0er_8T8x9-14" value="Internal &#xa;Load Balancer" style="shape=image;verticalLabelPosition=bottom;verticalAlign=top;imageAspect=0;aspect=fixed;image=data:image/svg+xml,PHN2ZyB4bWxucz0iaHR0cDovL3d3dy53My5vcmcvMjAwMC9zdmciIHhtbG5zOnhsaW5rPSJodHRwOi8vd3d3LnczLm9yZy8xOTk5L3hsaW5rIiB2ZXJzaW9uPSIxLjEiIGlkPSJMYXllcl8xIiB4PSIwcHgiIHk9IjBweCIgdmlld0JveD0iMCAwIDQyLjM4OTk5OTM4OTY0ODQ0IDQyIiBzdHlsZT0iZW5hYmxlLWJhY2tncm91bmQ6bmV3IDAgMCA0Mi4zOCA0MjsiIHhtbDpzcGFjZT0icHJlc2VydmUiIHdpZHRoPSI0Mi4zODk5OTkzODk2NDg0NCIgaGVpZ2h0PSI0MiI+JiN4YTs8c3R5bGUgdHlwZT0idGV4dC9jc3MiPiYjeGE7CS5zdDB7ZmlsbDojRkZGRkZGO30mI3hhOwkuc3Qxe2ZpbGw6bm9uZTt9JiN4YTsJLnN0MntmaWxsOiMyQzU5Njc7fSYjeGE7PC9zdHlsZT4mI3hhOzxnPiYjeGE7CTxnPiYjeGE7CQk8Zz4mI3hhOwkJCTxwYXRoIGNsYXNzPSJzdDAiIGQ9Ik0zNC4yLDQxLjV2LTIuNDhoMy4wMUwyMy4xNiwyNC45NmMtMC4zNyw0Ljc2LTEuNDYsOC45NS0zLjE3LDEyLjE4Yy0yLjEsMy41Ni00LjIyLDQuMjktNS42Myw0LjI5JiMxMDsmIzk7JiM5OyYjOTsmIzk7Yy0wLjI1LDAtMC41MS0wLjAyLTAuNzYtMC4wN2MtNC4wMy0wLjc0LTYuNDYtNi43OS03LjQtMTIuMjFjLTAuMzgtMi4wMy0wLjYyLTQuNDEtMC42Ny02LjkxSDAuNXYtMi40OGg1LjAzJiMxMDsmIzk7JiM5OyYjOTsmIzk7YzAuMDYtMi41OSwwLjMxLTUuMDcsMC43Mi03LjE3QzcuNTYsNS4yMywxMC42OSwwLjY0LDE0LjQyLDAuNmMyLjE4LDAsNi4wOCwxLjU5LDguMTgsMTIuMjNjMC4yNCwxLjM1LDAuNDEsMi43NSwwLjUzLDQuMiYjMTA7JiM5OyYjOTsmIzk7JiM5O0wzNy4xNywyLjk4SDM0LjJWMC41aDcuM3Y3LjNoLTIuNDhWNC42NEwyMy45LDE5Ljc2aDEyLjg4bC0yLTEuOTFsMS43MS0xLjhsNS4xNyw0LjkybC01LjE0LDUuMTRsLTEuNzUtMS43NWwyLjEyLTIuMTNIMjMuOTUmIzEwOyYjOTsmIzk7JiM5OyYjOTtsMTUuMDcsMTUuMDdWMzQuMmgyLjQ4djcuM0gzNC4yeiIvPiYjeGE7CQkJPHBhdGggY2xhc3M9InN0MCIgZD0iTTQxLDF2Ni4zaC0xLjQ4VjMuNDRMMjIuNzksMjAuMTdjMCwwLjAzLDAsMC4wNiwwLDAuMDloMTUuMjVsLTIuNTUtMi40M2wxLjAyLTEuMDdsNC40NCw0LjIzbC00LjQzLDQuNDMmIzEwOyYjOTsmIzk7JiM5OyYjOTtsLTEuMDUtMS4wNWwyLjYyLTIuNjJIMjIuNzljMCwwLjAyLDAsMC4wMywwLDAuMDVsMTYuNzIsMTYuNzJWMzQuN0g0MVY0MWgtNi4zdi0xLjQ4aDMuNzJsLTE1LjctMTUuNyYjMTA7JiM5OyYjOTsmIzk7JiM5O2MtMC4yNSw0LjU3LTEuMTcsOS4yOC0zLjE4LDEzLjA4bC0wLjAyLDAuMDRjLTEuODgsMy4xOS0zLjc1LDMuOTktNS4xNywzLjk5Yy0wLjI0LDAtMC40Ny0wLjAyLTAuNjgtMC4wNiYjMTA7JiM5OyYjOTsmIzk7JiM5O2MtMy43OC0wLjY5LTYuMTMtNi43OS02Ljk5LTExLjgxYy0wLjQyLTIuMi0wLjY0LTQuNzUtMC42OC03LjMySDF2LTEuNDhoNS4wMmMwLjA0LTIuNjcsMC4yOC01LjMxLDAuNzItNy41OCYjMTA7JiM5OyYjOTsmIzk7JiM5O0M4LDUuNTcsMTAuOTUsMS4xMywxNC40MiwxLjFjMC4wMSwwLDAuMDIsMCwwLjA0LDBjMiwwLDUuNjIsMS41NSw3LjY0LDExLjgybDAsMC4wMmMwLjI3LDEuNTYsMC40OSwzLjMzLDAuNiw1LjIxTDM4LjM4LDIuNDgmIzEwOyYjOTsmIzk7JiM5OyYjOTtIMzQuN1YxSDQxIE00MiwwaC0xaC02LjNoLTF2MXYxLjQ4djFoMWgxLjI2TDIzLjUzLDE1LjkyYy0wLjExLTEuMDktMC4yNi0yLjE0LTAuNDQtMy4xNUMyMS4wMiwyLjI5LDE3LjI2LDAuMSwxNC40NiwwLjEmIzEwOyYjOTsmIzk7JiM5OyYjOTtjLTQuMDksMC4wNC03LjMzLDQuNjgtOC43MSwxMi40MWMtMC4zOSwxLjk5LTAuNjMsNC4zMS0wLjcxLDYuNzVIMUgwdjF2MS40OHYxaDFoNC4wNGMwLjA4LDIuMzQsMC4zMSw0LjU4LDAuNjcsNi41MSYjMTA7JiM5OyYjOTsmIzk7JiM5O2MwLjk2LDUuNTcsMy41MSwxMS44Miw3LjgsMTIuNmMwLjI4LDAuMDUsMC41NywwLjA4LDAuODYsMC4wOGMxLjU0LDAsMy44NC0wLjc4LDYuMDMtNC40OGwwLTAuMDFsMC4wMy0wLjA1JiMxMDsmIzk7JiM5OyYjOTsmIzk7YzEuNjItMy4wNiwyLjY5LTYuOTQsMy4xNC0xMS4zM2wxMi40NSwxMi40NUgzNC43aC0xdjFWNDF2MWgxSDQxaDF2LTF2LTYuM3YtMWgtMWgtMS40OGgtMXYxdjEuNEwyNS4xNiwyMi43NGgxMC41M2wtMC45MiwwLjkyJiMxMDsmIzk7JiM5OyYjOTsmIzk7bC0wLjcxLDAuNzFsMC43MSwwLjcxbDEuMDUsMS4wNWwwLjcxLDAuNzFsMC43MS0wLjcxbDQuNDMtNC40M2wwLjcyLTAuNzJsLTAuNzQtMC43MWwtNC40NC00LjIzbC0wLjcyLTAuNjlsLTAuNjksMC43MiYjMTA7JiM5OyYjOTsmIzk7JiM5O2wtMS4wMiwxLjA3bC0wLjY5LDAuNzJsMC43MiwwLjY5bDAuNzQsMC43SDI1LjExTDM4LjUyLDUuODVWNy4zdjFoMUg0MWgxdi0xVjFWMEw0MiwweiIvPiYjeGE7CQk8L2c+JiN4YTsJCTxnPiYjeGE7CQkJPHBhdGggY2xhc3M9InN0MSIgZD0iTTE0LjQ2LDIuOTVjLTAuMDEsMC0wLjAxLDAtMC4wMiwwYy0xLjk3LDAuMDItNC42NiwzLjE4LTUuODgsMTAuMDZsMCwwLjAyYy0wLjQyLDIuMTctMC42NSw0LjY4LTAuNjksNy4yMyYjMTA7JiM5OyYjOTsmIzk7JiM5O2g4Ljg4bC0yLjc0LTIuNjFsMS4wMi0xLjA3bDQuNjIsNC40MWwtNC40Myw0LjQybC0xLjA1LTEuMDVsMi42Mi0yLjYySDcuODZjMC4wNCwyLjQ2LDAuMjUsNC44OSwwLjY1LDYuOTkmIzEwOyYjOTsmIzk7JiM5OyYjOTtjMC45Niw1LjU3LDMuMjcsOS45LDUuNTEsMTAuMzFjMC4xMSwwLjAyLDAuMjMsMC4wMywwLjM0LDAuMDNjMS40MywwLDIuNzEtMS42MywzLjU2LTMuMDZjMy4yOS02LjI1LDMuNTYtMTUuOTIsMi4zNi0yMi43NSYjMTA7JiM5OyYjOTsmIzk7JiM5O0MxOC43OCw1LjY2LDE2LjI5LDIuOTUsMTQuNDYsMi45NXoiLz4mI3hhOwkJCTxwYXRoIGNsYXNzPSJzdDIiIGQ9Ik00MSw3LjNWMWgtNi4zdjEuNDhoMy42N0wyMi43MSwxOC4xNWMtMC4xMS0xLjg4LTAuMzItMy42NS0wLjYtNS4yMWwwLTAuMDJDMjAuMDgsMi42NSwxNi40NiwxLjEsMTQuNDYsMS4xJiMxMDsmIzk7JiM5OyYjOTsmIzk7Yy0wLjAxLDAtMC4wMiwwLTAuMDQsMEMxMC45NSwxLjEzLDgsNS41Nyw2Ljc0LDEyLjY4Yy0wLjQ0LDIuMjctMC42OCw0LjkxLTAuNzIsNy41OEgxdjEuNDhoNS4wMWMwLjA0LDIuNTgsMC4yNiw1LjEyLDAuNjgsNy4zMiYjMTA7JiM5OyYjOTsmIzk7JiM5O2MwLjg2LDUuMDEsMy4yMSwxMS4xMSw2Ljk5LDExLjgxYzAuMjEsMC4wNCwwLjQ0LDAuMDYsMC42OCwwLjA2YzEuNDEsMCwzLjI4LTAuOCw1LjE3LTMuOTlsMC4wMi0wLjA0JiMxMDsmIzk7JiM5OyYjOTsmIzk7YzIuMDEtMy44LDIuOTMtOC41MSwzLjE4LTEzLjA4bDE1LjcsMTUuN0gzNC43VjQxSDQxdi02LjNoLTEuNDh2My44MUwyMi43OSwyMS43OWMwLTAuMDIsMC0wLjAzLDAtMC4wNUgzOC4xbC0yLjYyLDIuNjImIzEwOyYjOTsmIzk7JiM5OyYjOTtsMS4wNSwxLjA1bDQuNDMtNC40M2wtNC40NC00LjIzbC0xLjAyLDEuMDdsMi41NSwyLjQzSDIyLjc5YzAtMC4wMywwLTAuMDYsMC0wLjA5TDM5LjUyLDMuNDRWNy4zSDQxeiBNMTcuOTIsMzYuMDImIzEwOyYjOTsmIzk7JiM5OyYjOTtjLTAuODUsMS40My0yLjEzLDMuMDYtMy41NiwzLjA2Yy0wLjExLDAtMC4yMy0wLjAxLTAuMzQtMC4wM2MtMi4yMy0wLjQxLTQuNTUtNC43NC01LjUxLTEwLjMxYy0wLjQtMi4xMS0wLjYxLTQuNTQtMC42NS02Ljk5JiMxMDsmIzk7JiM5OyYjOTsmIzk7aDguOTRsLTIuNjIsMi42MmwxLjA1LDEuMDVsNC40My00LjQybC00LjYyLTQuNDFsLTEuMDIsMS4wN2wyLjc0LDIuNjFINy44NmMwLjA0LTIuNTUsMC4yNy01LjA2LDAuNjktNy4yM2wwLTAuMDImIzEwOyYjOTsmIzk7JiM5OyYjOTtjMS4yMi02Ljg5LDMuOTEtMTAuMDQsNS44OC0xMC4wNmMwLjAxLDAsMC4wMSwwLDAuMDIsMGMxLjgzLDAsNC4zMiwyLjcxLDUuODMsMTAuMzJDMjEuNDgsMjAuMDksMjEuMjEsMjkuNzcsMTcuOTIsMzYuMDJ6Ii8+JiN4YTsJCTwvZz4mI3hhOwk8L2c+JiN4YTs8L2c+JiN4YTs8L3N2Zz4=;dashed=1;fontSize=6;fontColor=#AE562C;strokeColor=#AE562C;strokeWidth=2;fillColor=#E6E6E6;" parent="gP81K4ogqWe0er_8T8x9-1" vertex="1">
          <mxGeometry x="754" y="362" width="22" height="22" as="geometry" />
        </mxCell>
        <mxCell id="gP81K4ogqWe0er_8T8x9-15" value="&lt;p style=&quot;font-size: 8px;&quot;&gt;&lt;font style=&quot;font-size: 8px;&quot;&gt;&lt;font style=&quot;font-size: 8px;&quot; color=&quot;#ae562c&quot;&gt;&amp;nbsp;NLB Subnet&lt;br style=&quot;font-size: 8px;&quot;&gt;&lt;/font&gt;&lt;/font&gt;&lt;span style=&quot;background-color: initial; font-size: 8px;&quot;&gt;&lt;font style=&quot;font-size: 8px;&quot;&gt;&amp;nbsp;172.16.140.0/28&lt;/font&gt;&lt;/span&gt;&lt;/p&gt;" style="text;html=1;strokeColor=none;fillColor=none;align=left;verticalAlign=middle;whiteSpace=wrap;rounded=0;dashed=1;horizontal=1;labelPosition=center;verticalLabelPosition=middle;fontSize=8;" parent="gP81K4ogqWe0er_8T8x9-1" vertex="1">
          <mxGeometry x="610" y="210" width="100" height="30" as="geometry" />
        </mxCell>
        <mxCell id="gP81K4ogqWe0er_8T8x9-16" value="&lt;p style=&quot;font-size: 8px;&quot;&gt;&lt;font style=&quot;font-size: 8px;&quot;&gt;&lt;font style=&quot;font-size: 8px;&quot; color=&quot;#ae562c&quot;&gt;&amp;nbsp;Untrust subnet&lt;br style=&quot;font-size: 8px;&quot;&gt;&lt;/font&gt;&lt;/font&gt;&lt;span style=&quot;background-color: initial; font-size: 8px;&quot;&gt;&lt;font style=&quot;font-size: 8px;&quot;&gt;&amp;nbsp;172.16.140.32/28&lt;/font&gt;&lt;/span&gt;&lt;/p&gt;" style="text;html=1;strokeColor=none;fillColor=none;align=left;verticalAlign=middle;whiteSpace=wrap;rounded=0;dashed=1;horizontal=1;labelPosition=center;verticalLabelPosition=middle;fontSize=8;" parent="gP81K4ogqWe0er_8T8x9-1" vertex="1">
          <mxGeometry x="610" y="280" width="100" height="30" as="geometry" />
        </mxCell>
        <mxCell id="gP81K4ogqWe0er_8T8x9-17" value="&lt;p style=&quot;font-size: 8px;&quot;&gt;&lt;font style=&quot;font-size: 8px;&quot;&gt;&lt;font style=&quot;font-size: 8px;&quot; color=&quot;#ae562c&quot;&gt;&amp;nbsp;Trust subnet&lt;br style=&quot;font-size: 8px;&quot;&gt;&lt;/font&gt;&lt;/font&gt;&lt;span style=&quot;background-color: initial; font-size: 8px;&quot;&gt;&lt;font style=&quot;font-size: 8px;&quot;&gt;&amp;nbsp;172.16.140.64/28&lt;/font&gt;&lt;/span&gt;&lt;/p&gt;" style="text;html=1;strokeColor=none;fillColor=none;align=left;verticalAlign=middle;whiteSpace=wrap;rounded=0;dashed=1;horizontal=1;labelPosition=center;verticalLabelPosition=middle;fontSize=8;" parent="gP81K4ogqWe0er_8T8x9-1" vertex="1">
          <mxGeometry x="610" y="380" width="100" height="33" as="geometry" />
        </mxCell>
        <mxCell id="icMmrZXRUFi3QSLDr5Xm-0" value="" style="shape=image;verticalLabelPosition=bottom;verticalAlign=top;imageAspect=0;aspect=fixed;image=data:image/svg+xml,PHN2ZyB4bWxucz0iaHR0cDovL3d3dy53My5vcmcvMjAwMC9zdmciIHhtbG5zOnhsaW5rPSJodHRwOi8vd3d3LnczLm9yZy8xOTk5L3hsaW5rIiB2ZXJzaW9uPSIxLjEiIGlkPSJMYXllcl8xIiB4PSIwcHgiIHk9IjBweCIgdmlld0JveD0iMCAwIDQyIDQyIiBzdHlsZT0iZW5hYmxlLWJhY2tncm91bmQ6bmV3IDAgMCA0MiA0MjsiIHhtbDpzcGFjZT0icHJlc2VydmUiIHdpZHRoPSI0MiIgaGVpZ2h0PSI0MiI+JiN4YTs8Zz4mI3hhOwk8Zz4mI3hhOwkJPHJlY3QgeD0iMC41IiB5PSIwLjUiIHN0eWxlPSJmaWxsOiNGRkZGRkY7IiB3aWR0aD0iNDEiIGhlaWdodD0iNDEiLz4mI3hhOwkJPHBhdGggc3R5bGU9ImZpbGw6I0ZGRkZGRjsiIGQ9Ik00MSwxdjQwSDFWMUg0MSBNNDIsMGgtMUgxSDB2MXY0MHYxaDFoNDBoMXYtMVYxVjBMNDIsMHoiLz4mI3hhOwk8L2c+JiN4YTsJPGc+JiN4YTsJCTxwYXRoIHN0eWxlPSJmaWxsOiNCQjUwMUM7IiBkPSJNMSwxdjQwaDQwVjFIMXogTTM5LjUsMTMuOEgxMy42VjIuNWgyNS45VjEzLjh6IE0yLjUsMjguMmg5LjZ2MTEuNEgyLjVWMjguMnogTTEyLjEsMi41djExLjRIMi41JiMxMDsmIzk7JiM5OyYjOTtWMi41SDEyLjF6IE0xMi4xLDE1LjN2MTEuNEgyLjVWMTUuM0gxMi4xeiBNMTMuNiwzOS41VjI4LjJoMjUuOXYxMS40SDEzLjZ6IE0xMy42LDI2LjdWMTUuM2gyNS45djExLjRIMTMuNnoiLz4mI3hhOwkJPHBvbHlnb24gc3R5bGU9ImZpbGw6I0JCNTAxQzsiIHBvaW50cz0iMTUsMTIuMyAxNi43LDEyLjMgMTcuNiwxMC42IDE4LjUsMTIuMyAyMC4xLDEyLjMgMTguNiw5LjYgMjAsNy4xIDE4LjQsNy4xIDE3LjYsOC43ICYjMTA7JiM5OyYjOTsmIzk7MTYuNyw3LjEgMTUuMSw3LjEgMTYuNiw5LjYgJiM5OyYjOTsiLz4mI3hhOwkJPHJlY3QgeD0iMjAuOSIgeT0iMTEuMSIgc3R5bGU9ImZpbGw6I0JCNTAxQzsiIHdpZHRoPSIxLjQiIGhlaWdodD0iMS4yIi8+JiN4YTsJCTxwb2x5Z29uIHN0eWxlPSJmaWxsOiNCQjUwMUM7IiBwb2ludHM9IjI1LDEyLjMgMjUuOSwxMC42IDI2LjgsMTIuMyAyOC40LDEyLjMgMjYuOCw5LjYgMjguMyw3LjEgMjYuOCw3LjEgMjUuOSw4LjcgMjUsNy4xICYjMTA7JiM5OyYjOTsmIzk7MjMuNCw3LjEgMjQuOSw5LjYgMjMuNCwxMi4zICYjOTsmIzk7Ii8+JiN4YTsJCTxyZWN0IHg9IjI4LjkiIHk9IjExLjEiIHN0eWxlPSJmaWxsOiNCQjUwMUM7IiB3aWR0aD0iMS40IiBoZWlnaHQ9IjEuMiIvPiYjeGE7CQk8cG9seWdvbiBzdHlsZT0iZmlsbDojQkI1MDFDOyIgcG9pbnRzPSIzMi43LDEyLjMgMzMuNiwxMC42IDM0LjYsMTIuMyAzNi4xLDEyLjMgMzQuNiw5LjYgMzYsNy4xIDM0LjUsNy4xIDMzLjYsOC43IDMyLjcsNy4xICYjMTA7JiM5OyYjOTsmIzk7MzEuMiw3LjEgMzIuNiw5LjYgMzEuMSwxMi4zICYjOTsmIzk7Ii8+JiN4YTsJCTxyZWN0IHg9IjM2LjYiIHk9IjExLjEiIHN0eWxlPSJmaWxsOiNCQjUwMUM7IiB3aWR0aD0iMS40IiBoZWlnaHQ9IjEuMiIvPiYjeGE7CQk8cG9seWdvbiBzdHlsZT0iZmlsbDojQkI1MDFDOyIgcG9pbnRzPSIyMCwyMC4xIDE4LjQsMjAuMSAxNy42LDIxLjcgMTYuNywyMC4xIDE1LjEsMjAuMSAxNi42LDIyLjYgMTUsMjUuMyAxNi43LDI1LjMgMTcuNiwyMy42ICYjMTA7JiM5OyYjOTsmIzk7MTguNSwyNS4zIDIwLjEsMjUuMyAxOC42LDIyLjYgJiM5OyYjOTsiLz4mI3hhOwkJPHJlY3QgeD0iMjAuOSIgeT0iMjQiIHN0eWxlPSJmaWxsOiNCQjUwMUM7IiB3aWR0aD0iMS40IiBoZWlnaHQ9IjEuMiIvPiYjeGE7CQk8cG9seWdvbiBzdHlsZT0iZmlsbDojQkI1MDFDOyIgcG9pbnRzPSIyOC4zLDIwLjEgMjYuOCwyMC4xIDI1LjksMjEuNyAyNSwyMC4xIDIzLjQsMjAuMSAyNC45LDIyLjYgMjMuNCwyNS4zIDI1LDI1LjMgMjUuOSwyMy42ICYjMTA7JiM5OyYjOTsmIzk7MjYuOCwyNS4zIDI4LjQsMjUuMyAyNi44LDIyLjYgJiM5OyYjOTsiLz4mI3hhOwkJPHJlY3QgeD0iMjguOSIgeT0iMjQiIHN0eWxlPSJmaWxsOiNCQjUwMUM7IiB3aWR0aD0iMS40IiBoZWlnaHQ9IjEuMiIvPiYjeGE7CQk8cG9seWdvbiBzdHlsZT0iZmlsbDojQkI1MDFDOyIgcG9pbnRzPSIzNiwyMC4xIDM0LjUsMjAuMSAzMy42LDIxLjcgMzIuNywyMC4xIDMxLjIsMjAuMSAzMi42LDIyLjYgMzEuMSwyNS4zIDMyLjcsMjUuMyAmIzEwOyYjOTsmIzk7JiM5OzMzLjYsMjMuNiAzNC42LDI1LjMgMzYuMSwyNS4zIDM0LjYsMjIuNiAmIzk7JiM5OyIvPiYjeGE7CQk8cmVjdCB4PSIzNi42IiB5PSIyNCIgc3R5bGU9ImZpbGw6I0JCNTAxQzsiIHdpZHRoPSIxLjQiIGhlaWdodD0iMS4yIi8+JiN4YTsJCTxwb2x5Z29uIHN0eWxlPSJmaWxsOiNCQjUwMUM7IiBwb2ludHM9IjIwLDMyLjkgMTguNCwzMi45IDE3LjYsMzQuNCAxNi43LDMyLjkgMTUuMSwzMi45IDE2LjYsMzUuMyAxNSwzOCAxNi43LDM4IDE3LjYsMzYuMyAmIzEwOyYjOTsmIzk7JiM5OzE4LjUsMzggMjAuMSwzOCAxOC42LDM1LjQgJiM5OyYjOTsiLz4mI3hhOwkJPHJlY3QgeD0iMjAuOSIgeT0iMzYuOCIgc3R5bGU9ImZpbGw6I0JCNTAxQzsiIHdpZHRoPSIxLjQiIGhlaWdodD0iMS4yIi8+JiN4YTsJCTxwb2x5Z29uIHN0eWxlPSJmaWxsOiNCQjUwMUM7IiBwb2ludHM9IjI4LjMsMzIuOSAyNi44LDMyLjkgMjUuOSwzNC40IDI1LDMyLjkgMjMuNCwzMi45IDI0LjksMzUuMyAyMy40LDM4IDI1LDM4IDI1LjksMzYuMyAmIzEwOyYjOTsmIzk7JiM5OzI2LjgsMzggMjguNCwzOCAyNi44LDM1LjQgJiM5OyYjOTsiLz4mI3hhOwkJPHJlY3QgeD0iMjguOSIgeT0iMzYuOCIgc3R5bGU9ImZpbGw6I0JCNTAxQzsiIHdpZHRoPSIxLjQiIGhlaWdodD0iMS4yIi8+JiN4YTsJCTxwb2x5Z29uIHN0eWxlPSJmaWxsOiNCQjUwMUM7IiBwb2ludHM9IjM2LDMyLjkgMzQuNSwzMi45IDMzLjYsMzQuNCAzMi43LDMyLjkgMzEuMiwzMi45IDMyLjYsMzUuMyAzMS4xLDM4IDMyLjcsMzggMzMuNiwzNi4zICYjMTA7JiM5OyYjOTsmIzk7MzQuNiwzOCAzNi4xLDM4IDM0LjYsMzUuNCAmIzk7JiM5OyIvPiYjeGE7CQk8cmVjdCB4PSIzNi42IiB5PSIzNi44IiBzdHlsZT0iZmlsbDojQkI1MDFDOyIgd2lkdGg9IjEuNCIgaGVpZ2h0PSIxLjIiLz4mI3hhOwk8L2c+JiN4YTs8L2c+JiN4YTs8L3N2Zz4=;dashed=1;fontSize=6;fontColor=#B3B3B3;strokeColor=#999999;strokeWidth=2;fillColor=#F5F4F2;opacity=50;" parent="gP81K4ogqWe0er_8T8x9-1" vertex="1">
          <mxGeometry x="900" y="300" width="18" height="18" as="geometry" />
        </mxCell>
        <mxCell id="WaCQjqbNdlPYWuUCs2im-3" value="" style="shape=image;verticalLabelPosition=bottom;verticalAlign=top;imageAspect=0;aspect=fixed;image=data:image/svg+xml,PHN2ZyB4bWxucz0iaHR0cDovL3d3dy53My5vcmcvMjAwMC9zdmciIHhtbG5zOnhsaW5rPSJodHRwOi8vd3d3LnczLm9yZy8xOTk5L3hsaW5rIiB2ZXJzaW9uPSIxLjEiIGlkPSJMYXllcl8xIiB4PSIwcHgiIHk9IjBweCIgdmlld0JveD0iMCAwIDQyIDQyIiBzdHlsZT0iZW5hYmxlLWJhY2tncm91bmQ6bmV3IDAgMCA0MiA0MjsiIHhtbDpzcGFjZT0icHJlc2VydmUiIHdpZHRoPSI0MiIgaGVpZ2h0PSI0MiI+JiN4YTs8Zz4mI3hhOwk8Zz4mI3hhOwkJPHJlY3QgeD0iMC41IiB5PSIwLjUiIHN0eWxlPSJmaWxsOiNGRkZGRkY7IiB3aWR0aD0iNDEiIGhlaWdodD0iNDEiLz4mI3hhOwkJPHBhdGggc3R5bGU9ImZpbGw6I0ZGRkZGRjsiIGQ9Ik00MSwxdjQwSDFWMUg0MSBNNDIsMGgtMUgxSDB2MXY0MHYxaDFoNDBoMXYtMVYxVjBMNDIsMHoiLz4mI3hhOwk8L2c+JiN4YTsJPGc+JiN4YTsJCTxwYXRoIHN0eWxlPSJmaWxsOiNCQjUwMUM7IiBkPSJNMSwxdjQwaDQwVjFIMXogTTM5LjUsMTMuOEgxMy42VjIuNWgyNS45VjEzLjh6IE0yLjUsMjguMmg5LjZ2MTEuNEgyLjVWMjguMnogTTEyLjEsMi41djExLjRIMi41JiMxMDsmIzk7JiM5OyYjOTtWMi41SDEyLjF6IE0xMi4xLDE1LjN2MTEuNEgyLjVWMTUuM0gxMi4xeiBNMTMuNiwzOS41VjI4LjJoMjUuOXYxMS40SDEzLjZ6IE0xMy42LDI2LjdWMTUuM2gyNS45djExLjRIMTMuNnoiLz4mI3hhOwkJPHBvbHlnb24gc3R5bGU9ImZpbGw6I0JCNTAxQzsiIHBvaW50cz0iMTUsMTIuMyAxNi43LDEyLjMgMTcuNiwxMC42IDE4LjUsMTIuMyAyMC4xLDEyLjMgMTguNiw5LjYgMjAsNy4xIDE4LjQsNy4xIDE3LjYsOC43ICYjMTA7JiM5OyYjOTsmIzk7MTYuNyw3LjEgMTUuMSw3LjEgMTYuNiw5LjYgJiM5OyYjOTsiLz4mI3hhOwkJPHJlY3QgeD0iMjAuOSIgeT0iMTEuMSIgc3R5bGU9ImZpbGw6I0JCNTAxQzsiIHdpZHRoPSIxLjQiIGhlaWdodD0iMS4yIi8+JiN4YTsJCTxwb2x5Z29uIHN0eWxlPSJmaWxsOiNCQjUwMUM7IiBwb2ludHM9IjI1LDEyLjMgMjUuOSwxMC42IDI2LjgsMTIuMyAyOC40LDEyLjMgMjYuOCw5LjYgMjguMyw3LjEgMjYuOCw3LjEgMjUuOSw4LjcgMjUsNy4xICYjMTA7JiM5OyYjOTsmIzk7MjMuNCw3LjEgMjQuOSw5LjYgMjMuNCwxMi4zICYjOTsmIzk7Ii8+JiN4YTsJCTxyZWN0IHg9IjI4LjkiIHk9IjExLjEiIHN0eWxlPSJmaWxsOiNCQjUwMUM7IiB3aWR0aD0iMS40IiBoZWlnaHQ9IjEuMiIvPiYjeGE7CQk8cG9seWdvbiBzdHlsZT0iZmlsbDojQkI1MDFDOyIgcG9pbnRzPSIzMi43LDEyLjMgMzMuNiwxMC42IDM0LjYsMTIuMyAzNi4xLDEyLjMgMzQuNiw5LjYgMzYsNy4xIDM0LjUsNy4xIDMzLjYsOC43IDMyLjcsNy4xICYjMTA7JiM5OyYjOTsmIzk7MzEuMiw3LjEgMzIuNiw5LjYgMzEuMSwxMi4zICYjOTsmIzk7Ii8+JiN4YTsJCTxyZWN0IHg9IjM2LjYiIHk9IjExLjEiIHN0eWxlPSJmaWxsOiNCQjUwMUM7IiB3aWR0aD0iMS40IiBoZWlnaHQ9IjEuMiIvPiYjeGE7CQk8cG9seWdvbiBzdHlsZT0iZmlsbDojQkI1MDFDOyIgcG9pbnRzPSIyMCwyMC4xIDE4LjQsMjAuMSAxNy42LDIxLjcgMTYuNywyMC4xIDE1LjEsMjAuMSAxNi42LDIyLjYgMTUsMjUuMyAxNi43LDI1LjMgMTcuNiwyMy42ICYjMTA7JiM5OyYjOTsmIzk7MTguNSwyNS4zIDIwLjEsMjUuMyAxOC42LDIyLjYgJiM5OyYjOTsiLz4mI3hhOwkJPHJlY3QgeD0iMjAuOSIgeT0iMjQiIHN0eWxlPSJmaWxsOiNCQjUwMUM7IiB3aWR0aD0iMS40IiBoZWlnaHQ9IjEuMiIvPiYjeGE7CQk8cG9seWdvbiBzdHlsZT0iZmlsbDojQkI1MDFDOyIgcG9pbnRzPSIyOC4zLDIwLjEgMjYuOCwyMC4xIDI1LjksMjEuNyAyNSwyMC4xIDIzLjQsMjAuMSAyNC45LDIyLjYgMjMuNCwyNS4zIDI1LDI1LjMgMjUuOSwyMy42ICYjMTA7JiM5OyYjOTsmIzk7MjYuOCwyNS4zIDI4LjQsMjUuMyAyNi44LDIyLjYgJiM5OyYjOTsiLz4mI3hhOwkJPHJlY3QgeD0iMjguOSIgeT0iMjQiIHN0eWxlPSJmaWxsOiNCQjUwMUM7IiB3aWR0aD0iMS40IiBoZWlnaHQ9IjEuMiIvPiYjeGE7CQk8cG9seWdvbiBzdHlsZT0iZmlsbDojQkI1MDFDOyIgcG9pbnRzPSIzNiwyMC4xIDM0LjUsMjAuMSAzMy42LDIxLjcgMzIuNywyMC4xIDMxLjIsMjAuMSAzMi42LDIyLjYgMzEuMSwyNS4zIDMyLjcsMjUuMyAmIzEwOyYjOTsmIzk7JiM5OzMzLjYsMjMuNiAzNC42LDI1LjMgMzYuMSwyNS4zIDM0LjYsMjIuNiAmIzk7JiM5OyIvPiYjeGE7CQk8cmVjdCB4PSIzNi42IiB5PSIyNCIgc3R5bGU9ImZpbGw6I0JCNTAxQzsiIHdpZHRoPSIxLjQiIGhlaWdodD0iMS4yIi8+JiN4YTsJCTxwb2x5Z29uIHN0eWxlPSJmaWxsOiNCQjUwMUM7IiBwb2ludHM9IjIwLDMyLjkgMTguNCwzMi45IDE3LjYsMzQuNCAxNi43LDMyLjkgMTUuMSwzMi45IDE2LjYsMzUuMyAxNSwzOCAxNi43LDM4IDE3LjYsMzYuMyAmIzEwOyYjOTsmIzk7JiM5OzE4LjUsMzggMjAuMSwzOCAxOC42LDM1LjQgJiM5OyYjOTsiLz4mI3hhOwkJPHJlY3QgeD0iMjAuOSIgeT0iMzYuOCIgc3R5bGU9ImZpbGw6I0JCNTAxQzsiIHdpZHRoPSIxLjQiIGhlaWdodD0iMS4yIi8+JiN4YTsJCTxwb2x5Z29uIHN0eWxlPSJmaWxsOiNCQjUwMUM7IiBwb2ludHM9IjI4LjMsMzIuOSAyNi44LDMyLjkgMjUuOSwzNC40IDI1LDMyLjkgMjMuNCwzMi45IDI0LjksMzUuMyAyMy40LDM4IDI1LDM4IDI1LjksMzYuMyAmIzEwOyYjOTsmIzk7JiM5OzI2LjgsMzggMjguNCwzOCAyNi44LDM1LjQgJiM5OyYjOTsiLz4mI3hhOwkJPHJlY3QgeD0iMjguOSIgeT0iMzYuOCIgc3R5bGU9ImZpbGw6I0JCNTAxQzsiIHdpZHRoPSIxLjQiIGhlaWdodD0iMS4yIi8+JiN4YTsJCTxwb2x5Z29uIHN0eWxlPSJmaWxsOiNCQjUwMUM7IiBwb2ludHM9IjM2LDMyLjkgMzQuNSwzMi45IDMzLjYsMzQuNCAzMi43LDMyLjkgMzEuMiwzMi45IDMyLjYsMzUuMyAzMS4xLDM4IDMyLjcsMzggMzMuNiwzNi4zICYjMTA7JiM5OyYjOTsmIzk7MzQuNiwzOCAzNi4xLDM4IDM0LjYsMzUuNCAmIzk7JiM5OyIvPiYjeGE7CQk8cmVjdCB4PSIzNi42IiB5PSIzNi44IiBzdHlsZT0iZmlsbDojQkI1MDFDOyIgd2lkdGg9IjEuNCIgaGVpZ2h0PSIxLjIiLz4mI3hhOwk8L2c+JiN4YTs8L2c+JiN4YTs8L3N2Zz4=;dashed=1;fontSize=6;fontColor=#B3B3B3;strokeColor=#999999;strokeWidth=2;fillColor=#F5F4F2;opacity=50;" parent="gP81K4ogqWe0er_8T8x9-1" vertex="1">
          <mxGeometry x="900" y="394" width="18" height="18" as="geometry" />
        </mxCell>
        <mxCell id="WaCQjqbNdlPYWuUCs2im-4" value="" style="shape=image;verticalLabelPosition=bottom;verticalAlign=top;imageAspect=0;aspect=fixed;image=data:image/svg+xml,PHN2ZyB4bWxucz0iaHR0cDovL3d3dy53My5vcmcvMjAwMC9zdmciIHhtbG5zOnhsaW5rPSJodHRwOi8vd3d3LnczLm9yZy8xOTk5L3hsaW5rIiB2ZXJzaW9uPSIxLjEiIGlkPSJMYXllcl8xIiB4PSIwcHgiIHk9IjBweCIgdmlld0JveD0iMCAwIDQyIDQyIiBzdHlsZT0iZW5hYmxlLWJhY2tncm91bmQ6bmV3IDAgMCA0MiA0MjsiIHhtbDpzcGFjZT0icHJlc2VydmUiIHdpZHRoPSI0MiIgaGVpZ2h0PSI0MiI+JiN4YTs8Zz4mI3hhOwk8Zz4mI3hhOwkJPHJlY3QgeD0iMC41IiB5PSIwLjUiIHN0eWxlPSJmaWxsOiNGRkZGRkY7IiB3aWR0aD0iNDEiIGhlaWdodD0iNDEiLz4mI3hhOwkJPHBhdGggc3R5bGU9ImZpbGw6I0ZGRkZGRjsiIGQ9Ik00MSwxdjQwSDFWMUg0MSBNNDIsMGgtMUgxSDB2MXY0MHYxaDFoNDBoMXYtMVYxVjBMNDIsMHoiLz4mI3hhOwk8L2c+JiN4YTsJPGc+JiN4YTsJCTxwYXRoIHN0eWxlPSJmaWxsOiNCQjUwMUM7IiBkPSJNMSwxdjQwaDQwVjFIMXogTTM5LjUsMTMuOEgxMy42VjIuNWgyNS45VjEzLjh6IE0yLjUsMjguMmg5LjZ2MTEuNEgyLjVWMjguMnogTTEyLjEsMi41djExLjRIMi41JiMxMDsmIzk7JiM5OyYjOTtWMi41SDEyLjF6IE0xMi4xLDE1LjN2MTEuNEgyLjVWMTUuM0gxMi4xeiBNMTMuNiwzOS41VjI4LjJoMjUuOXYxMS40SDEzLjZ6IE0xMy42LDI2LjdWMTUuM2gyNS45djExLjRIMTMuNnoiLz4mI3hhOwkJPHBvbHlnb24gc3R5bGU9ImZpbGw6I0JCNTAxQzsiIHBvaW50cz0iMTUsMTIuMyAxNi43LDEyLjMgMTcuNiwxMC42IDE4LjUsMTIuMyAyMC4xLDEyLjMgMTguNiw5LjYgMjAsNy4xIDE4LjQsNy4xIDE3LjYsOC43ICYjMTA7JiM5OyYjOTsmIzk7MTYuNyw3LjEgMTUuMSw3LjEgMTYuNiw5LjYgJiM5OyYjOTsiLz4mI3hhOwkJPHJlY3QgeD0iMjAuOSIgeT0iMTEuMSIgc3R5bGU9ImZpbGw6I0JCNTAxQzsiIHdpZHRoPSIxLjQiIGhlaWdodD0iMS4yIi8+JiN4YTsJCTxwb2x5Z29uIHN0eWxlPSJmaWxsOiNCQjUwMUM7IiBwb2ludHM9IjI1LDEyLjMgMjUuOSwxMC42IDI2LjgsMTIuMyAyOC40LDEyLjMgMjYuOCw5LjYgMjguMyw3LjEgMjYuOCw3LjEgMjUuOSw4LjcgMjUsNy4xICYjMTA7JiM5OyYjOTsmIzk7MjMuNCw3LjEgMjQuOSw5LjYgMjMuNCwxMi4zICYjOTsmIzk7Ii8+JiN4YTsJCTxyZWN0IHg9IjI4LjkiIHk9IjExLjEiIHN0eWxlPSJmaWxsOiNCQjUwMUM7IiB3aWR0aD0iMS40IiBoZWlnaHQ9IjEuMiIvPiYjeGE7CQk8cG9seWdvbiBzdHlsZT0iZmlsbDojQkI1MDFDOyIgcG9pbnRzPSIzMi43LDEyLjMgMzMuNiwxMC42IDM0LjYsMTIuMyAzNi4xLDEyLjMgMzQuNiw5LjYgMzYsNy4xIDM0LjUsNy4xIDMzLjYsOC43IDMyLjcsNy4xICYjMTA7JiM5OyYjOTsmIzk7MzEuMiw3LjEgMzIuNiw5LjYgMzEuMSwxMi4zICYjOTsmIzk7Ii8+JiN4YTsJCTxyZWN0IHg9IjM2LjYiIHk9IjExLjEiIHN0eWxlPSJmaWxsOiNCQjUwMUM7IiB3aWR0aD0iMS40IiBoZWlnaHQ9IjEuMiIvPiYjeGE7CQk8cG9seWdvbiBzdHlsZT0iZmlsbDojQkI1MDFDOyIgcG9pbnRzPSIyMCwyMC4xIDE4LjQsMjAuMSAxNy42LDIxLjcgMTYuNywyMC4xIDE1LjEsMjAuMSAxNi42LDIyLjYgMTUsMjUuMyAxNi43LDI1LjMgMTcuNiwyMy42ICYjMTA7JiM5OyYjOTsmIzk7MTguNSwyNS4zIDIwLjEsMjUuMyAxOC42LDIyLjYgJiM5OyYjOTsiLz4mI3hhOwkJPHJlY3QgeD0iMjAuOSIgeT0iMjQiIHN0eWxlPSJmaWxsOiNCQjUwMUM7IiB3aWR0aD0iMS40IiBoZWlnaHQ9IjEuMiIvPiYjeGE7CQk8cG9seWdvbiBzdHlsZT0iZmlsbDojQkI1MDFDOyIgcG9pbnRzPSIyOC4zLDIwLjEgMjYuOCwyMC4xIDI1LjksMjEuNyAyNSwyMC4xIDIzLjQsMjAuMSAyNC45LDIyLjYgMjMuNCwyNS4zIDI1LDI1LjMgMjUuOSwyMy42ICYjMTA7JiM5OyYjOTsmIzk7MjYuOCwyNS4zIDI4LjQsMjUuMyAyNi44LDIyLjYgJiM5OyYjOTsiLz4mI3hhOwkJPHJlY3QgeD0iMjguOSIgeT0iMjQiIHN0eWxlPSJmaWxsOiNCQjUwMUM7IiB3aWR0aD0iMS40IiBoZWlnaHQ9IjEuMiIvPiYjeGE7CQk8cG9seWdvbiBzdHlsZT0iZmlsbDojQkI1MDFDOyIgcG9pbnRzPSIzNiwyMC4xIDM0LjUsMjAuMSAzMy42LDIxLjcgMzIuNywyMC4xIDMxLjIsMjAuMSAzMi42LDIyLjYgMzEuMSwyNS4zIDMyLjcsMjUuMyAmIzEwOyYjOTsmIzk7JiM5OzMzLjYsMjMuNiAzNC42LDI1LjMgMzYuMSwyNS4zIDM0LjYsMjIuNiAmIzk7JiM5OyIvPiYjeGE7CQk8cmVjdCB4PSIzNi42IiB5PSIyNCIgc3R5bGU9ImZpbGw6I0JCNTAxQzsiIHdpZHRoPSIxLjQiIGhlaWdodD0iMS4yIi8+JiN4YTsJCTxwb2x5Z29uIHN0eWxlPSJmaWxsOiNCQjUwMUM7IiBwb2ludHM9IjIwLDMyLjkgMTguNCwzMi45IDE3LjYsMzQuNCAxNi43LDMyLjkgMTUuMSwzMi45IDE2LjYsMzUuMyAxNSwzOCAxNi43LDM4IDE3LjYsMzYuMyAmIzEwOyYjOTsmIzk7JiM5OzE4LjUsMzggMjAuMSwzOCAxOC42LDM1LjQgJiM5OyYjOTsiLz4mI3hhOwkJPHJlY3QgeD0iMjAuOSIgeT0iMzYuOCIgc3R5bGU9ImZpbGw6I0JCNTAxQzsiIHdpZHRoPSIxLjQiIGhlaWdodD0iMS4yIi8+JiN4YTsJCTxwb2x5Z29uIHN0eWxlPSJmaWxsOiNCQjUwMUM7IiBwb2ludHM9IjI4LjMsMzIuOSAyNi44LDMyLjkgMjUuOSwzNC40IDI1LDMyLjkgMjMuNCwzMi45IDI0LjksMzUuMyAyMy40LDM4IDI1LDM4IDI1LjksMzYuMyAmIzEwOyYjOTsmIzk7JiM5OzI2LjgsMzggMjguNCwzOCAyNi44LDM1LjQgJiM5OyYjOTsiLz4mI3hhOwkJPHJlY3QgeD0iMjguOSIgeT0iMzYuOCIgc3R5bGU9ImZpbGw6I0JCNTAxQzsiIHdpZHRoPSIxLjQiIGhlaWdodD0iMS4yIi8+JiN4YTsJCTxwb2x5Z29uIHN0eWxlPSJmaWxsOiNCQjUwMUM7IiBwb2ludHM9IjM2LDMyLjkgMzQuNSwzMi45IDMzLjYsMzQuNCAzMi43LDMyLjkgMzEuMiwzMi45IDMyLjYsMzUuMyAzMS4xLDM4IDMyLjcsMzggMzMuNiwzNi4zICYjMTA7JiM5OyYjOTsmIzk7MzQuNiwzOCAzNi4xLDM4IDM0LjYsMzUuNCAmIzk7JiM5OyIvPiYjeGE7CQk8cmVjdCB4PSIzNi42IiB5PSIzNi44IiBzdHlsZT0iZmlsbDojQkI1MDFDOyIgd2lkdGg9IjEuNCIgaGVpZ2h0PSIxLjIiLz4mI3hhOwk8L2c+JiN4YTs8L2c+JiN4YTs8L3N2Zz4=;dashed=1;fontSize=6;fontColor=#B3B3B3;strokeColor=#999999;strokeWidth=2;fillColor=#F5F4F2;opacity=50;" parent="gP81K4ogqWe0er_8T8x9-1" vertex="1">
          <mxGeometry x="900" y="300" width="18" height="18" as="geometry" />
        </mxCell>
        <mxCell id="WaCQjqbNdlPYWuUCs2im-5" value="" style="shape=image;verticalLabelPosition=bottom;verticalAlign=top;imageAspect=0;aspect=fixed;image=data:image/svg+xml,PHN2ZyB4bWxucz0iaHR0cDovL3d3dy53My5vcmcvMjAwMC9zdmciIHhtbG5zOnhsaW5rPSJodHRwOi8vd3d3LnczLm9yZy8xOTk5L3hsaW5rIiB2ZXJzaW9uPSIxLjEiIGlkPSJMYXllcl8xIiB4PSIwcHgiIHk9IjBweCIgdmlld0JveD0iMCAwIDQyIDQyIiBzdHlsZT0iZW5hYmxlLWJhY2tncm91bmQ6bmV3IDAgMCA0MiA0MjsiIHhtbDpzcGFjZT0icHJlc2VydmUiIHdpZHRoPSI0MiIgaGVpZ2h0PSI0MiI+JiN4YTs8Zz4mI3hhOwk8Zz4mI3hhOwkJPHJlY3QgeD0iMC41IiB5PSIwLjUiIHN0eWxlPSJmaWxsOiNGRkZGRkY7IiB3aWR0aD0iNDEiIGhlaWdodD0iNDEiLz4mI3hhOwkJPHBhdGggc3R5bGU9ImZpbGw6I0ZGRkZGRjsiIGQ9Ik00MSwxdjQwSDFWMUg0MSBNNDIsMGgtMUgxSDB2MXY0MHYxaDFoNDBoMXYtMVYxVjBMNDIsMHoiLz4mI3hhOwk8L2c+JiN4YTsJPGc+JiN4YTsJCTxwYXRoIHN0eWxlPSJmaWxsOiNCQjUwMUM7IiBkPSJNMSwxdjQwaDQwVjFIMXogTTM5LjUsMTMuOEgxMy42VjIuNWgyNS45VjEzLjh6IE0yLjUsMjguMmg5LjZ2MTEuNEgyLjVWMjguMnogTTEyLjEsMi41djExLjRIMi41JiMxMDsmIzk7JiM5OyYjOTtWMi41SDEyLjF6IE0xMi4xLDE1LjN2MTEuNEgyLjVWMTUuM0gxMi4xeiBNMTMuNiwzOS41VjI4LjJoMjUuOXYxMS40SDEzLjZ6IE0xMy42LDI2LjdWMTUuM2gyNS45djExLjRIMTMuNnoiLz4mI3hhOwkJPHBvbHlnb24gc3R5bGU9ImZpbGw6I0JCNTAxQzsiIHBvaW50cz0iMTUsMTIuMyAxNi43LDEyLjMgMTcuNiwxMC42IDE4LjUsMTIuMyAyMC4xLDEyLjMgMTguNiw5LjYgMjAsNy4xIDE4LjQsNy4xIDE3LjYsOC43ICYjMTA7JiM5OyYjOTsmIzk7MTYuNyw3LjEgMTUuMSw3LjEgMTYuNiw5LjYgJiM5OyYjOTsiLz4mI3hhOwkJPHJlY3QgeD0iMjAuOSIgeT0iMTEuMSIgc3R5bGU9ImZpbGw6I0JCNTAxQzsiIHdpZHRoPSIxLjQiIGhlaWdodD0iMS4yIi8+JiN4YTsJCTxwb2x5Z29uIHN0eWxlPSJmaWxsOiNCQjUwMUM7IiBwb2ludHM9IjI1LDEyLjMgMjUuOSwxMC42IDI2LjgsMTIuMyAyOC40LDEyLjMgMjYuOCw5LjYgMjguMyw3LjEgMjYuOCw3LjEgMjUuOSw4LjcgMjUsNy4xICYjMTA7JiM5OyYjOTsmIzk7MjMuNCw3LjEgMjQuOSw5LjYgMjMuNCwxMi4zICYjOTsmIzk7Ii8+JiN4YTsJCTxyZWN0IHg9IjI4LjkiIHk9IjExLjEiIHN0eWxlPSJmaWxsOiNCQjUwMUM7IiB3aWR0aD0iMS40IiBoZWlnaHQ9IjEuMiIvPiYjeGE7CQk8cG9seWdvbiBzdHlsZT0iZmlsbDojQkI1MDFDOyIgcG9pbnRzPSIzMi43LDEyLjMgMzMuNiwxMC42IDM0LjYsMTIuMyAzNi4xLDEyLjMgMzQuNiw5LjYgMzYsNy4xIDM0LjUsNy4xIDMzLjYsOC43IDMyLjcsNy4xICYjMTA7JiM5OyYjOTsmIzk7MzEuMiw3LjEgMzIuNiw5LjYgMzEuMSwxMi4zICYjOTsmIzk7Ii8+JiN4YTsJCTxyZWN0IHg9IjM2LjYiIHk9IjExLjEiIHN0eWxlPSJmaWxsOiNCQjUwMUM7IiB3aWR0aD0iMS40IiBoZWlnaHQ9IjEuMiIvPiYjeGE7CQk8cG9seWdvbiBzdHlsZT0iZmlsbDojQkI1MDFDOyIgcG9pbnRzPSIyMCwyMC4xIDE4LjQsMjAuMSAxNy42LDIxLjcgMTYuNywyMC4xIDE1LjEsMjAuMSAxNi42LDIyLjYgMTUsMjUuMyAxNi43LDI1LjMgMTcuNiwyMy42ICYjMTA7JiM5OyYjOTsmIzk7MTguNSwyNS4zIDIwLjEsMjUuMyAxOC42LDIyLjYgJiM5OyYjOTsiLz4mI3hhOwkJPHJlY3QgeD0iMjAuOSIgeT0iMjQiIHN0eWxlPSJmaWxsOiNCQjUwMUM7IiB3aWR0aD0iMS40IiBoZWlnaHQ9IjEuMiIvPiYjeGE7CQk8cG9seWdvbiBzdHlsZT0iZmlsbDojQkI1MDFDOyIgcG9pbnRzPSIyOC4zLDIwLjEgMjYuOCwyMC4xIDI1LjksMjEuNyAyNSwyMC4xIDIzLjQsMjAuMSAyNC45LDIyLjYgMjMuNCwyNS4zIDI1LDI1LjMgMjUuOSwyMy42ICYjMTA7JiM5OyYjOTsmIzk7MjYuOCwyNS4zIDI4LjQsMjUuMyAyNi44LDIyLjYgJiM5OyYjOTsiLz4mI3hhOwkJPHJlY3QgeD0iMjguOSIgeT0iMjQiIHN0eWxlPSJmaWxsOiNCQjUwMUM7IiB3aWR0aD0iMS40IiBoZWlnaHQ9IjEuMiIvPiYjeGE7CQk8cG9seWdvbiBzdHlsZT0iZmlsbDojQkI1MDFDOyIgcG9pbnRzPSIzNiwyMC4xIDM0LjUsMjAuMSAzMy42LDIxLjcgMzIuNywyMC4xIDMxLjIsMjAuMSAzMi42LDIyLjYgMzEuMSwyNS4zIDMyLjcsMjUuMyAmIzEwOyYjOTsmIzk7JiM5OzMzLjYsMjMuNiAzNC42LDI1LjMgMzYuMSwyNS4zIDM0LjYsMjIuNiAmIzk7JiM5OyIvPiYjeGE7CQk8cmVjdCB4PSIzNi42IiB5PSIyNCIgc3R5bGU9ImZpbGw6I0JCNTAxQzsiIHdpZHRoPSIxLjQiIGhlaWdodD0iMS4yIi8+JiN4YTsJCTxwb2x5Z29uIHN0eWxlPSJmaWxsOiNCQjUwMUM7IiBwb2ludHM9IjIwLDMyLjkgMTguNCwzMi45IDE3LjYsMzQuNCAxNi43LDMyLjkgMTUuMSwzMi45IDE2LjYsMzUuMyAxNSwzOCAxNi43LDM4IDE3LjYsMzYuMyAmIzEwOyYjOTsmIzk7JiM5OzE4LjUsMzggMjAuMSwzOCAxOC42LDM1LjQgJiM5OyYjOTsiLz4mI3hhOwkJPHJlY3QgeD0iMjAuOSIgeT0iMzYuOCIgc3R5bGU9ImZpbGw6I0JCNTAxQzsiIHdpZHRoPSIxLjQiIGhlaWdodD0iMS4yIi8+JiN4YTsJCTxwb2x5Z29uIHN0eWxlPSJmaWxsOiNCQjUwMUM7IiBwb2ludHM9IjI4LjMsMzIuOSAyNi44LDMyLjkgMjUuOSwzNC40IDI1LDMyLjkgMjMuNCwzMi45IDI0LjksMzUuMyAyMy40LDM4IDI1LDM4IDI1LjksMzYuMyAmIzEwOyYjOTsmIzk7JiM5OzI2LjgsMzggMjguNCwzOCAyNi44LDM1LjQgJiM5OyYjOTsiLz4mI3hhOwkJPHJlY3QgeD0iMjguOSIgeT0iMzYuOCIgc3R5bGU9ImZpbGw6I0JCNTAxQzsiIHdpZHRoPSIxLjQiIGhlaWdodD0iMS4yIi8+JiN4YTsJCTxwb2x5Z29uIHN0eWxlPSJmaWxsOiNCQjUwMUM7IiBwb2ludHM9IjM2LDMyLjkgMzQuNSwzMi45IDMzLjYsMzQuNCAzMi43LDMyLjkgMzEuMiwzMi45IDMyLjYsMzUuMyAzMS4xLDM4IDMyLjcsMzggMzMuNiwzNi4zICYjMTA7JiM5OyYjOTsmIzk7MzQuNiwzOCAzNi4xLDM4IDM0LjYsMzUuNCAmIzk7JiM5OyIvPiYjeGE7CQk8cmVjdCB4PSIzNi42IiB5PSIzNi44IiBzdHlsZT0iZmlsbDojQkI1MDFDOyIgd2lkdGg9IjEuNCIgaGVpZ2h0PSIxLjIiLz4mI3hhOwk8L2c+JiN4YTs8L2c+JiN4YTs8L3N2Zz4=;dashed=1;fontSize=6;fontColor=#B3B3B3;strokeColor=#999999;strokeWidth=2;fillColor=#F5F4F2;opacity=50;" parent="gP81K4ogqWe0er_8T8x9-1" vertex="1">
          <mxGeometry x="900" y="250" width="18" height="18" as="geometry" />
        </mxCell>
        <mxCell id="1JcEi0xpXm-Oow1FrGKh-2" value="&amp;nbsp;&lt;font color=&quot;#ae562c&quot;&gt;OCI Region&lt;/font&gt;&lt;br&gt;" style="text;html=1;strokeColor=none;fillColor=none;align=left;verticalAlign=top;whiteSpace=wrap;rounded=0;dashed=1;" parent="gP81K4ogqWe0er_8T8x9-1" vertex="1">
          <mxGeometry x="460" y="160" width="100" height="40" as="geometry" />
        </mxCell>
        <mxCell id="dobjgn5xfoVTfRww_iZ4-45" value="VCN Route Table - Trusted Subnet" style="swimlane;fontSize=11;fontColor=#FFFFFF;strokeColor=#2C5967;strokeWidth=2;fillColor=#2C5967;" parent="gP81K4ogqWe0er_8T8x9-1" vertex="1">
          <mxGeometry x="1070" y="351.5" width="260" height="90" as="geometry" />
        </mxCell>
        <mxCell id="dobjgn5xfoVTfRww_iZ4-46" value="Destination" style="swimlane;fontStyle=0;childLayout=stackLayout;horizontal=1;startSize=30;horizontalStack=0;resizeParent=1;resizeParentMax=0;resizeLast=0;collapsible=1;marginBottom=0;dashed=1;fontSize=11;fontColor=#F5F4F2;strokeColor=none;strokeWidth=2;fillColor=#2C5967;" parent="dobjgn5xfoVTfRww_iZ4-45" vertex="1">
          <mxGeometry y="25" width="130" height="60" as="geometry" />
        </mxCell>
        <mxCell id="dobjgn5xfoVTfRww_iZ4-47" value="0.0.0.0/0" style="text;strokeColor=none;fillColor=default;align=left;verticalAlign=middle;spacingLeft=4;spacingRight=4;overflow=hidden;points=[[0,0.5],[1,0.5]];portConstraint=eastwest;rotatable=0;dashed=1;fontSize=8;fontColor=#000000;" parent="dobjgn5xfoVTfRww_iZ4-46" vertex="1">
          <mxGeometry y="30" width="130" height="30" as="geometry" />
        </mxCell>
        <mxCell id="dobjgn5xfoVTfRww_iZ4-48" value="Target" style="swimlane;fontStyle=0;childLayout=stackLayout;horizontal=1;startSize=30;horizontalStack=0;resizeParent=1;resizeParentMax=0;resizeLast=0;collapsible=1;marginBottom=0;dashed=1;fontSize=11;fontColor=#FFFFFF;strokeColor=none;strokeWidth=2;fillColor=#2C5967;" parent="dobjgn5xfoVTfRww_iZ4-45" vertex="1">
          <mxGeometry x="130" y="25" width="130" height="60" as="geometry">
            <mxRectangle x="130" y="25" width="70" height="30" as="alternateBounds" />
          </mxGeometry>
        </mxCell>
        <mxCell id="dobjgn5xfoVTfRww_iZ4-49" value="Internal Load Balancer IP" style="text;strokeColor=none;fillColor=default;align=left;verticalAlign=middle;spacingLeft=4;spacingRight=4;overflow=hidden;points=[[0,0.5],[1,0.5]];portConstraint=eastwest;rotatable=0;dashed=1;fontSize=8;fontColor=#000000;" parent="dobjgn5xfoVTfRww_iZ4-48" vertex="1">
          <mxGeometry y="30" width="130" height="30" as="geometry" />
        </mxCell>
        <mxCell id="dobjgn5xfoVTfRww_iZ4-65" value="VCN Route Table - Untrusted Subnet" style="swimlane;fontSize=11;fontColor=#FFFFFF;strokeColor=#2C5967;strokeWidth=2;fillColor=#2C5967;" parent="gP81K4ogqWe0er_8T8x9-1" vertex="1">
          <mxGeometry x="1070" y="264" width="260" height="85" as="geometry" />
        </mxCell>
        <mxCell id="dobjgn5xfoVTfRww_iZ4-66" value="Destination" style="swimlane;fontStyle=0;childLayout=stackLayout;horizontal=1;startSize=30;horizontalStack=0;resizeParent=1;resizeParentMax=0;resizeLast=0;collapsible=1;marginBottom=0;dashed=1;fontSize=11;fontColor=#F5F4F2;strokeColor=none;strokeWidth=2;fillColor=#2C5967;" parent="dobjgn5xfoVTfRww_iZ4-65" vertex="1">
          <mxGeometry y="25" width="130" height="60" as="geometry" />
        </mxCell>
        <mxCell id="dobjgn5xfoVTfRww_iZ4-67" value="0.0.0.0/0" style="text;strokeColor=none;fillColor=default;align=left;verticalAlign=middle;spacingLeft=4;spacingRight=4;overflow=hidden;points=[[0,0.5],[1,0.5]];portConstraint=eastwest;rotatable=0;dashed=1;fontSize=8;fontColor=#000000;" parent="dobjgn5xfoVTfRww_iZ4-66" vertex="1">
          <mxGeometry y="30" width="130" height="30" as="geometry" />
        </mxCell>
        <mxCell id="dobjgn5xfoVTfRww_iZ4-68" value="Target" style="swimlane;fontStyle=0;childLayout=stackLayout;horizontal=1;startSize=30;horizontalStack=0;resizeParent=1;resizeParentMax=0;resizeLast=0;collapsible=1;marginBottom=0;dashed=1;fontSize=11;fontColor=#FFFFFF;strokeColor=none;strokeWidth=2;fillColor=#2C5967;" parent="dobjgn5xfoVTfRww_iZ4-65" vertex="1">
          <mxGeometry x="130" y="25" width="130" height="60" as="geometry" />
        </mxCell>
        <mxCell id="dobjgn5xfoVTfRww_iZ4-69" value="Internet Gateway" style="text;strokeColor=none;fillColor=default;align=left;verticalAlign=middle;spacingLeft=4;spacingRight=4;overflow=hidden;points=[[0,0.5],[1,0.5]];portConstraint=eastwest;rotatable=0;dashed=1;fontSize=8;fontColor=#000000;" parent="dobjgn5xfoVTfRww_iZ4-68" vertex="1">
          <mxGeometry y="30" width="130" height="30" as="geometry" />
        </mxCell>
        <mxCell id="dobjgn5xfoVTfRww_iZ4-70" value="VCN Route Table - NLB Subnet" style="swimlane;fontSize=11;fontColor=#FFFFFF;strokeColor=#2C5967;strokeWidth=2;fillColor=#2C5967;" parent="gP81K4ogqWe0er_8T8x9-1" vertex="1">
          <mxGeometry x="1070" y="176.5" width="260" height="85" as="geometry" />
        </mxCell>
        <mxCell id="dobjgn5xfoVTfRww_iZ4-71" value="Destination" style="swimlane;fontStyle=0;childLayout=stackLayout;horizontal=1;startSize=30;horizontalStack=0;resizeParent=1;resizeParentMax=0;resizeLast=0;collapsible=1;marginBottom=0;dashed=1;fontSize=11;fontColor=#F5F4F2;strokeColor=none;strokeWidth=2;fillColor=#2C5967;" parent="dobjgn5xfoVTfRww_iZ4-70" vertex="1">
          <mxGeometry y="25" width="130" height="60" as="geometry" />
        </mxCell>
        <mxCell id="dobjgn5xfoVTfRww_iZ4-72" value="0.0.0.0/0" style="text;strokeColor=none;fillColor=default;align=left;verticalAlign=middle;spacingLeft=4;spacingRight=4;overflow=hidden;points=[[0,0.5],[1,0.5]];portConstraint=eastwest;rotatable=0;dashed=1;fontSize=8;fontColor=#000000;" parent="dobjgn5xfoVTfRww_iZ4-71" vertex="1">
          <mxGeometry y="30" width="130" height="30" as="geometry" />
        </mxCell>
        <mxCell id="dobjgn5xfoVTfRww_iZ4-73" value="Target" style="swimlane;fontStyle=0;childLayout=stackLayout;horizontal=1;startSize=30;horizontalStack=0;resizeParent=1;resizeParentMax=0;resizeLast=0;collapsible=1;marginBottom=0;dashed=1;fontSize=11;fontColor=#FFFFFF;strokeColor=none;strokeWidth=2;fillColor=#2C5967;" parent="dobjgn5xfoVTfRww_iZ4-70" vertex="1">
          <mxGeometry x="130" y="25" width="130" height="60" as="geometry" />
        </mxCell>
        <mxCell id="dobjgn5xfoVTfRww_iZ4-74" value="Internet Gateway" style="text;strokeColor=none;fillColor=default;align=left;verticalAlign=middle;spacingLeft=4;spacingRight=4;overflow=hidden;points=[[0,0.5],[1,0.5]];portConstraint=eastwest;rotatable=0;dashed=1;fontSize=8;fontColor=#000000;" parent="dobjgn5xfoVTfRww_iZ4-73" vertex="1">
          <mxGeometry y="30" width="130" height="30" as="geometry" />
        </mxCell>
        <mxCell id="dobjgn5xfoVTfRww_iZ4-76" value="Internet Gateway" style="shape=image;verticalLabelPosition=bottom;verticalAlign=top;imageAspect=0;aspect=fixed;image=data:image/svg+xml,PHN2ZyB4bWxucz0iaHR0cDovL3d3dy53My5vcmcvMjAwMC9zdmciIHhtbG5zOnhsaW5rPSJodHRwOi8vd3d3LnczLm9yZy8xOTk5L3hsaW5rIiB2ZXJzaW9uPSIxLjEiIGlkPSJMYXllcl8xIiB4PSIwcHgiIHk9IjBweCIgdmlld0JveD0iMCAwIDI3LjczODQyODExNTg0NDcyNyA0MiIgc3R5bGU9ImVuYWJsZS1iYWNrZ3JvdW5kOm5ldyAwIDAgMjcuNzQgNDI7IiB4bWw6c3BhY2U9InByZXNlcnZlIiB3aWR0aD0iMjcuNzM4NDI4MTE1ODQ0NzI3IiBoZWlnaHQ9IjQyIj4mI3hhOzxzdHlsZSB0eXBlPSJ0ZXh0L2NzcyI+JiN4YTsJLnN0MHtmaWxsOiNGRkZGRkY7fSYjeGE7CS5zdDF7ZmlsbDojMkM1OTY3O30mI3hhOzwvc3R5bGU+JiN4YTs8Zz4mI3hhOwk8Zz4mI3hhOwkJPHBhdGggY2xhc3M9InN0MCIgZD0iTTEzLjkxLDQxLjVjLTUuNjQsMC0xMC4yMi00LjU5LTEwLjIyLTEwLjIyYzAtNS4xNiwzLjkxLTkuNTMsOC45OS0xMC4xNHYtMy4xMmwtMS4xLDEuMDlsLTEuNzUtMS43NiYjMTA7JiM5OyYjOTsmIzk7bDIuODEtMi44SDAuNTRsMC4xLTEuMzNjMC4xNy0yLjMxLDEuNS00LjM0LDMuNTUtNS40MkM0LjUsNy42Myw0LjcyLDcuMzQsNC43OCw3YzAuMzMtMS42NywxLjQ1LTMuMDcsMy0zLjc1JiMxMDsmIzk7JiM5OyYjOTtjMC42NS0wLjI5LDEuMzctMC40NCwyLjA4LTAuNDRjMC4xNiwwLDAuMzIsMC4wMSwwLjQ4LDAuMDJjMC4wNCwwLDAuMDcsMC4wMSwwLjExLDAuMDFjMC4zMSwwLDAuNTgtMC4xMiwwLjc4LTAuMzMmIzEwOyYjOTsmIzk7JiM5O2MxLjE4LTEuMjgsMi44NS0yLjAxLDQuNTktMi4wMWMyLjM5LDAsNC41MywxLjMzLDUuNiwzLjQ3YzAuMTYsMC4zMiwwLjQ1LDAuNTQsMC44LDAuNjJjMC43MiwwLjE2LDEuNCwwLjQ0LDIuMDMsMC44NCYjMTA7JiM5OyYjOTsmIzk7YzIuODMsMS43OSwzLjgxLDUuNTEsMi4yMiw4LjQ2bC0wLjM1LDAuNjVIMTUuMTlsMi44MSwyLjhsLTEuNzUsMS43NmwtMS4xLTEuMDl2My4xMmM1LjA3LDAuNjIsOC45Nyw0Ljk5LDguOTcsMTAuMTQmIzEwOyYjOTsmIzk7JiM5O0MyNC4xMywzNi45MSwxOS41NSw0MS41LDEzLjkxLDQxLjV6Ii8+JiN4YTsJCTxwYXRoIGNsYXNzPSJzdDAiIGQ9Ik0xNS44MywxYzIuMiwwLDQuMTcsMS4yMyw1LjE1LDMuMmMwLjIzLDAuNDUsMC42NCwwLjc4LDEuMTQsMC44OWMwLjY2LDAuMTUsMS4yOSwwLjQxLDEuODcsMC43NyYjMTA7JiM5OyYjOTsmIzk7YzIuNjEsMS42NSwzLjUxLDUuMDgsMi4wNSw3LjhsLTAuMjEsMC4zOUgxNC4zNGMtMC4xMywwLTAuMjUtMC4wMS0wLjM4LTAuMDJsMy4zNCwzLjMybC0xLjA1LDEuMDVsLTEuNTktMS41OXYzLjQ0djEuMzMmIzEwOyYjOTsmIzk7JiM5O2M1LjAxLDAuMzgsOC45OCw0LjU4LDguOTgsOS42OWMwLDUuMzYtNC4zNiw5LjcyLTkuNzIsOS43MmMtNS4zNiwwLTkuNzItNC4zNi05LjcyLTkuNzJjMC01LjExLDMuOTctOS4zMSw4Ljk5LTkuNjl2LTEuMzN2LTMuNDQmIzEwOyYjOTsmIzk7JiM5O2wtMS41OSwxLjU5bC0xLjA1LTEuMDVsMy4zMi0zLjNINC4zOUgxLjA4bDAuMDYtMC44YzAuMTYtMi4xNCwxLjM5LTQuMDEsMy4yOC01LjAxQzQuODcsOCw1LjE4LDcuNTksNS4yNyw3LjEmIzEwOyYjOTsmIzk7JiM5O2MwLjMtMS41MSwxLjMxLTIuNzcsMi43MS0zLjM5YzAuNTktMC4yNiwxLjI0LTAuNCwxLjg4LTAuNGMwLjE1LDAsMC4yOSwwLjAxLDAuNDQsMC4wMmMwLjA1LDAsMC4xMSwwLjAxLDAuMTYsMC4wMSYjMTA7JiM5OyYjOTsmIzk7YzAuNDQsMCwwLjg1LTAuMTcsMS4xNS0wLjQ5QzEyLjY5LDEuNjcsMTQuMjMsMSwxNS44MywxIE0xNS44MywwYy0xLjg3LDAtMy42OCwwLjc5LTQuOTYsMi4xN2MtMC4xLDAuMTEtMC4yNSwwLjE3LTAuNDIsMC4xNyYjMTA7JiM5OyYjOTsmIzk7Yy0wLjAyLDAtMC4wNCwwLTAuMDcsMGMtMC4xOC0wLjAyLTAuMzUtMC4wMy0wLjUzLTAuMDNjLTAuNzgsMC0xLjU3LDAuMTctMi4yOSwwLjQ4Yy0xLjcsMC43NS0yLjkzLDIuMjktMy4yOCw0LjExJiMxMDsmIzk7JiM5OyYjOTtDNC4yNiw3LjEsNC4xMyw3LjI2LDMuOTUsNy4zNmMtMi4yLDEuMTYtMy42MywzLjM0LTMuODEsNS44MmwtMC4wNiwwLjhMMCwxNS4wNWgxLjA4aDMuMzJoNy4wNGwtMS42LDEuNTlsLTAuNzEsMC43MWwwLjcxLDAuNzEmIzEwOyYjOTsmIzk7JiM5O2wxLjA1LDEuMDVsMC43MSwwLjcxbDAuNi0wLjU5djEuMDR2MC40NGMtNS4xMSwwLjg0LTguOTksNS4zMi04Ljk5LDEwLjU4QzMuMTksMzcuMTksOCw0MiwxMy45MSw0MiYjMTA7JiM5OyYjOTsmIzk7YzUuOTEsMCwxMC43Mi00LjgxLDEwLjcyLTEwLjcyYzAtNS4yNi0zLjg3LTkuNzMtOC45OC0xMC41OHYtMC40NHYtMS4wNGwwLjYsMC41OWwwLjcxLTAuNzFsMS4wNS0xLjA1bDAuNzEtMC43MUwxOCwxNi42NCYjMTA7JiM5OyYjOTsmIzk7bC0xLjYtMS41OWg5LjQzaDAuNmwwLjI4LTAuNTNsMC4yMS0wLjM5YzEuNzEtMy4xOCwwLjY2LTcuMTktMi40LTkuMTJjLTAuNjgtMC40My0xLjQxLTAuNzMtMi4xOC0wLjkmIzEwOyYjOTsmIzk7JiM5O2MtMC4yLTAuMDQtMC4zNy0wLjE4LTAuNDYtMC4zNkMyMC43MywxLjQ0LDE4LjQxLDAsMTUuODMsMEwxNS44MywweiIvPiYjeGE7CTwvZz4mI3hhOwk8Zz4mI3hhOwkJPHBhdGggY2xhc3M9InN0MSIgZD0iTTIzLjk5LDUuODZjLTAuNTgtMC4zNi0xLjIxLTAuNjItMS44Ny0wLjc3Yy0wLjUtMC4xMS0wLjkxLTAuNDMtMS4xNC0wLjg5QzIwLDIuMjMsMTguMDMsMSwxNS44MywxJiMxMDsmIzk7JiM5OyYjOTtjLTEuNiwwLTMuMTQsMC42Ny00LjIyLDEuODVDMTEuMjgsMy4yLDEwLjgsMy4zOCwxMC4zLDMuMzNDOS41MSwzLjI2LDguNzEsMy4zOSw3Ljk4LDMuNzFDNi41OCw0LjMzLDUuNTcsNS41OSw1LjI3LDcuMSYjMTA7JiM5OyYjOTsmIzk7QzUuMTgsNy41OSw0Ljg3LDgsNC40Miw4LjI0Yy0xLjksMS0zLjEyLDIuODctMy4yOCw1LjAxbC0wLjA2LDAuOGgzLjMydjBoN2MtMC40OS0wLjQxLTAuODktMC45MS0xLjE4LTEuNDhINC44NHYwaC0yLjEmIzEwOyYjOTsmIzk7JiM5O2MwLjMyLTEuMjksMS4xNy0yLjM4LDIuMzctMy4wMkM1Ljk2LDkuMSw2LjU1LDguMzEsNi43Myw3LjM4YzAuMi0xLjAzLDAuODktMS45LDEuODUtMi4zMmMwLjUtMC4yMiwxLjA0LTAuMzEsMS41OC0wLjI2JiMxMDsmIzk7JiM5OyYjOTtjMC45NywwLjA5LDEuODktMC4yNiwyLjU0LTAuOTVjMC44MS0wLjg3LDEuOTUtMS4zNywzLjE0LTEuMzdjMS42MywwLDMuMSwwLjkxLDMuODMsMi4zOGMwLjQzLDAuODYsMS4yMSwxLjQ3LDIuMTUsMS42NyYjMTA7JiM5OyYjOTsmIzk7YzAuNDksMC4xMSwwLjk2LDAuMywxLjQsMC41OGMxLjg0LDEuMTYsMi41NCwzLjQ5LDEuNzIsNS40NkgxNC4zNGMtMS4yOSwwLTIuMzUtMS4wNy0yLjM1LTIuMzloLTEuNDhjMCwxLjk4LDEuNDgsMy42MSwzLjM3LDMuODQmIzEwOyYjOTsmIzk7JiM5O2wtMy4zNSwzLjMzbDEuMDUsMS4wNWwyLjMzLTIuMzJsMi4zMywyLjMybDEuMDUtMS4wNWwtMy4zNC0zLjMyYzAuMTIsMC4wMSwwLjI1LDAuMDIsMC4zOCwwLjAyaDExLjQ5bDAuMjEtMC4zOSYjMTA7JiM5OyYjOTsmIzk7QzI3LjUxLDEwLjkzLDI2LjYxLDcuNTEsMjMuOTksNS44NnoiLz4mI3hhOwkJPHJlY3QgeD0iMTMuMTgiIHk9IjE3LjY3IiBjbGFzcz0ic3QxIiB3aWR0aD0iMS40OCIgaGVpZ2h0PSIxLjQ4Ii8+JiN4YTsJCTxwYXRoIGNsYXNzPSJzdDEiIGQ9Ik0xNC42NiwyMS41OXYtMS4zM2gtMS40OHYxLjMzYy01LjAyLDAuMzgtOC45OSw0LjU4LTguOTksOS42OWMwLDUuMzYsNC4zNiw5LjcyLDkuNzIsOS43MiYjMTA7JiM5OyYjOTsmIzk7czkuNzItNC4zNiw5LjcyLTkuNzJDMjMuNjMsMjYuMTcsMTkuNjcsMjEuOTcsMTQuNjYsMjEuNTl6IE0xMy45MSwzOS41MmMtNC4yNiwwLTcuNzgtMy4yNS04LjItNy40MWgzLjQybC0xLjI0LDEuMjVsMS4wNSwxLjA0JiMxMDsmIzk7JiM5OyYjOTtsMi45My0yLjk0bC0yLjkzLTIuOTRsLTEuMDUsMS4wNGwxLjA2LDEuMDZINS43YzAuMzMtNC4yNCwzLjg5LTcuNTksOC4yMS03LjU5czcuODgsMy4zNSw4LjIxLDcuNTloLTMuNDRsMC45OS0xbC0xLjA1LTEuMDQmIzEwOyYjOTsmIzk7JiM5O2wtMi43OSwyLjgxbDIuOTMsMi45NGwxLjA1LTEuMDRsLTEuMTgtMS4xOGgzLjQ3QzIxLjY5LDM2LjI3LDE4LjE3LDM5LjUyLDEzLjkxLDM5LjUyeiIvPiYjeGE7CQk8cG9seWdvbiBjbGFzcz0ic3QxIiBwb2ludHM9IjE0LjU1LDM1LjU1IDE0LjU1LDI3LjAxIDE1LjcyLDI4LjE2IDE2Ljc2LDI3LjEyIDEzLjgyLDI0LjE5IDEwLjg5LDI3LjEyIDExLjkzLDI4LjE2IDEzLjA3LDI3LjAzICYjMTA7JiM5OyYjOTsmIzk7MTMuMDcsMzUuNTMgMTEuOTMsMzQuMzkgMTAuODksMzUuNDQgMTMuODIsMzguMzcgMTYuNzYsMzUuNDQgMTUuNzIsMzQuMzkgJiM5OyYjOTsiLz4mI3hhOwk8L2c+JiN4YTs8L2c+JiN4YTs8L3N2Zz4=;fontSize=6;fontColor=#AE562C;strokeColor=#AE562C;strokeWidth=2;fillColor=#2C5967;" parent="gP81K4ogqWe0er_8T8x9-1" vertex="1">
          <mxGeometry x="853" y="129" width="28" height="42" as="geometry" />
        </mxCell>
        <mxCell id="GRZvV6n4u9EKjiOEqhzO-0" style="edgeStyle=orthogonalEdgeStyle;rounded=0;orthogonalLoop=1;jettySize=auto;html=1;exitX=0.5;exitY=1;exitDx=0;exitDy=0;" edge="1" parent="gP81K4ogqWe0er_8T8x9-1" source="gP81K4ogqWe0er_8T8x9-2" target="gP81K4ogqWe0er_8T8x9-2">
          <mxGeometry relative="1" as="geometry" />
        </mxCell>
      </root>
    </mxGraphModel>
  </diagram>
</mxfile>
